<svg width="6109px" height="5665px" data-deck="UD"  data-aircraft="380-800" data-three-d-config="A380_CONFIG7" data-selector-code="388ufjy-upper-deck" data-shared-cabin="false" data-cabin-position="default" viewBox="0 0 6109 5665" version="1.1" xmlns="http://www.w3.org/2000/svg" xmlns:xlink="http://www.w3.org/1999/xlink"><style>text{font-family:HelveticaNeue-Light,Helvetica Neue Light,Helvetica Neue,Helvetica,Arial,Lucida Grande,sans-serif;font-size:13.2px;font-weight:700;fill:#666;dominant-baseline:alphabetic;text-anchor:middle;user-select:none}[dir=rtl] text{font-family:emirates-medium,Helvetica,Arial,"Lucida Grande",sans-serif}</style><defs><filter id="fb-1" x="-1.4%" y="-0.1%" width="102.8%" height="100.3%" filterUnits="objectBoundingBox"><feMorphology radius="1" operator="dilate" in="SourceAlpha" result="shadowSpreadOuter1"/><feOffset dx="0" dy="2" in="shadowSpreadOuter1" result="shadowOffsetOuter1"/><feGaussianBlur stdDeviation="1" in="shadowOffsetOuter1" result="shadowBlurOuter1"/><feColorMatrix values="0 0 0 0 0   0 0 0 0 0   0 0 0 0 0  0 0 0 0.1 0" type="matrix" in="shadowBlurOuter1"/></filter><filter id="fb-2" x="-3.531" y="-2.081" width="44.061" height="51.062" filterUnits="userSpaceOnUse" color-interpolation-filters="sRGB"><feFlood flood-opacity="0" result="BackgroundImageFix" /><feColorMatrix in="SourceAlpha" values="0 0 0 0 0 0 0 0 0 0 0 0 0 0 0 0 0 0 127 0" result="hardAlpha" /><feMorphology radius="1.45" operator="dilate" in="SourceAlpha" result="effect1_dropShadow_70_427655" /><feOffset dy="1.45" /><feGaussianBlur stdDeviation="1.45" /><feColorMatrix values="0 0 0 0 0.971234 0 0 0 0 0.971234 0 0 0 0 0.971234 0 0 0 1 0" /><feBlend in2="BackgroundImageFix" result="effect1_dropShadow_70_427655" /><feBlend in="SourceGraphic" in2="effect1_dropShadow_70_427655" result="shape" /></filter><filter id="fb-3" width="103.9%" height="176.2%" x="-2%" y="-30.5%" filterUnits="objectBoundingBox"><feMorphology in="SourceAlpha" operator="dilate" radius="1" result="shadowSpreadOuter1"/><feOffset dy="2" in="shadowSpreadOuter1" result="shadowOffsetOuter1"/><feGaussianBlur in="shadowOffsetOuter1" result="shadowBlurOuter1" stdDeviation="2"/><feColorMatrix in="shadowBlurOuter1" values="0 0 0 0 0 0 0 0 0 0 0 0 0 0 0 0 0 0 0.1 0"/></filter><filter id="fb-4" x="1.316" y="1.314" width="42.006" height="53.923" filterUnits="userSpaceOnUse" color-interpolation-filters="sRGB"><feFlood flood-opacity="0" result="BackgroundImageFix"/><feColorMatrix in="SourceAlpha" values="0 0 0 0 0 0 0 0 0 0 0 0 0 0 0 0 0 0 127 0" result="hardAlpha"/><feOffset dy="1.192"/><feGaussianBlur stdDeviation="1.49"/><feColorMatrix values="0 0 0 0 0 0 0 0 0 0 0 0 0 0 0 0 0 0 0.1 0"/><feBlend in2="BackgroundImageFix" result="effect1_dropShadow_71_427721"/><feBlend in="SourceGraphic" in2="effect1_dropShadow_71_427721" result="shape"/></filter><filter id="fb-5" x="3.378" y="1.314" width="42.006" height="53.923" filterUnits="userSpaceOnUse" color-interpolation-filters="sRGB"><feFlood flood-opacity="0" result="BackgroundImageFix"/><feColorMatrix in="SourceAlpha" values="0 0 0 0 0 0 0 0 0 0 0 0 0 0 0 0 0 0 127 0" result="hardAlpha"/><feOffset dy="1.192"/><feGaussianBlur stdDeviation="1.49"/><feColorMatrix values="0 0 0 0 0 0 0 0 0 0 0 0 0 0 0 0 0 0 0.1 0"/><feBlend in2="BackgroundImageFix" result="effect1_dropShadow_71_427740"/><feBlend in="SourceGraphic" in2="effect1_dropShadow_71_427740" result="shape"/></filter><filter id="fb-6" x="3.453" y="1.314" width="42.006" height="53.923" filterUnits="userSpaceOnUse" color-interpolation-filters="sRGB"><feFlood flood-opacity="0" result="BackgroundImageFix"/><feColorMatrix in="SourceAlpha" values="0 0 0 0 0 0 0 0 0 0 0 0 0 0 0 0 0 0 127 0" result="hardAlpha"/><feOffset dy="1.192"/><feGaussianBlur stdDeviation="1.49"/><feColorMatrix values="0 0 0 0 0 0 0 0 0 0 0 0 0 0 0 0 0 0 0.1 0"/><feBlend in2="BackgroundImageFix" result="effect1_dropShadow_71_427711"/><feBlend in="SourceGraphic" in2="effect1_dropShadow_71_427711" result="shape"/></filter><g id="seat-py-l"><g filter="url(#fb-6)" class="layout" ><path d="M37.565 3.25H11.348a4.767 4.767 0 0 0-4.766 4.767V46.15a4.767 4.767 0 0 0 4.766 4.767h26.217a4.767 4.767 0 0 0 4.766-4.767V8.017a4.767 4.767 0 0 0-4.766-4.767Z" fill="#fff"/><path d="M37.565 3.25H11.348a4.767 4.767 0 0 0-4.766 4.767V46.15a4.767 4.767 0 0 0 4.766 4.767h26.217a4.767 4.767 0 0 0 4.766-4.767V8.017a4.767 4.767 0 0 0-4.766-4.767Z" stroke="#A1A1A1" stroke-width=".298"/></g><path fill-rule="evenodd" clip-rule="evenodd" d="M4.794 10.401c0-1.974-1.6-3.575-3.575-3.575H.623v40.516h4.17v-36.94Z" fill="#EAEAEA"/><path d="M.624 46.152h4.17v1.192H.624v-1.192Z" fill="#D5D5D5"/></g><g id="seat-py-r"><g filter="url(#fb-4)" class="layout" ><path d="M35.427 3.25H9.211a4.767 4.767 0 0 0-4.767 4.767V46.15a4.767 4.767 0 0 0 4.767 4.767h26.216a4.767 4.767 0 0 0 4.767-4.767V8.017a4.767 4.767 0 0 0-4.767-4.767Z" fill="#fff"/><path d="M35.427 3.25H9.211a4.767 4.767 0 0 0-4.767 4.767V46.15a4.767 4.767 0 0 0 4.767 4.767h26.216a4.767 4.767 0 0 0 4.767-4.767V8.017a4.767 4.767 0 0 0-4.767-4.767Z" stroke="#A1A1A1" stroke-width=".298"/></g><path fill-rule="evenodd" clip-rule="evenodd" d="M41.981 10.401c0-1.974 1.6-3.575 3.575-3.575h.596v40.516H41.98v-36.94Z" fill="#EAEAEA"/><path d="M46.152 46.152H41.98v1.192h4.17v-1.192Z" fill="#D5D5D5"/></g><g id="seat-py-lr"><g filter="url(#fb-5)" class="layout" ><path d="M37.489 3.25H11.273a4.767 4.767 0 0 0-4.767 4.767V46.15a4.767 4.767 0 0 0 4.767 4.767h26.216a4.767 4.767 0 0 0 4.767-4.767V8.017a4.767 4.767 0 0 0-4.767-4.767Z" fill="#fff"/><path d="M37.489 3.25H11.273a4.767 4.767 0 0 0-4.767 4.767V46.15a4.767 4.767 0 0 0 4.767 4.767h26.216a4.767 4.767 0 0 0 4.767-4.767V8.017a4.767 4.767 0 0 0-4.767-4.767Z" stroke="#A1A1A1" stroke-width=".298"/></g><path fill-rule="evenodd" clip-rule="evenodd" d="M44.045 10.403c0-1.974 1.6-3.575 3.575-3.575h.596v40.516h-4.171v-36.94Z" fill="#EAEAEA"/><path d="M48.216 46.152h-4.171v1.192h4.17v-1.192Z" fill="#D5D5D5"/><path fill-rule="evenodd" clip-rule="evenodd" d="M4.719 10.401c0-1.974-1.6-3.575-3.575-3.575H.548v40.516h4.17v-36.94Z" fill="#EAEAEA"/><path d="M.548 46.152h4.17v1.192H.549v-1.192Z" fill="#D5D5D5"/></g><g id="seat-ec"><path fill="#fff" d="M0 0h37v44H0z" /><g filter="url(#fb-2)" class="layout"><rect x="1" y="1" width="35" height="42" rx="5.799" fill="#fff" /><rect x="1" y="1" width="35" height="42" rx="5.799" stroke="#A1A1A1" stroke-width=".362" /></g></g><g id="flap" opacity=".6" transform="translate(2846)"><path fill="silver" d="M281.91 125.7c-12.945.173-36.811.302-71.597.387-35.65-.209-59.005-.395-70.067-.557-1.798-.027-1.055-114.23.321-114.659 21.67-6.748 40.534-9.636 69.453-10.224 30.756-.624 68.657 9.614 72.466 10.717L281.91 125.7zM92.333 34.89c-34.987 22.186-64.64 51.035-88.96 86.547 63.723 2.419 105.64 3.833 125.75 4.241 3.09.063 1.576.117 4.42.163-.246-73.648-.586-110.646-1.021-110.995-13.943 5.214-27.34 11.895-40.19 20.043zM328.698 34.89c34.986 22.186 64.64 51.035 88.96 86.547-63.723 2.419-105.64 3.833-125.75 4.241-3.09.063-1.577.117-4.42.163.246-73.648.586-110.646 1.02-110.995 13.944 5.214 27.34 11.895 40.19 20.043z" opacity=".249"/><path fill="#BCBCBC" d="M419.153 126.387H-.05l3.188-5.296c89.134 3.275 156.102 5.296 203.436 5.296 46.859 0 114.657-1.765 209.69-5.296.64-.024 1.604 1.742 2.89 5.296z"/></g><!-- Left Facility  --><g id="b-head-l" transform="scale(.55 .3)"><path d="M0 31.066C0 13.909 13.909 0 31.066 0H204.22c17.157 0 31.066 13.868 31.066 31.025v299.952c0 17.157-13.909 31.023-31.066 31.023H31.066C13.909 362 0 348.091 0 330.934V31.066Z" fill="#F9F9F9" /><mask id="mask-b-head-l" style="mask-type:alpha" maskUnits="userSpaceOnUse" x="0" y="0" width="236" height="362"><path d="M0 31.066C0 13.909 13.909 0 31.066 0H204.22c17.157 0 31.066 13.868 31.066 31.025v299.952c0 17.157-13.909 31.023-31.066 31.023H31.066C13.909 362 0 348.091 0 330.934V31.066Z" fill="#F9F9F9" /></mask><g mask="url(#mask-b-head-l)" fill="#E3E3E3"><path d="M8.506.184h216.838a6.213 6.213 0 0 1-6.213 6.213H14.719A6.213 6.213 0 0 1 8.506.184ZM6.834 356.012h216.838a6.213 6.213 0 0 1-6.213 6.213H13.047a6.213 6.213 0 0 1-6.213-6.213Z" /></g></g><!-- Right Facility  --><use id="b-head-r" xlink:href="#b-head-l" transform="matrix(-1 0 0 1 124.8 0)"/><!-- Center Facility  --><g id="b-head-c" transform="scale(.45 .122)"><path d="M0 50C0 22.386 22.386 0 50 0h278.691c27.615 0 50 22.321 50 49.935v482.77c0 27.615-22.385 49.932-50 49.932H50c-27.614 0-50-22.386-50-50V50Z" fill="#F9F9F9" /><mask id="mask-b-head-c" style="mask-type:alpha" maskUnits="userSpaceOnUse" x="0" y="0" width="379" height="583"><path d="M0 50C0 22.386 22.386 0 50 0h278.691c27.615 0 50 22.321 50 49.935v482.77c0 27.615-22.385 49.932-50 49.932H50c-27.614 0-50-22.386-50-50V50Z" fill="#F9F9F9" /></mask><g  mask="url(#mask-b-head-c)" fill="#E3E3E3"><path d="M13.691.297h349c0 5.523-4.477 10-10 10h-329c-5.522 0-10-4.477-10-10ZM11 573h349c0 5.523-4.477 10-10 10H21c-5.523 0-10-4.477-10-10Z" /></g></g><g id="col-head" fill="none" fill-rule="nonzero"><path fill="#000" filter="url(#fb-3)" d="M.48.88h508v26l-508 .24z"/><path fill="#FFF" d="M.48.88h508v26l-508 .24z"/></g><g id="exit-l" fill="#333" opacity=".5"><path stroke="#333" stroke-width="4.48" d="M19.45 0v51.2"/><path d="M0 25.6l12.8 12.8V12.8z"/></g><g id="exit" transform="translate(2780)"><use xlink:href="#exit-l"/><use xlink:href="#exit-l" transform="matrix(-1 0 0 1 551.45 0)"/></g><g id="HT" fill="#666" fill-rule="nonzero"><path d="M7.172 5.292c-.19-.654-.97-1.234-1.622-1.234H3.118c-.766 0-1.52.578-1.71 1.262L.13 9.807a.592.592 0 00.573.768.595.595 0 00.578-.448L2.448 6.15h.363L.817 13.08h1.918v5.18c0 .33.32.669.716.669a.699.699 0 00.706-.714v-5.145h.336v5.145c0 .41.31.714.713.714a.668.668 0 00.688-.686V13.07H7.77L5.768 6.15h.39l1.14 3.931c.1.348.32.496.583.496a.635.635 0 00.594-.827L7.172 5.293zM4.288 3.688c.825-.004 1.483-.687 1.483-1.516 0-.823-.658-1.51-1.487-1.51-.824 0-1.491.668-1.491 1.504-.001.867.682 1.524 1.495 1.522zM18.088 4.046h-3.457c-.944 0-1.748.745-1.748 1.826v4.836c0 .308.297.612.647.612a.685.685 0 00.665-.657V6.74h.344v11.278c.026.512.435.878.805.896.437.02.88-.372.88-.824v-6.8h.352v6.812c0 .39.382.812.844.812.428 0 .831-.377.831-.824V6.749h.326v3.9c0 .394.283.677.661.677.361 0 .65-.255.65-.693V5.865c0-.986-.825-1.82-1.8-1.82zM16.379 3.694c.84 0 1.507-.672 1.507-1.519 0-.835-.662-1.523-1.492-1.523-.824 0-1.493.677-1.493 1.508 0 .874.678 1.534 1.478 1.534zM10.46 0c-.275 0-.501.188-.501.421v18.705c0 .23.226.42.5.42.271 0 .5-.19.5-.42V.42c-.001-.232-.229-.42-.5-.42z"/><g transform="matrix(-1 0 0 1 32 3)"><path d="M7.492 8.333a.954.954 0 00.186-.193l.45-.617A3.843 3.843 0 019.6 10.55a3.852 3.852 0 01-3.854 3.85 3.853 3.853 0 01-3.687-4.977h-.534v3.265a.762.762 0 11-1.525 0V8.665c0-.422.342-.762.763-.762h2.184c.322-.339.704-.62 1.129-.824V4.724c0-.841.683-1.524 1.526-1.524h.122c.377 0 .722.137.989.363l2.01 1.459c.304.22.372.645.15.95L7.429 7.958a.68.68 0 01-1.1-.799l1.045-1.44-.25-.18-1.046 1.438a.984.984 0 00-.173.756A2.823 2.823 0 002.92 10.55a2.823 2.823 0 002.825 2.821A2.823 2.823 0 008.57 10.55c0-.899-.421-1.7-1.078-2.217z"/><circle cx="4.8" cy="1.6" r="1.6"/></g></g><path id="GL" d="M14.195 3.019c-.246 0-.492.024-.733.071C12.823 1.818 11.508 1 10.02 1c-1.487 0-2.802.819-3.442 2.09a3.85 3.85 0 00-.733-.071c-2.119 0-3.842 1.69-3.842 3.77 0 1.534.961 2.912 2.385 3.486l1.159 9.174c.04.314.312.551.635.551h7.676a.636.636 0 00.635-.551l1.16-9.174c1.421-.575 2.383-1.953 2.383-3.487 0-2.078-1.723-3.77-3.842-3.77zM6.75 18.743l-.165-1.307h6.874l-.165 1.307H6.749zm8.143-9.538a.632.632 0 00-.461.527l-.814 6.447H6.425l-.814-6.447a.63.63 0 00-.46-.527C4.051 8.9 3.284 7.907 3.284 6.787c0-1.385 1.149-2.512 2.56-2.512.302 0 .601.054.891.16.166.06.35.051.507-.024a.631.631 0 00.33-.38c.331-1.06 1.315-1.774 2.447-1.774 1.133 0 2.117.713 2.449 1.774.05.165.17.303.328.38.16.075.342.084.507.024.29-.106.59-.16.891-.16 1.412 0 2.561 1.127 2.561 2.512 0 1.12-.767 2.113-1.864 2.418zm-7.475-.02a.631.631 0 00-.559.7l.549 4.454a.637.637 0 00.712.549.632.632 0 00.56-.7l-.55-4.455a.638.638 0 00-.712-.548zm5.16 0a.634.634 0 00-.714.548l-.549 4.455a.631.631 0 00.637.705c.32 0 .595-.235.635-.554l.548-4.454a.63.63 0 00-.558-.7z" fill="#666" opacity=".9"/><path id="LA" d="M7.172 5.292c-.19-.654-.97-1.234-1.622-1.234H3.118c-.766 0-1.52.578-1.71 1.262L.13 9.807a.592.592 0 00.573.768.595.595 0 00.578-.448L2.448 6.15h.363L.817 13.08h1.918v5.18c0 .33.32.669.716.669a.699.699 0 00.706-.714v-5.145h.336v5.145c0 .41.31.714.713.714a.668.668 0 00.688-.686V13.07H7.77L5.768 6.15h.39l1.14 3.931c.1.348.32.496.583.496a.635.635 0 00.594-.827L7.172 5.293zM4.288 3.688c.825-.004 1.483-.687 1.483-1.516 0-.823-.658-1.51-1.487-1.51-.824 0-1.491.668-1.491 1.504-.001.867.682 1.524 1.495 1.522zM18.088 4.046h-3.457c-.944 0-1.748.745-1.748 1.826v4.836c0 .308.297.612.647.612a.685.685 0 00.665-.657V6.74h.344v11.278c.026.512.435.878.805.896.437.02.88-.372.88-.824v-6.8h.352v6.812c0 .39.382.812.844.812.428 0 .831-.377.831-.824V6.749h.326v3.9c0 .394.283.677.661.677.361 0 .65-.255.65-.693V5.865c0-.986-.825-1.82-1.8-1.82zM16.379 3.694c.84 0 1.507-.672 1.507-1.519 0-.835-.662-1.523-1.492-1.523-.824 0-1.493.677-1.493 1.508 0 .874.678 1.534 1.478 1.534zM10.46 0c-.275 0-.501.188-.501.421v18.705c0 .23.226.42.5.42.271 0 .5-.19.5-.42V.42c-.001-.232-.229-.42-.5-.42z" fill="#666" fill-rule="nonzero"/><circle id="twin" transform="translate(12 21.8)" cx="6" cy="6" r="6" fill="#2A96FF" fill-rule="nonzero"/><g id="reduce_mob" fill="#666" transform="matrix(-.75 0 0 .75 23.7 5)"><path d="M9.99 11.111c.091-.071.176-.158.247-.257l.6-.823a5.125 5.125 0 011.963 4.036A5.136 5.136 0 017.661 19.2a5.137 5.137 0 01-4.916-6.636h-.711v4.353a1.016 1.016 0 11-2.034 0v-5.364c0-.562.455-1.016 1.017-1.016H3.93a5.171 5.171 0 011.504-1.099v-3.14c0-1.121.912-2.031 2.035-2.031h.164c.502 0 .962.182 1.317.483l2.68 1.946c.406.294.496.86.201 1.265l-1.928 2.651a.907.907 0 01-1.467-1.065l1.394-1.92-.333-.24-1.394 1.917a1.31 1.31 0 00-.231 1.008 3.763 3.763 0 00-3.977 3.755 3.764 3.764 0 003.766 3.761 3.763 3.763 0 003.765-3.761A3.756 3.756 0 009.99 11.11z"/><circle cx="6.4" cy="2.133" r="2.133"/></g><path id="pref" transform="translate(11 23.8)" fill="#00908F" fill-rule="nonzero" d="M7 11.609L2.674 14 3.5 8.935 0 5.348l4.837-.739L7 0l2.163 4.609L14 5.348l-3.5 3.587.826 5.065z"/><path id="extra_leg" transform="translate(11 23.8)" fill="#DE5014" fill-rule="nonzero" d="M9.155 11.5h5.114c.227 0 .3-.154.16-.33L7.754 2.633c-.14-.18-.368-.178-.507.001L.571 11.167c-.14.18-.066.333.16.333h8.424z"/><path id="baby" transform="translate(8.4 5)" fill="#666" d="M16.82 0H2.38C1.068 0 0 .91 0 2.03v7.14c0 1.12 1.068 2.03 2.38 2.03h14.44c1.312 0 2.38-.911 2.38-2.03V2.03C19.2.91 18.132 0 16.82 0zm1.19 8.9c0 .671-.64 1.217-1.428 1.217H2.618c-.787 0-1.428-.547-1.428-1.218V2.301c0-.672.64-1.218 1.428-1.218h13.964c.787 0 1.428.547 1.428 1.218v6.598zm-6.583-4.372l-1.226-2.442c-.16-.315-.587-.461-.956-.326-.276.1-.441.33-.441.57 0 .082.02.164.06.244l.66 1.315h-1.38V3.81c0-.085-.08-.155-.18-.155h-.809a.197.197 0 00-.125.043l-.056.047-.493-.656a.834.834 0 00-.536-.31.93.93 0 00-.631.12L3.6 3.952a.67.67 0 00-.34.568c0 .14.05.283.155.406.264.313.776.384 1.142.159l1.012-.622.197.263-.088.072a.146.146 0 00-.056.112v1.378c0 .043.02.084.056.114l.088.07-.197.264-1.012-.622c-.366-.224-.879-.155-1.142.158a.631.631 0 00-.155.408c0 .216.118.43.34.566L5.314 8.3a.936.936 0 00.632.12.83.83 0 00.536-.31l.492-.655.057.046c.035.029.08.044.127.044h.806c.1 0 .182-.07.182-.155V7.31h1.378l-.66 1.315a.53.53 0 00-.06.244c0 .24.166.47.442.57.368.134.796-.011.956-.328l1.226-2.44a.574.574 0 00.047-.134.968.968 0 00.057-.327V4.987a.96.96 0 00-.057-.325.57.57 0 00-.047-.134zM7.781 7.234h-.552l-1.244-1.01V4.975l1.243-1.008h.552v3.267zm5.747-3.344a1.6 1.6 0 100 3.2 1.6 1.6 0 000-3.2z" opacity=".9"/><g id="filler" fill="#FBFBFB" fill-rule="evenodd"><rect x="145" width="192" height="336" rx="8"/><path d="M65 30h57a8 8 0 0 1 8 8v189a8 8 0 0 1-8 8H8a8 8 0 0 1-8-8V95c0-35.899 29.101-65 65-65ZM360 30h57c35.899 0 65 29.101 65 65v132a8 8 0 0 1-8 8H360a8 8 0 0 1-8-8V38a8 8 0 0 1 8-8Z"/></g><filter id="f380-1" x="38.472" y="2.92" width="57.056" height="88.058" filterUnits="userSpaceOnUse" color-interpolation-filters="sRGB"><feFlood flood-opacity="0" result="BackgroundImageFix" /><feColorMatrix in="SourceAlpha" values="0 0 0 0 0 0 0 0 0 0 0 0 0 0 0 0 0 0 127 0" result="hardAlpha" /><feMorphology radius="1.449" operator="dilate" in="SourceAlpha" result="effect1_dropShadow_294_668560" /><feOffset dy="1.449" /><feGaussianBlur stdDeviation="1.449" /><feColorMatrix values="0 0 0 0 0.971234 0 0 0 0 0.971234 0 0 0 0 0.971234 0 0 0 1 0" /><feBlend in2="BackgroundImageFix" result="effect1_dropShadow_294_668560" /><feBlend in="SourceGraphic" in2="effect1_dropShadow_294_668560" result="shape" /></filter><filter id="f380-2" x="39.472" y="2.92" width="57.056" height="88.058" filterUnits="userSpaceOnUse" color-interpolation-filters="sRGB"><feFlood flood-opacity="0" result="BackgroundImageFix" /><feColorMatrix in="SourceAlpha" values="0 0 0 0 0 0 0 0 0 0 0 0 0 0 0 0 0 0 127 0" result="hardAlpha" /><feMorphology radius="1.449" operator="dilate" in="SourceAlpha" result="effect1_dropShadow_294_668742" /><feOffset dy="1.449" /><feGaussianBlur stdDeviation="1.449" /><feColorMatrix values="0 0 0 0 0.971234 0 0 0 0 0.971234 0 0 0 0 0.971234 0 0 0 1 0" /><feBlend in2="BackgroundImageFix" result="effect1_dropShadow_294_668742" /><feBlend in="SourceGraphic" in2="effect1_dropShadow_294_668742" result="shape" /></filter><filter id="f380-fc" x="4.085" y="8.386" width="56.33" height="104.49" filterUnits="userSpaceOnUse" color-interpolation-filters="sRGB"><feFlood flood-opacity="0" result="BackgroundImageFix" /><feColorMatrix in="SourceAlpha" values="0 0 0 0 0 0 0 0 0 0 0 0 0 0 0 0 0 0 127 0" result="hardAlpha" /><feMorphology radius="1.72" operator="dilate" in="SourceAlpha" result="effect1_dropShadow_1_417848" /><feOffset dy="1.72" /><feGaussianBlur stdDeviation="1.72" /><feColorMatrix values="0 0 0 0 0.971234 0 0 0 0 0.971234 0 0 0 0 0.971234 0 0 0 1 0" /><feBlend in2="BackgroundImageFix" result="effect1_dropShadow_1_417848" /><feBlend in="SourceGraphic" in2="effect1_dropShadow_1_417848" result="shape" /></filter><rect id="p380-1" class="layout" x="62.019" y="23.002" width="71" height="97" rx="15"/><rect id="p380-2" class="layout" width="71" height="97" rx="15"/><g id="seat-fc" fill="none" fill-rule="evenodd"><path fill="#fff" d="M0 0h86v115H0z" /><g class="layout"><rect filter="url(#f380-fc)" width="45.58" height="93.74" rx="6.88" transform="matrix(-1 0 0 1 55.04 12.041)" fill="#fff" /><rect width="45.58" height="93.74" rx="6.88" transform="matrix(-1 0 0 1 55.04 12.041)" stroke="#A1A1A1" stroke-width=".43" /></g><path d="M1.72 102.807c0 6.866 5.528 12.432 12.348 12.432h34.903c6.654 0 13.731-5.431 13.731-12.13H86" stroke="#DEDEDE" stroke-width=".43" stroke-linecap="round" /><path d="m62.78 102.34 23.22-.942V0c0 5.554-4.503 10.057-10.057 10.057H63.008v55.605s-.228 20.614-.228 26.713v9.965Z" fill="#F5F5F5" /><path d="M62.78 102.783H86v-20.64s-9.975 1.11-14.791 6.333c-4.817 5.224-8.429 14.307-8.429 14.307Z" fill="#E8E8E8" /><rect width="2.508" height="99.597" rx="1.254" transform="matrix(-1 0 0 1 2.508 0)" fill="#E8E8E8" /></g><use id="seat-fc-flip" xlink:href="#seat-fc" transform="scale(-1 1)"/><g id="seat-bc1" fill="none" fill-rule="evenodd"><path fill="#fff" d="M0 0h100v90H0z" /><path opacity=".249" d="M99.566 59.397V80.538c0 5.928-5.666 10.734-12.657 10.734H48.74c-7.761 0-14.053-5.336-14.053-11.918H-1V1c0 6.258 5.982 11.332 13.362 11.332h44.663c6.602 0 11.953-4.54 11.953-10.138V1h30.588v58.397Z" fill="#FAFAFA" /><path d="M0 80V31h29.71c2.922 0 5.29 2.077 5.29 4.64V80H0Z" fill="#F5F5F5" /><path d="M34.874 79.551H.42V58.68s14.89.76 22.125 6.085c7.235 5.324 12.33 14.786 12.33 14.786Z" fill="#E8E8E8" /><path d="M100 58.844v20.382c0 6.696-6.4 12.125-14.296 12.125H48.783c-7.704 0-13.95-5.297-13.95-11.83H.42V58.844" stroke="#D5D5D5" stroke-width=".362" stroke-linecap="round" /><g class="layout"><rect filter="url(#f380-1)" width="48" height="79" rx="5.796" transform="matrix(-1 0 0 1 91 6)" fill="#fff" /><rect width="48" height="79" rx="5.796" transform="matrix(-1 0 0 1 91 6)" stroke="#A1A1A1" stroke-width=".362" /></g></g><g id="seat-bc2" fill="none" fill-rule="evenodd"><path fill="#fff" d="M0 0h100v90H0z" /><path d="M97 6v70.642C97 84.02 90.965 90 83.52 90H51.055c-7.264 0-13.152-4.835-13.152-12.033H0V54.186" stroke="#D5D5D5" stroke-width=".372" stroke-linecap="round" /><path d="M101 56.231v23.265A8.504 8.504 0 0 1 92.496 88H57.133c-6.56 0-11.879-5.318-11.879-11.879H14V-2c0 6.237 5.056 11.294 11.294 11.294h39.154c5.672 0 10.27-4.599 10.27-10.271V-2H101v58.231Z" fill="#FEFEFE" /><path d="M36.852 78H0V-1c0 6.738 5.463 12.2 12.2 12.2H37v32.435s-5.637 11.41-5.637 17.276c0 5.865 5.49 17.089 5.49 17.089Z" fill="#F5F5F5" /><path d="M38 78H0V60s16.324.968 24.206 5.524C32.088 70.079 38 78 38 78Z" fill="#E8E8E8" /><g class="layout"><rect filter="url(#f380-2)" x="44" y="6" width="48" height="79" rx="5.796" fill="#fff" /><rect x="44" y="6" width="48" height="79" rx="5.796" stroke="#A1A1A1" stroke-width=".362" /></g></g><use id="seat-bc1-flip" xlink:href="#seat-bc1" transform="scale(-1 1)"/><use id="seat-bc2-flip" xlink:href="#seat-bc2" transform="scale(-1 1)"/><g id="wing" transform="scale(1 0.87)"><path d="M2772.4 1394.2l-593.78 159.71L2.82 2466.77c-6.677-105.59-1.424-183.88 15.761-234.88 17.185-50.991 58.464-110.77 123.84-179.35l1459.4-1064.9 1082.3-855.77L2766.924-.02l5.498 1394.2z" fill="#E4E4E4" transform="translate(0 .183)"/><g transform="matrix(-1 0 0 1 1253.324 874.003)"><path d="M36.611 0s247.26.841 247.26 0c32.873 64.97 43.127 224.43 30.763 478.38-.299 6.137-5.362 10.96-11.506 10.96H21.888a11.52 11.52 0 01-11.472-10.469C-9.547 260.921-.816 101.301 36.611.001z" fill="#E4E4E4"/><path fill="#E4E4E4" d="M246.16 484.84l-26.27 64.92-98.31-64.92z"/><path fill="#fff" opacity=".714" d="M153.8 128.34h23.31l10.51 405.28-43.53-24.12z"/></g><path d="M36.611 0s247.26.841 247.26 0c32.873 64.97 43.127 224.43 30.763 478.38-.299 6.137-5.362 10.96-11.506 10.96H21.888a11.52 11.52 0 01-11.472-10.469C-9.547 260.921-.816 101.301 36.611.001z" fill="#E4E4E4" transform="matrix(-1 0 0 1 2097.574 259.333)"/><path fill="#E4E4E4" d="M246.16 484.84l-26.27 64.92-98.31-64.92z" transform="matrix(-1 0 0 1 2097.574 259.333)"/><path fill="#fff" opacity=".714" d="M153.8 128.34h23.31l10.51 405.28-43.53-24.12z" transform="matrix(-1 0 0 1 2097.574 259.333)"/><path fill="#fff" opacity=".714" d="M.375 142.97V.601L1288.2 1024.5 2576 1959.1l-27.4 33.9-1297.9-906.2z" transform="matrix(-1 0 0 1 2716.724 121.983)"/><path d="M689.36 580.48l33.5-72.02" transform="matrix(-1 0 0 1 2716.724 121.983)"/><path transform="rotate(180 1358.362 1236.092)" fill="#F7F7F7" d="M1024.4 1118.1l20.1 106.7-40.2 7.2z"/><path transform="rotate(180 1358.362 1775.892)" fill="#E4E4E4" d="M989.68 1620.4l34.32 171.9-68.64 17.2z"/><path transform="rotate(180 1358.362 1586.792)" fill="#E4E4E4" d="M675.23 1431.2l34.31 172-68.63 17.2z"/><path transform="rotate(180 1358.362 1492.192)" fill="#E4E4E4" d="M375.79 1336.7l34.31 171.9-68.63 17.2z"/><path transform="rotate(180 1358.362 1915.492)" fill="#E4E4E4" d="M1316.1 1760l34.4 171.9-68.7 17.2z"/><path transform="rotate(180 1358.362 2034.892)" fill="#E4E4E4" d="M1623.1 1879.3l34.3 172-68.6 17.1z"/><path fill="#fff" opacity=".714" d="M.273 1296.1v-223.6l539.217 140 1794.81 897.6v85.2L539.49 1445.9z" transform="matrix(-1 0 0 1 2723 121.983)"/></g><g id="SW" fill-rule="nonzero" fill="none" opacity=".6"><g transform="translate(11.257 10.41)"><path fill="#BCBCBC" d="M39.241 0h38.758l4.006 2.846H34.841z" /><rect fill="#DCDDDE" x="34.841" y="1.707" width="47.406" height="19.92" rx="2.167" /><path d="M32.556 20.829h46.952c1.197 0 2.167-.97 2.167-2.168V4.126a2.167 2.167 0 0 0-2.981-2.008l-46.138 18.71Z" fill="#D9E2EA" opacity=".173" /><path fill="#BCBCBC" d="M34.84 18.782h47.345l6.344 3.414H28.558z" /><rect fill="#DCDDDE" x="28.558" y="21.058" width="59.971" height="23.335" rx="2.167" /><path d="m25.702 43.664 60.53-22.504a1.71 1.71 0 0 1 2.298 1.605v19.192a1.71 1.71 0 0 1-1.714 1.707H25.702Z" fill="#D9E2EA" opacity=".173" /><path fill="#BCBCBC" d="M28.704 38.701h59.561l5.851 2.846H22.275z" /><rect fill="#DCDCDC" x="21.704" y="40.978" width="73.108" height="23.335" rx="2.167" /><path d="M94.812 43.91v18.235c0 1.197-.97 2.168-2.167 2.168H18.848l73.16-22.474a2.167 2.167 0 0 1 2.804 2.072Z" fill="#D9E2EA" opacity=".173" /><path fill="#BCBCBC" d="M21.743 59.76h72.94l9.268 3.414-90.529-.284z" /><rect fill="#DCDCDC" x="12.565" y="62.605" width="91.385" height="22.196" rx="2.167" /><path d="M103.95 65.342v17.292c0 1.197-.97 2.168-2.167 2.168H9.71l91.576-21.57a2.167 2.167 0 0 1 2.665 2.11Z" fill="#D9E2EA" opacity=".173" /><path fill="#BCBCBC" d="M12.504 81.956H103.9l11.474 2.846H1.142z" /><path d="M2.167 84.802H114.35c1.197 0 2.167.97 2.167 2.167v21.846c0 1.197-.97 2.167-2.167 2.167H2.167A2.167 2.167 0 0 1 0 108.815V86.969c0-1.197.97-2.167 2.167-2.167Z" fill="#DCDCDC" /></g><path d="M29.534 37.16H24.68c-.789 0-1.428.637-1.428 1.422 0 .786.639 1.423 1.428 1.423h3.99l.864-2.846ZM8.973 87.244H4.118c-.789 0-1.428.637-1.428 1.422 0 .786.64 1.423 1.428 1.423h4.57l.285-2.845ZM42.1 4.719h-4.855c-.789 0-1.428.637-1.428 1.422 0 .786.64 1.423 1.428 1.423h3.862L42.1 4.72Z" fill="#BCBCBC" /><path d="M44.86.098a1.332 1.332 0 0 0-1.736.735L.405 107.163l1.428 17.928c.19.262.476.394.857.394.38 0 .666-.132.857-.394l1.671-15.822c.028-.264.09-.524.184-.773L45.628 1.846A1.366 1.366 0 0 0 44.86.098Z" fill="#BCBCBC" /><path d="M44.956.166 2.662 107.325a3.12 3.12 0 0 0-.21 1.353l1.095 16.413L5.83 109.44 45.661 1.747a1.24 1.24 0 0 0-.705-1.581Z" fill="#DCDDDF" /><g><path d="M109.64 37.16h4.854c.789 0 1.428.637 1.428 1.422 0 .786-.64 1.423-1.428 1.423h-3.99l-.865-2.846ZM130.2 87.244h4.856c.788 0 1.428.637 1.428 1.422 0 .786-.64 1.423-1.428 1.423h-4.57l-.285-2.845ZM97.074 4.719h4.855c.788 0 1.427.637 1.427 1.422 0 .786-.639 1.423-1.427 1.423h-3.863l-.992-2.845Z" fill="#BCBCBC" /><path d="M94.171.098a1.332 1.332 0 0 1 1.736.735l42.718 106.33-1.428 17.928c-.19.262-.475.394-.856.394s-.667-.132-.857-.394l-1.671-15.822a3.121 3.121 0 0 0-.184-.773L93.403 1.846a1.366 1.366 0 0 1 .768-1.748Z" fill="#BCBCBC" /><path d="m94.075.166 42.294 107.159c.17.43.241.892.21 1.353l-1.095 16.413-2.285-15.651L93.37 1.747a1.24 1.24 0 0 1 .706-1.581Z" fill="#DCDDDF" /></g></g><!-- Go to Upper Deck in economy --><g id="SWMD" fill="none" opacity="0.6" class="stair-lower"><g opacity="0.6"><g filter="url(#filter0_d_416_683241)"><path d="M7 84.332C7 40.7015 42.3695 5.33203 86 5.33203V5.33203C129.63 5.33203 165 40.7015 165 84.332V194.318C165 209.79 152.458 222.332 136.986 222.332H35.0142C19.5424 222.332 7 209.79 7 194.318V84.332Z" fill="white"/></g><path d="M68.7343 68.4648H106.44L110.337 71.2347H64.4531L68.7343 68.4648Z" fill="#BCBCBC"/><rect x="64.4531" y="70.1289" width="46.1192" height="19.3892" rx="2.10846" fill="#DCDDDE"/><path opacity="0.173382" d="M62.2314 88.7383H107.909C109.074 88.7383 110.018 87.7943 110.018 86.6298V72.48C110.018 70.9839 108.503 69.9637 107.116 70.5262L62.2314 88.7383Z" fill="#D9E2EA"/><path d="M64.4523 86.7422H110.513L116.684 90.0661H58.3408L64.4523 86.7422Z" fill="#BCBCBC"/><rect x="58.3408" y="88.9648" width="58.3436" height="22.7131" rx="2.10846" fill="#DCDDDE"/><path opacity="0.173382" d="M67.2794 110.969C64.9289 110.969 64.3413 107.704 66.5443 106.884L114.45 89.0645C114.632 88.9986 114.824 88.9648 115.018 88.9648C115.939 88.9648 116.685 89.7089 116.685 90.6268V109.307C116.685 110.225 115.939 110.969 115.018 110.969H67.2794Z" fill="#D9E2EA"/><path d="M58.4837 106.137H116.428L122.12 108.907H52.2295L58.4837 106.137Z" fill="#BCBCBC"/><rect x="51.6729" y="108.352" width="71.1236" height="22.7131" rx="2.10846" fill="#DCDCDC"/><path opacity="0.173382" d="M120.069 109.191C121.424 108.774 122.796 109.788 122.796 111.206V128.957C122.796 130.121 121.852 131.065 120.688 131.065H48.8945L120.069 109.191Z" fill="#D9E2EA"/><path d="M51.7117 126.633H122.672L131.688 129.957L43.6172 129.68L51.7117 126.633Z" fill="#BCBCBC"/><rect x="42.7832" y="129.406" width="88.9045" height="21.6051" rx="2.10846" fill="#DCDCDC"/><path opacity="0.173382" d="M129.096 130.016C130.419 129.704 131.688 130.709 131.688 132.069V148.902C131.688 150.067 130.744 151.011 129.579 151.011H40.0049L129.096 130.016Z" fill="#D9E2EA"/><path d="M42.7237 148.238H131.638L142.801 151.008H31.6699L42.7237 148.238Z" fill="#BCBCBC"/><path d="M30.5586 153.116C30.5586 151.952 31.5026 151.008 32.6671 151.008H141.803C142.968 151.008 143.912 151.952 143.912 153.116V174.382C143.912 175.547 142.968 176.491 141.803 176.491H32.6671C31.5026 176.491 30.5586 175.547 30.5586 174.382V153.116Z" fill="#DCDCDC"/><path d="M48.3389 94.5H43.6158C42.8486 94.5 42.2267 95.1201 42.2267 95.8849C42.2267 96.6498 42.8486 97.2699 43.6158 97.2699H47.4983L48.3389 94.5Z" fill="#BCBCBC"/><path d="M28.335 143.25H23.6119C22.8447 143.25 22.2228 143.87 22.2228 144.635C22.2228 145.4 22.8447 146.02 23.6119 146.02H28.0571L28.335 143.25Z" fill="#BCBCBC"/><path d="M60.5635 62.9219H55.8404C55.0732 62.9219 54.4513 63.5419 54.4513 64.3068C54.4513 65.0717 55.0732 65.6918 55.8404 65.6918H59.5977L60.5635 62.9219Z" fill="#BCBCBC"/><path d="M63.2471 58.4273C62.5851 58.1591 61.8304 58.4767 61.5614 59.1367C61.5606 59.1387 61.5597 59.1408 61.5589 59.1429L19.9997 162.641L21.3888 180.091C21.574 180.346 21.8518 180.474 22.2223 180.474C22.5927 180.474 22.8705 180.346 23.0557 180.091L24.6818 164.691C24.7089 164.433 24.769 164.18 24.8603 163.938L63.9944 60.1291C64.249 59.4536 63.9176 58.6989 63.2471 58.4273Z" fill="#BCBCBC"/><path d="M63.3416 58.4922L22.1962 162.797C22.031 163.215 21.9609 163.665 21.9909 164.114L23.0567 180.09L25.2793 164.856L64.0285 60.0315C64.2554 59.4176 63.9509 58.7352 63.3416 58.4922Z" fill="#DCDDDF"/><path d="M126.27 94.5H130.993C131.76 94.5 132.382 95.1201 132.382 95.8849C132.382 96.6498 131.76 97.2699 130.993 97.2699H127.11L126.27 94.5Z" fill="#BCBCBC"/><path d="M146.273 143.25H150.996C151.764 143.25 152.386 143.87 152.386 144.635C152.386 145.4 151.764 146.02 150.996 146.02H146.551L146.273 143.25Z" fill="#BCBCBC"/><path d="M114.045 62.9219H118.768C119.535 62.9219 120.157 63.5419 120.157 64.3068C120.157 65.0717 119.535 65.6918 118.768 65.6918H115.011L114.045 62.9219Z" fill="#BCBCBC"/><path d="M111.223 58.4273C111.885 58.1591 112.639 58.4767 112.908 59.1367C112.909 59.1387 112.91 59.1408 112.911 59.1429L154.47 162.641L153.081 180.091C152.896 180.346 152.618 180.474 152.247 180.474C151.877 180.474 151.599 180.346 151.414 180.091L149.788 164.691C149.761 164.433 149.701 164.18 149.609 163.938L110.475 60.1291C110.221 59.4536 110.552 58.6989 111.223 58.4273Z" fill="#BCBCBC"/><path d="M111.128 58.4922L152.274 162.797C152.439 163.215 152.509 163.665 152.479 164.114L151.413 180.09L149.19 164.856L110.441 60.0315C110.214 59.4176 110.519 58.7352 111.128 58.4922Z" fill="#DCDDDF"/></g><path d="M83.3686 195.246C83.0555 194.918 82.5479 194.918 82.2348 195.246C81.9217 195.575 81.9217 196.107 82.2348 196.435L87.0435 201.477C87.3566 201.805 87.8642 201.805 88.1773 201.477L92.9709 196.451C93.2839 196.123 93.2839 195.59 92.9709 195.262C92.6578 194.934 92.1502 194.934 91.8371 195.262L87.6104 199.694L83.3686 195.246Z" fill="#C60D30"/><defs><filter id="filter0_d_416_683241" x="0.276595" y="0.849761" width="171.447" height="230.447" filterUnits="userSpaceOnUse" color-interpolation-filters="sRGB"><feFlood flood-opacity="0" result="BackgroundImageFix"/><feColorMatrix in="SourceAlpha" type="matrix" values="0 0 0 0 0 0 0 0 0 0 0 0 0 0 0 0 0 0 127 0" result="hardAlpha"/><feOffset dy="2.24113"/><feGaussianBlur stdDeviation="3.3617"/><feColorMatrix type="matrix" values="0 0 0 0 0 0 0 0 0 0 0 0 0 0 0 0 0 0 0.1 0"/><feBlend mode="normal" in2="BackgroundImageFix" result="effect1_dropShadow_416_683241"/><feBlend mode="normal" in="SourceGraphic" in2="effect1_dropShadow_416_683241" result="shape"/></filter></defs></g><!-- Down stair First Class --><g id="SWUD" fill="none" opacity="0.6" class="stair-upper"><g opacity="0.6"><g filter="url(#filter0_d_416_683237)"><path d="M166.123 143.001C166.305 186.631 131.083 222.148 87.4528 222.33V222.33C43.8227 222.512 8.30595 187.29 8.1239 143.66L7.66499 33.6751C7.60043 18.2034 20.0904 5.6088 35.562 5.54424L137.533 5.11877C153.004 5.05421 165.599 17.5441 165.664 33.0158L166.123 143.001Z" fill="white"/></g><path d="M104.454 159.123L66.7485 159.281L62.8402 156.527L108.724 156.336L104.454 159.123Z" fill="#BCBCBC"/><rect x="108.729" y="157.441" width="46.1192" height="19.3892" rx="2.10846" transform="rotate(179.761 108.729 157.441)" fill="#DCDDDE"/><path opacity="0.173382" d="M110.873 138.824L65.1957 139.015C64.0313 139.02 63.0912 139.968 63.0961 141.132L63.1551 155.282C63.1614 156.778 64.6805 157.792 66.0644 157.223L110.873 138.824Z" fill="#D9E2EA"/><path d="M108.66 140.83L62.6 141.022L56.4145 137.724L114.758 137.481L108.66 140.83Z" fill="#BCBCBC"/><rect x="114.763" y="138.582" width="58.3436" height="22.7131" rx="2.10846" transform="rotate(179.761 114.763 138.582)" fill="#DCDDDE"/><path opacity="0.173382" d="M105.732 116.615C108.083 116.606 108.684 119.868 106.485 120.697L58.6538 138.716C58.4718 138.783 58.2795 138.818 58.0857 138.818C57.165 138.822 56.4156 138.081 56.4118 137.163L56.3338 118.483C56.33 117.566 57.0732 116.818 57.9938 116.815L105.732 116.615Z" fill="#D9E2EA"/><path d="M114.548 121.409L56.604 121.651L50.8999 118.905L120.79 118.613L114.548 121.409Z" fill="#BCBCBC"/><rect x="121.35" y="119.168" width="71.1236" height="22.7131" rx="2.10846" transform="rotate(179.761 121.35 119.168)" fill="#DCDCDC"/><path opacity="0.173382" d="M52.9506 118.614C51.5966 119.036 50.2202 118.028 50.2143 116.61L50.1402 98.8594C50.1354 97.6949 51.0754 96.747 52.2399 96.7421L124.033 96.4426L52.9506 118.614Z" fill="#D9E2EA"/><path d="M121.235 100.885L50.2747 101.181L41.245 97.8952L129.316 97.8047L121.235 100.885Z" fill="#BCBCBC"/><rect x="130.151" y="98.0742" width="88.9045" height="21.6051" rx="2.10846" transform="rotate(179.761 130.151 98.0742)" fill="#DCDCDC"/><path opacity="0.173382" d="M43.8371 97.8241C42.5147 98.1416 41.2421 97.1426 41.2365 95.7827L41.1662 78.9493C41.1614 77.7848 42.1014 76.8369 43.2659 76.8321L132.839 76.4583L43.8371 97.8241Z" fill="#D9E2EA"/><path d="M130.132 79.2414L41.2183 79.6124L30.0443 76.8891L141.174 76.4255L130.132 79.2414Z" fill="#BCBCBC"/><path d="M142.276 74.3134C142.281 75.4779 141.341 76.4258 140.177 76.4307L31.0413 76.886C29.8768 76.8909 28.9289 75.9509 28.9241 74.7864L28.8353 53.5205C28.8305 52.3561 29.7705 51.4082 30.935 51.4033L140.07 50.9479C141.235 50.9431 142.183 51.8831 142.188 53.0476L142.276 74.3134Z" fill="#DCDCDC"/><path d="M124.741 133.004L129.464 132.984C130.231 132.981 130.851 132.358 130.848 131.593C130.844 130.829 130.22 130.211 129.453 130.214L125.57 130.231L124.741 133.004Z" fill="#BCBCBC"/><path d="M144.542 84.1719L149.265 84.1522C150.032 84.149 150.652 83.5263 150.648 82.7614C150.645 81.9966 150.021 81.3791 149.253 81.3823L144.808 81.4009L144.542 84.1719Z" fill="#BCBCBC"/><path d="M112.648 164.633L117.371 164.613C118.139 164.61 118.758 163.987 118.755 163.222C118.752 162.458 118.127 161.84 117.36 161.843L113.603 161.859L112.648 164.633Z" fill="#BCBCBC"/><path d="M109.984 169.14C110.647 169.405 111.4 169.084 111.667 168.423C111.667 168.421 111.668 168.419 111.669 168.417L152.796 64.7465L151.334 47.3021C151.148 47.0477 150.87 46.9213 150.499 46.9228C150.129 46.9244 149.851 47.0531 149.667 47.3091L148.106 62.7162C148.079 62.9738 148.02 63.2271 147.93 63.4699L109.23 167.441C108.978 168.117 109.312 168.871 109.984 169.14Z" fill="#BCBCBC"/><path d="M109.889 169.075L150.599 64.5996C150.762 64.1803 150.83 63.7301 150.799 63.2814L149.666 47.3099L147.507 62.5534L109.196 167.538C108.971 168.153 109.279 168.835 109.889 169.075Z" fill="#DCDDDF"/><path d="M46.8115 133.332L42.0885 133.352C41.3213 133.355 40.6968 132.737 40.6936 131.973C40.6904 131.208 41.3098 130.585 42.077 130.582L45.9595 130.566L46.8115 133.332Z" fill="#BCBCBC"/><path d="M26.6035 84.668L21.8805 84.6877C21.1133 84.6909 20.4888 84.0734 20.4856 83.3085C20.4824 82.5437 21.1018 81.921 21.8689 81.9178L26.3141 81.8993L26.6035 84.668Z" fill="#BCBCBC"/><path d="M59.167 164.859L54.444 164.879C53.6768 164.882 53.0523 164.265 53.0491 163.5C53.0459 162.735 53.6652 162.112 54.4324 162.109L58.1896 162.094L59.167 164.859Z" fill="#BCBCBC"/><path d="M62.0084 169.342C61.3476 169.613 60.5916 169.298 60.3198 168.639C60.319 168.637 60.3181 168.635 60.3173 168.633L18.3265 65.3096L19.6428 47.8537C19.827 47.5978 20.1043 47.469 20.4747 47.4675C20.8452 47.4659 21.1235 47.5923 21.3098 47.8467L23 63.2403C23.0283 63.4977 23.0894 63.7505 23.1818 63.9925L62.7486 167.637C63.006 168.311 62.6778 169.067 62.0084 169.342Z" fill="#BCBCBC"/><path d="M62.1023 169.277L20.5221 65.1447C20.3552 64.7267 20.2832 64.2771 20.3113 63.8282L21.3104 47.8478L23.5966 63.0727L62.7828 167.734C63.0123 168.347 62.7106 169.031 62.1023 169.277Z" fill="#DCDDDF"/></g><path d="M82.3686 195.246C82.0555 194.918 81.5479 194.918 81.2348 195.246C80.9217 195.575 80.9217 196.107 81.2348 196.435L86.0435 201.477C86.3566 201.805 86.8642 201.805 87.1773 201.477L91.9709 196.451C92.2839 196.123 92.2839 195.59 91.9709 195.262C91.6578 194.934 91.1502 194.934 90.8371 195.262L86.6104 199.694L82.3686 195.246Z" fill="#C60D30"/><defs><filter id="filter0_d_416_683237" x="0.941634" y="0.634917" width="171.905" height="230.662" filterUnits="userSpaceOnUse" color-interpolation-filters="sRGB"><feFlood flood-opacity="0" result="BackgroundImageFix"/><feColorMatrix in="SourceAlpha" type="matrix" values="0 0 0 0 0 0 0 0 0 0 0 0 0 0 0 0 0 0 127 0" result="hardAlpha"/><feOffset dy="2.24113"/><feGaussianBlur stdDeviation="3.3617"/><feColorMatrix type="matrix" values="0 0 0 0 0 0 0 0 0 0 0 0 0 0 0 0 0 0 0.1 0"/><feBlend mode="normal" in2="BackgroundImageFix" result="effect1_dropShadow_416_683237"/><feBlend mode="normal" in="SourceGraphic" in2="effect1_dropShadow_416_683237" result="shape"/></filter></defs></g><g id="BR"><path fill="#fff" d="M0 .393h496v278H0z" /><path d="M485.762-.328h10.219v223.583h-10.219l-9.618-14.425s4.207-74.628 4.207-100.672c0-26.045-4.207-78.134-4.207-78.134l9.618-30.352Z" fill="#D7D7D7" /><path opacity=".737" d="M421.542 48.964c-1.064 15.178 2.653 23.877 3.215 39.97 1.302 37.295 4.705 59.408-6.812 97.151-.16.525 16.487 30.506 29.456 14.932 2.667-3.203 3.946-7.329 5.013-11.358 6.8-25.69 7.923-40.872 5.836-100.675a349.214 349.214 0 0 0-7.205-59.524c-3.538-23.174-28.417 4.012-29.503 19.504Z" fill="#F6F6F6" /><path d="M457.814 12.197c7.782 25.072 12.564 50.353 14.347 75.844 2.847 40.714-1.959 81.963-14.416 123.747-1.117 3.745-.899 7.827 1.253 11.089 2.471 3.746 5.714 7.253 6.758 1.92 12.348-47.032 17.97-74.774 16.56-137.09-.607-26.857-7.141-55.79-15.547-83.347-2.767-9.07-8.226 7.57-8.955 7.837Z" fill="#E8F2FB" /><path d="M457.815 12.87c7.782 25.071 12.61 49.697 14.392 75.188 2.847 40.714-1.958 81.963-14.415 123.747-1.117 3.745-.899 7.827 1.253 11.089 2.471 3.746 5.714 7.253 6.758 1.92 12.347-47.032 17.97-74.774 16.56-137.09-.608-26.857-7.187-55.135-15.593-82.691-2.767-9.07-8.226 7.57-8.955 7.837Z" fill="#F6F6F6" /><path d="M425.61 36.648c3.126 14.461 5.39 29.713 6.794 45.753 3.252 37.177.116 74.912-9.41 113.206-.144.58 25.66 32.317 30.691 13.542 6.692-30.089 17.78-64.314 12.168-128.45a349.178 349.178 0 0 0-10.31-59.065c-4.747-22.957-30.733 11.31-29.933 15.014Z" fill="#D7D7D7" /><path fill-rule="evenodd" clip-rule="evenodd" d="M425.816 36.615c2.505 11.59 4.457 23.686 5.856 36.29 2.993-.87 6.46-1.741 10.477-2.595a287.19 287.19 0 0 1 22.379-3.84 348.344 348.344 0 0 0-8.779-44.87c-4.747-22.956-30.733 11.312-29.933 15.015Zm15.922 35.348c-3.785.805-7.063 1.63-9.901 2.46.281 2.626.539 5.275.773 7.945 1.716 19.624 1.653 39.403-.19 59.338 4.077.136 9.127.62 15.382 1.61a287.961 287.961 0 0 1 18.135 3.472c1.906-18.131 2.446-39.561.122-66.121a350.666 350.666 0 0 0-1.329-12.594 285.859 285.859 0 0 0-22.992 3.89Zm24.026 76.429c-2.147 19.404-5.841 35.01-9.184 49.137-.938 3.961-1.848 7.807-2.689 11.586-5.031 18.775-30.835-12.961-30.691-13.541 4.372-17.575 7.398-35.033 9.078-52.372 3.883.124 8.663.579 14.548 1.511a281.764 281.764 0 0 1 18.938 3.679Z" fill="#F6F6F6" /><path opacity=".121" d="M444.368 37.955c3.126 14.461 5.39 29.713 6.794 45.753 3.252 37.177.116 74.912-9.41 113.206-.144.58 6.903 31.01 11.934 12.235 6.692-30.089 17.779-64.314 12.168-128.45a349.277 349.277 0 0 0-10.31-59.065c-4.747-22.957-11.976 12.618-11.176 16.32Z" fill="#D7D7D7" /><g><path d="M9.993-.063H-.226V223.52h10.22l9.617-14.425s-4.208-74.627-4.208-100.672c0-26.044 4.208-78.134 4.208-78.134L9.993-.063Z" fill="#D7D7D7" /><path opacity=".737" d="M74.213 49.231c1.064 15.179-2.653 23.878-3.215 39.97-1.302 37.295-4.705 59.408 6.812 97.151.16.525-16.487 30.506-29.456 14.933-2.667-3.203-3.946-7.329-5.013-11.358-6.8-25.691-7.924-40.872-5.836-100.675a349.223 349.223 0 0 1 7.205-59.525c3.538-23.174 28.416 4.013 29.503 19.504Z" fill="#F6F6F6" /><path d="M37.94 12.465C30.16 37.536 25.378 62.818 23.595 88.309c-2.847 40.714 1.959 81.962 14.416 123.746 1.117 3.745.899 7.828-1.253 11.09-2.471 3.746-5.714 7.252-6.758 1.919-12.348-47.032-17.97-74.773-16.56-137.089.607-26.857 7.14-55.79 15.547-83.347 2.767-9.07 8.225 7.57 8.955 7.837Z" fill="#E8F2FB" /><path d="M37.94 13.137c-7.782 25.072-12.61 49.698-14.392 75.189-2.847 40.714 1.958 81.962 14.415 123.746 1.117 3.745.9 7.828-1.253 11.09-2.47 3.746-5.714 7.252-6.758 1.919-12.348-47.032-17.97-74.773-16.56-137.09.607-26.856 7.187-55.134 15.593-82.69 2.767-9.071 8.226 7.569 8.955 7.836Z" fill="#F6F6F6" /><path d="M70.145 36.916c-3.126 14.461-5.39 29.712-6.794 45.753-3.252 37.176-.116 74.911 9.41 113.206.144.58-25.66 32.316-30.691 13.541-6.693-30.089-17.78-64.313-12.169-128.449a349.208 349.208 0 0 1 10.31-59.066C44.96-1.056 70.946 33.212 70.146 36.916Z" fill="#D7D7D7" /><path fill-rule="evenodd" clip-rule="evenodd" d="M69.939 36.883c-2.505 11.59-4.457 23.686-5.856 36.29-2.993-.87-6.46-1.742-10.478-2.596a287.124 287.124 0 0 0-22.378-3.839 348.43 348.43 0 0 1 8.779-44.87C44.753-1.089 70.739 33.18 69.939 36.883ZM54.016 72.23c3.785.804 7.064 1.63 9.902 2.459a410.012 410.012 0 0 0-.773 7.946c-1.717 19.623-1.653 39.403.19 59.338-4.077.135-9.127.619-15.382 1.61a287.275 287.275 0 0 0-18.136 3.472c-1.905-18.132-2.445-39.562-.122-66.122.369-4.213.812-8.411 1.33-12.593a285.753 285.753 0 0 1 22.991 3.89ZM29.99 148.66c2.148 19.403 5.842 35.01 9.185 49.137.938 3.961 1.848 7.806 2.689 11.586 5.03 18.775 30.835-12.962 30.69-13.542-4.371-17.575-7.397-35.032-9.077-52.372-3.883.125-8.663.579-14.548 1.511a282.536 282.536 0 0 0-18.939 3.68Z" fill="#F6F6F6" /><path opacity=".121" d="M51.387 38.222c-3.126 14.462-5.39 29.713-6.794 45.754-3.252 37.176-.116 74.911 9.41 113.206.144.579-6.903 31.009-11.934 12.234-6.692-30.089-17.78-64.313-12.168-128.448A349.22 349.22 0 0 1 40.211 21.9C44.958-1.056 52.187 34.52 51.387 38.222Z" fill="#D7D7D7" /></g><g><path opacity=".121" fill-rule="evenodd" clip-rule="evenodd" d="M319.573-.766H174.439l-7.604 84.183a69.433 69.433 0 0 0-1.602 14.854c0 41.218 36.207 74.633 80.871 74.633 44.663 0 80.87-33.415 80.87-74.633 0-3.895-.324-7.721-.947-11.455L319.573-.766Z" fill="#D7D7D7" /><path fill-rule="evenodd" clip-rule="evenodd" d="M321.129-1.396H171.078v90.038a70.279 70.279 0 0 0-.181 5.047c0 39.925 33.671 72.29 75.207 72.29 41.535 0 75.206-32.365 75.206-72.29 0-1.696-.061-3.38-.181-5.046v-90.04Z" fill="#F2F2F2" /><path fill-rule="evenodd" clip-rule="evenodd" d="M285.438 10.559h-77.857v66.11a39.354 39.354 0 0 0-.182 3.78c0 21.521 17.47 38.968 39.02 38.968 20.678 0 37.599-16.064 38.934-36.378h.085v-72.48Z" fill="#D7D7D7" /><path fill-rule="evenodd" clip-rule="evenodd" d="M279.145 19.367h-65.271v55.579a33.086 33.086 0 0 0-.181 3.467c0 18.127 14.652 32.823 32.726 32.823 17.399 0 31.627-13.62 32.665-30.808h.061v-61.06Z" fill="#fff" /><path fill-rule="evenodd" clip-rule="evenodd" d="M176.114 3.637h4.708V82.89a68.884 68.884 0 0 0-.181 4.998c0 36.963 29.55 66.928 66.002 66.928s66.002-29.965 66.002-66.928c0-1.68-.061-3.345-.181-4.994V3.637h4.889V84.07c.12 1.678.181 3.373.181 5.081 0 38.957-31.698 70.537-70.801 70.537-39.102 0-70.8-31.58-70.8-70.537 0-1.71.061-3.406.181-5.085V3.636Z" fill="#E0E0E0" /><path d="M164.711 26.7h164.612l-8.764 6.36-34.603.143-7.227 13.73h-65.05l-7.228-13.73-36.139.361-5.601-6.865Z" fill="#D7D7D7" /><ellipse cx="302.67" cy="11.975" rx="8.041" ry="8.04" fill="#fff" /><ellipse cx="189.917" cy="20.107" rx="6.053" ry="6.052" fill="#F0F2F5" /><ellipse cx="302.669" cy="12.156" rx="6.053" ry="6.052" fill="#F0F2F5" /><path d="M208.98 2.852h74.085V34.69s-17.867 4.836-35.532 4.836c-17.666 0-38.553-4.836-38.553-4.836V2.852Z" fill="#F2F2F2" /><path d="M208.98.865h74.085v31.839s-17.867 4.836-35.532 4.836c-17.666 0-38.553-4.836-38.553-4.836V.865Z" fill="#D7D7D7" /><path d="M283.064 3.395h51.317l-5.782 23.666h-45.535V3.395ZM162.181 3.576h47.703v23.667l-44.993-.18-2.71-23.487Z" fill="#F2F2F2" /><path d="M162.181.865h47.703v23.667h-44.993L162.181.865ZM283.064.865h51.498l-5.421 23.667h-46.077V.865Z" fill="#D7D7D7" /><path fill-rule="evenodd" clip-rule="evenodd" d="M228.766 35.733a3.343 3.343 0 1 0 0-6.685 3.343 3.343 0 0 0 0 6.685Zm-.001-1.822a2.33 2.33 0 1 0 0-4.66 2.33 2.33 0 0 0 0 4.66ZM242.319 36.997a3.342 3.342 0 1 0 .002-6.684 3.342 3.342 0 0 0-.002 6.684Zm0-1.822a2.33 2.33 0 1 0 0-4.66 2.33 2.33 0 0 0 0 4.66ZM249.547 36.997a3.343 3.343 0 1 0 0-6.686 3.343 3.343 0 0 0 0 6.686Zm0-1.822a2.33 2.33 0 1 0 0-4.66 2.33 2.33 0 0 0 0 4.66ZM274.662 34.468a2.981 2.981 0 1 0 .001-5.963 2.981 2.981 0 0 0-.001 5.963Zm.1-1.59a2.087 2.087 0 1 0 0-4.175 2.087 2.087 0 0 0 0 4.174ZM300.683 24.534a2.981 2.981 0 1 0 0-5.962 2.981 2.981 0 0 0 0 5.962Zm.099-1.59a2.087 2.087 0 1 0 0-4.173 2.087 2.087 0 0 0 0 4.173ZM312.608 24.534a2.981 2.981 0 1 0 .001-5.963 2.981 2.981 0 0 0-.001 5.963Zm.1-1.59a2.087 2.087 0 1 0 0-4.173 2.087 2.087 0 0 0 0 4.173ZM268.157 35.552a2.981 2.981 0 1 0 .001-5.963 2.981 2.981 0 0 0-.001 5.963Zm.1-1.59a2.087 2.087 0 1 0 0-4.174 2.087 2.087 0 0 0 0 4.173Z" fill="#fff" /><path fill-rule="evenodd" clip-rule="evenodd" d="M294.539 24.534a2.981 2.981 0 1 0 .001-5.963 2.981 2.981 0 0 0-.001 5.963Zm.1-1.59a2.087 2.087 0 1 0 0-4.175 2.087 2.087 0 0 0 0 4.175ZM306.645 24.534a2.981 2.981 0 1 0 0-5.962 2.981 2.981 0 0 0 0 5.962Zm.099-1.59a2.087 2.087 0 1 0 0-4.173 2.087 2.087 0 0 0 0 4.173ZM319.655 24.534a2.981 2.981 0 1 0 .001-5.963 2.981 2.981 0 0 0-.001 5.963Zm.1-1.59a2.087 2.087 0 1 0 0-4.173 2.087 2.087 0 0 0 0 4.173ZM221.357 35.19a3.342 3.342 0 1 0 .002-6.684 3.342 3.342 0 0 0-.002 6.684Zm0-1.822a2.33 2.33 0 1 0 0-4.66 2.33 2.33 0 0 0 0 4.66ZM179.799 24.534a2.981 2.981 0 1 0 0-5.962 2.981 2.981 0 0 0 0 5.962Zm.1-1.59a2.087 2.087 0 1 0 0-4.175 2.087 2.087 0 0 0 0 4.175ZM191.904 24.534a2.981 2.981 0 1 0 .001-5.963 2.981 2.981 0 0 0-.001 5.963Zm.1-1.59a2.087 2.087 0 1 0 0-4.173 2.087 2.087 0 0 0 0 4.173Z" fill="#fff" /><path fill-rule="evenodd" clip-rule="evenodd" d="M173.654 24.534a2.981 2.981 0 1 0 .001-5.963 2.981 2.981 0 0 0-.001 5.963Zm.1-1.59a2.087 2.087 0 1 0 0-4.173 2.087 2.087 0 0 0 0 4.173ZM185.761 24.534a2.981 2.981 0 1 0 0-5.962 2.981 2.981 0 0 0 0 5.962Zm.099-1.59a2.087 2.087 0 1 0 0-4.173 2.087 2.087 0 0 0 0 4.173ZM198.952 24.534a2.981 2.981 0 1 0 .001-5.963 2.981 2.981 0 0 0-.001 5.963Zm.1-1.59a2.087 2.087 0 1 0 0-4.175 2.087 2.087 0 0 0 0 4.175Z" fill="#fff" /><path d="M208.98-2.025h74.085v31.838s-17.867 4.836-35.532 4.836c-17.666 0-38.553-4.836-38.553-4.836V-2.025Z" fill="#F6F6F6" /><path d="M161.819-2.025h48.065v23.667h-45.535l-2.53-23.667ZM283.064-2.025h52.04l-5.421 23.667h-46.619V-2.025Z" fill="#FAFAFA" /><path opacity=".121" d="M282.522-1.844h52.673l-29.762 23.486h-22.911V-1.844Z" fill="#D9E2EA" /><path opacity=".121" d="M282.522-1.844h52.673l-29.762 23.486h-22.911V-1.844Z" fill="#D7D7D7" /><path opacity=".121" d="M321.281 32.844H281.98l16.391 23.486h22.91V32.844ZM170.673 32.844h39.301L193.583 56.33h-22.91V32.844Z" fill="#D9E2EA" /><path opacity=".121" d="M209.086-1.844h-47.482l21.128 23.486h26.354V-1.844Z" fill="#D7D7D7" /><g><path d="M186.576 233.775h127.357l7.054 1.415a6.008 6.008 0 0 1 4.827 5.891v1.248H172.319v-1.083a6.008 6.008 0 0 1 5.018-5.926l9.239-1.545Z" fill="#D7D7D7" /><path opacity=".121" d="M188.308 231.443a5.443 5.443 0 0 1 5.443-5.443h115.96a5.443 5.443 0 0 1 0 10.886h-115.96a5.443 5.443 0 0 1-5.443-5.443Z" fill="#D7D7D7" /><path d="M172 241.008a6.008 6.008 0 0 1 6.008-6.008h141.984a6.008 6.008 0 0 1 6.008 6.008V266H172v-24.992Z" fill="#F6F6F6" /><path opacity=".121" d="m172 235 154 32H172v-32Z" fill="#D9E2EA" /><path d="M172.397 266H325.98l1.443.91c5.094 3.214 2.817 11.09-3.206 11.09h-150.22c-6.187 0-8.336-8.222-2.939-11.249l1.339-.751Z" fill="#D7D7D7" /></g></g></g><g id="CS" transform="translate(-36 0)" fill="none"><path fill="#fff" d="M0 .643h84v116H0z" /><path d="M13.014 27.178C4.208 44.241 4.203 67.412 4.203 67.412l-.01 47.159 75.47-.396s0-21.046-.172-53.665S30.349 1.388 30.349 1.388s-8.53 8.727-17.335 25.79Z" fill="#F5F5F5" /><g opacity=".857"><path d="M13.966 103.757c.255.033.514.05.776.05 3.779 0 6.842-3.532 6.842-7.89 0-4.113-2.73-7.491-6.216-7.856l-10.487-.006v15.728l9.085-.026Z" fill="#BCBCBC" /><path d="M12.962 103.757c.255.033.514.05.777.05 3.778 0 6.841-3.532 6.841-7.89 0-4.113-2.73-7.491-6.216-7.856l-9.483-.006v15.728l8.081-.026Z" fill="#E4E4E4" /><path d="M11.692 103.807c3.778 0 6.84-3.532 6.84-7.89 0-4.113-2.73-7.491-6.214-7.856l-7.437-.006v15.728l6.035-.026c.255.033.514.05.776.05Z" fill="#DCDCDC" /><path d="m4.562 114.803 74.549-.676s.475-6.101-.154-6.248c-16.623.15-66.167-3.441-66.167-3.441l-8.228 10.365Z" fill="#E4E4E4" /><path d="M9.88 104.802s34.928 3.461 68.741 3.085c.129-.092-2.443-.582-2.443-.582l-10.352.115c-29.524-.226-49.685-4.15-49.685-4.15l-6.262 1.532Z" fill="#C4C4C4" /><path d="m15.798 103.152-10.917.242v11.508l13.074-11.008s-.502-.779-.903-.779-1.254.037-1.254.037Z" fill="#C4C4C4" /><path opacity=".173" d="M4.88 62.249V89.83s6.657-2.539 9.959-8.444c3.302-5.905 2.81-19.164 2.81-19.164l-12.768.026Z" fill="#D9E2EA" /><path d="M21.299 61.772v1.095h4.256v-1.095h-4.256ZM19.802 72.871l-.114 1.09 4.233.449.113-1.09-4.232-.449Z" fill="#BCBCBC" /><path d="M5.658 54.661c-.391 1.796-.782 9.035-.782 9.035v28.282s9.677-3.426 14.142-11.415c4.465-7.99 3.8-25.928 3.8-25.928s-17.03.111-17.16.026Z" fill="#DCDCDC" /><path d="M22.3 75.103c-.192.533.243 1.445.754 1.688.12.058.105-.025.168-.143 2.606-4.88 2.67-14.592 2.629-17.438a.816.816 0 0 0-.824-.802.851.851 0 0 0-.85.871c.057 2.608.049 10.5-1.877 15.824ZM16.13 62.354c-2.322-4.835-7.92.564-7.92 5.928v2.308c0 5.541 5.608 11.35 7.92 6.314 2.223-4.837 2.14-10.097 0-14.55Z" fill="#BCBCBC" /><path opacity=".121" d="M11.576 80.349c2.074-.14 3.614-1.299 4.622-3.477 2.236-4.833 2.154-10.088 0-14.538-.648-1.339-1.545-2.297-2.691-2.875 3.237 13.15-2.462 20.925-1.93 20.89Z" fill="#fff" /><ellipse rx="1.115" ry="1.104" transform="matrix(0 1 1 0 6.743 65.281)" fill="#fff" /><ellipse rx="1.115" ry="1.104" transform="matrix(0 1 1 0 6.743 73.108)" fill="#fff" /><path d="M6.916 68.022a1.278 1.278 0 0 0 0 2.555h2.062a1.278 1.278 0 1 0 0-2.555H6.916ZM9.17 80.599a1.052 1.052 0 0 0-1.028 1.836l2.201 1.233a1.052 1.052 0 1 0 1.028-1.836L9.17 80.599ZM7.628 82.726a1.072 1.072 0 1 0-1.048 1.871l2.168 1.214a1.072 1.072 0 0 0 1.048-1.871l-2.168-1.214Z" fill="#fff" /><path opacity=".121" d="M9.696 81.352a1.962 1.962 0 1 0-1.918 3.425l.227.127a1.962 1.962 0 1 0 1.918-3.425l-.227-.127Z" fill="#BCBCBC" /><path d="M8.246 81.616a1.052 1.052 0 0 0-1.028 1.836l2.203 1.233a1.052 1.052 0 0 0 1.028-1.836l-2.203-1.233Z" fill="#fff" /><g><path d="m9.423 51.08 14.443.902S36.65 45.116 39.27 37.743c2.62-7.373 2.516-20.792-16.762-25.754-.026.129-13.086 39.09-13.086 39.09Z" fill="#BCBCBC" /><path d="M7.854 42.147c-2.095 8.862-2.24 12.767-2.24 12.767l16.942-.033s1.178-2.897 3.213-3.953c2.034-1.057 11.82-7.814 13.39-15.89 1.57-8.077-2.453-19.523-16.996-23.178-.205.185-3.235 4.785-6.322 10.669-3.662 6.98-6.805 14.616-7.987 19.618Z" fill="#DCDCDC" /><path opacity=".173" d="M5.405 55.822s6.205-.64 12.425.568c6.22 1.21 9.062-1.226 9.062-1.226s8.455-6.393 10.027-14.475c.01-.05-26.837-5.391-26.837-5.391s-2.623 8.45-3.413 12.649c-.79 4.2-1.264 7.875-1.264 7.875Z" fill="#BCBCBC" /><ellipse rx="11.844" ry="11.724" transform="scale(-1 1) rotate(79 -34.214 3.235)" fill="#BCBCBC" /><ellipse opacity=".601" rx="10.039" ry="9.937" transform="scale(-1 1) rotate(79 -34.259 3.266)" fill="#fff" /><ellipse opacity=".196" rx="10.039" ry="4.969" transform="scale(-1 1) rotate(79 -31.245 5.75)" fill="#CDCDCD" /><ellipse rx="3.002" ry="2.971" transform="scale(-1 1) rotate(79 -38.11 -1.084)" fill="#fff" /><ellipse rx=".633" ry=".626" transform="scale(-1 1) rotate(79 -29.235 8.112)" fill="#fff" /><ellipse rx="2.008" ry="1.987" transform="scale(-1 1) rotate(79 -38.133 -1.212)" fill="#F9FAFC" /><path d="M33.32 36.347a.325.325 0 0 0-.124.637l5.238 1.018a.325.325 0 1 0 .124-.637l-5.239-1.018Z" fill="#fff" /></g></g><path fill-rule="evenodd" clip-rule="evenodd" d="m48.018 64.84.95 1.041c.68-.6 1.486-.95 2.425-.95 1.041.001 1.882.427 2.605 1.15l-.551.456c-.52-.529-1.24-.903-1.98-.903-.696 0-1.467.33-1.988.808l1.118 1.226c.27.295.255.618.04.825-.215.207-.551.222-.824-.073l-2.578-2.83c-.273-.294-.262-.649-.047-.856.216-.206.558-.19.83.105Zm-1.911 1.38.146-.047a.174.174 0 0 0 .109-.219.169.169 0 0 0-.214-.111l-.147.049a.173.173 0 0 0-.108.218c.029.09.124.14.214.11Zm-.792.264.146-.049a.174.174 0 0 0 .11-.218.169.169 0 0 0-.215-.111l-.146.048a.174.174 0 0 0-.109.218.169.169 0 0 0 .214.112Zm-.54-.005a.17.17 0 0 0-.215-.111l-.145.048a.174.174 0 0 0-.11.219c.03.091.125.14.214.11l.146-.047a.174.174 0 0 0 .11-.219Zm-1.14.196.136-.045a.17.17 0 0 1 .214.112.175.175 0 0 1-.11.218l-.135.046a.17.17 0 0 1-.214-.112.175.175 0 0 1 .11-.219Zm1.767.96a.168.168 0 0 1 .236.048.175.175 0 0 1-.047.24l-.127.087a.168.168 0 0 1-.236-.047.175.175 0 0 1 .047-.24l.127-.088Zm-.694.468-.106.072a.175.175 0 0 0-.047.24c.052.08.158.101.236.048l.105-.071c.078-.053.099-.161.047-.241a.167.167 0 0 0-.235-.048Zm1.388-.944a.168.168 0 0 1 .235.048.175.175 0 0 1-.047.24l-.128.088a.167.167 0 0 1-.235-.048.176.176 0 0 1 .047-.24l.128-.088Zm.75-.1.127-.087a.175.175 0 0 0 .047-.24.168.168 0 0 0-.235-.048l-.128.087a.176.176 0 0 0-.047.24c.052.08.158.101.236.048Zm1.816 1.666-.102.115a.168.168 0 0 1-.241.013.176.176 0 0 1-.012-.245l.103-.116a.168.168 0 0 1 .24-.013c.07.064.075.174.012.246Zm-1.368 1.03-.103.117a.175.175 0 0 0 .013.244c.07.064.176.059.24-.012l.102-.116a.176.176 0 0 0-.012-.245.167.167 0 0 0-.24.012Zm.558-.631a.167.167 0 0 1 .24-.013c.07.064.075.174.013.245l-.103.116a.168.168 0 0 1-.24.013.175.175 0 0 1-.013-.245l.103-.116Zm-1.116 1.263-.103.116a.176.176 0 0 0 .013.245c.07.064.177.058.24-.013l.103-.117a.175.175 0 0 0-.013-.243.167.167 0 0 0-.24.012Zm1.995-.24a.169.169 0 0 1 .222-.09c.087.037.127.14.09.227l-.06.144a.168.168 0 0 1-.223.091.174.174 0 0 1-.09-.227l.06-.144Zm-.426 1.476a.17.17 0 0 0-.223.091l-.056.134a.174.174 0 0 0 .09.227.169.169 0 0 0 .223-.091l.055-.133a.174.174 0 0 0-.09-.228Zm.754-2.254a.169.169 0 0 1 .223-.092c.086.038.126.14.09.228l-.06.144a.169.169 0 0 1-.224.091.174.174 0 0 1-.09-.227l.06-.144Zm-.43 1.467a.168.168 0 0 0-.222.091l-.06.144a.175.175 0 0 0 .089.228.168.168 0 0 0 .222-.092l.06-.144a.174.174 0 0 0-.09-.227h.001Zm-.741-3.193a.175.175 0 0 1-.02.244l-.117.102a.167.167 0 0 1-.239-.02.175.175 0 0 1 .02-.244l.117-.102a.167.167 0 0 1 .239.02Zm-.632.55a.168.168 0 0 0-.24-.02l-.116.1a.176.176 0 0 0-.02.245c.061.073.169.082.24.02l.117-.102a.176.176 0 0 0 .02-.243Zm-.875.537a.168.168 0 0 1 .24.02.176.176 0 0 1-.02.244l-.117.102a.168.168 0 0 1-.24-.02.176.176 0 0 1 .02-.244l.117-.102Zm-.636.55-.117.102a.176.176 0 0 0-.02.244.168.168 0 0 0 .24.02l.117-.102a.176.176 0 0 0 .02-.244.167.167 0 0 0-.24-.02Z" fill="#666" /><mask id="b" style="mask-type:alpha" maskUnits="userSpaceOnUse" x="43" y="64" width="11" height="9"><path fill-rule="evenodd" clip-rule="evenodd" d="m48.018 64.84.95 1.041c.68-.6 1.486-.95 2.425-.95 1.041.001 1.882.427 2.605 1.15l-.551.456c-.52-.529-1.24-.903-1.98-.903-.696 0-1.467.33-1.988.808l1.118 1.226c.27.295.255.618.04.825-.215.207-.551.222-.824-.073l-2.578-2.83c-.273-.294-.262-.649-.047-.856.216-.206.558-.19.83.105Zm-1.911 1.38.146-.047a.174.174 0 0 0 .109-.219.169.169 0 0 0-.214-.111l-.147.049a.173.173 0 0 0-.108.218c.029.09.124.14.214.11Zm-.792.264.146-.049a.174.174 0 0 0 .11-.218.169.169 0 0 0-.215-.111l-.146.048a.174.174 0 0 0-.109.218.169.169 0 0 0 .214.112Zm-.54-.005a.17.17 0 0 0-.215-.111l-.145.048a.174.174 0 0 0-.11.219c.03.091.125.14.214.11l.146-.047a.174.174 0 0 0 .11-.219Zm-1.14.196.136-.045a.17.17 0 0 1 .214.112.175.175 0 0 1-.11.218l-.135.046a.17.17 0 0 1-.214-.112.175.175 0 0 1 .11-.219Zm1.767.96a.168.168 0 0 1 .236.048.175.175 0 0 1-.047.24l-.127.087a.168.168 0 0 1-.236-.047.175.175 0 0 1 .047-.24l.127-.088Zm-.694.468-.106.072a.175.175 0 0 0-.047.24c.052.08.158.101.236.048l.105-.071c.078-.053.099-.161.047-.241a.167.167 0 0 0-.235-.048Zm1.388-.944a.168.168 0 0 1 .235.048.175.175 0 0 1-.047.24l-.128.088a.167.167 0 0 1-.235-.048.176.176 0 0 1 .047-.24l.128-.088Zm.75-.1.127-.087a.175.175 0 0 0 .047-.24.168.168 0 0 0-.235-.048l-.128.087a.176.176 0 0 0-.047.24c.052.08.158.101.236.048Zm1.816 1.666-.102.115a.168.168 0 0 1-.241.013.176.176 0 0 1-.012-.245l.103-.116a.168.168 0 0 1 .24-.013c.07.064.075.174.012.246Zm-1.368 1.03-.103.117a.175.175 0 0 0 .013.244c.07.064.176.059.24-.012l.102-.116a.176.176 0 0 0-.012-.245.167.167 0 0 0-.24.012Zm.558-.631a.167.167 0 0 1 .24-.013c.07.064.075.174.013.245l-.103.116a.168.168 0 0 1-.24.013.175.175 0 0 1-.013-.245l.103-.116Zm-1.116 1.263-.103.116a.176.176 0 0 0 .013.245c.07.064.177.058.24-.013l.103-.117a.175.175 0 0 0-.013-.243.167.167 0 0 0-.24.012Zm1.995-.24a.169.169 0 0 1 .222-.09c.087.037.127.14.09.227l-.06.144a.168.168 0 0 1-.223.091.174.174 0 0 1-.09-.227l.06-.144Zm-.426 1.476a.17.17 0 0 0-.223.091l-.056.134a.174.174 0 0 0 .09.227.169.169 0 0 0 .223-.091l.055-.133a.174.174 0 0 0-.09-.228Zm.754-2.254a.169.169 0 0 1 .223-.092c.086.038.126.14.09.228l-.06.144a.169.169 0 0 1-.224.091.174.174 0 0 1-.09-.227l.06-.144Zm-.43 1.467a.168.168 0 0 0-.222.091l-.06.144a.175.175 0 0 0 .089.228.168.168 0 0 0 .222-.092l.06-.144a.174.174 0 0 0-.09-.227h.001Zm-.741-3.193a.175.175 0 0 1-.02.244l-.117.102a.167.167 0 0 1-.239-.02.175.175 0 0 1 .02-.244l.117-.102a.167.167 0 0 1 .239.02Zm-.632.55a.168.168 0 0 0-.24-.02l-.116.1a.176.176 0 0 0-.02.245c.061.073.169.082.24.02l.117-.102a.176.176 0 0 0 .02-.243Zm-.875.537a.168.168 0 0 1 .24.02.176.176 0 0 1-.02.244l-.117.102a.168.168 0 0 1-.24-.02.176.176 0 0 1 .02-.244l.117-.102Zm-.636.55-.117.102a.176.176 0 0 0-.02.244.168.168 0 0 0 .24.02l.117-.102a.176.176 0 0 0 .02-.244.167.167 0 0 0-.24-.02Z" fill="#fff" /></mask></g><use id="CS-flip" xlink:href="#CS" transform="translate(60 0) scale(-1 1)"/></defs><g stroke="none" stroke-width="1" fill="none" fill-rule="evenodd"><g transform="translate(1894)"><path fill="#E4E4E4" d="M1167.26 0c136.237 8.932 230.902 247.853 283.995 716.763l-8.767 1902.31v1463.04l-.39-.005c.333 99.866-5.338 186.147-17.01 258.84l-.136 1.429c-.86 9.088-2.679 20.17-5.342 32.873l.007-.053c-8.292 52.154-23.416 147.19-42.693 260.427l-.003.017c16.495 32.437 32.47 52.648 47.923 60.63 170.745 120.94 427.887 309.497 771.424 565.672 22.009 18.737 39.943 42.42 53.803 71.045s38.878 139.184 75.054 331.677l-1073.946-396.57c-31.786 125.283-62.694 211.596-87.58 211.596-24.753 0-56.645-85.383-89.746-209.57L.347 5664.665c36.839-183.182 62.188-289.086 76.048-317.712 13.86-28.626 31.794-52.307 53.803-71.045l812.819-605.15 3.22-9.863c-27.574-156.07-46.916-282.37-50.328-318.437l-.186-1.98c-11.63-72.612-17.28-158.76-16.948-258.446l-.39.004-.001-2973.986-.883-391.288h-.027l.026-.198v-.064C938.929 246.647 1035.513 7.814 1167.26 0z"/><path fill="#FFF" d="M1110.355 157.142v60.606c-23.3 8.387-44.124 21.926-61.08 39.235l-27.33-23.31c18.769-35.27 50.27-62.802 88.41-76.53zm108.016-.89c37.146 12.678 68.215 38.375 87.704 71.617l-28.76 24.53c-16.691-15.723-36.731-27.96-58.945-35.541zm-52.739-8.707c11.466 0 22.655 1.182 33.45 3.43h-.916v60.417a164.006 164.006 0 00-32.534-3.241 163.85 163.85 0 00-35.073 3.776l-.001-60.605a163.85 163.85 0 0135.074-3.777z" opacity=".714"/><use xlink:href="#wing" x="-1888" y="1558.69"/><use xlink:href="#wing" x="-1439" y="1558.69" transform="scale(-1, 1) translate(-2772.38, 0)"/><rect width="508" height="4089" x="908" y="460" rx="242.24" filter="url(#fb-1)"/><rect width="508" height="4089" x="908" y="460" fill="#FFF" fill-rule="evenodd" rx="242.24"/></g><g id="rows" transform="translate(2802)" fill="#FFFFFF" fill-rule="nonzero"><text x="254" id="CABIN-F" y="15" transform="translate(0, 650)">FIRST CLASS</text><g transform="translate(16, 680)"><use xlink:href="#CS" transform="translate(32.44 0)"/></g><g transform="translate(172, 680)"><use xlink:href="#SW" transform="translate(25.84 0) scale(0.84)"/></g><g transform="translate(367, 680)"><use xlink:href="#CS-flip" transform="translate(32.44 0)"/></g><g id="1A" class="seat seat-unavailable" transform="translate(103, 800.67)" isdisable="true"><use xlink:href="#seat-fc-flip"/><text x="-32" y="60">1A</text></g><g id="1E" class="seat seat-unavailable" transform="translate(165.1, 800.67)" isdisable="true"><use xlink:href="#seat-fc"/><text x="34" y="60">1E</text></g><g id="1F" class="seat seat-unavailable" transform="translate(342.9, 800.67)" isdisable="true"><use xlink:href="#seat-fc-flip"/><text x="-31" y="60">1F</text></g><g id="1K" class="seat seat-unavailable" transform="translate(405, 800.67)" isdisable="true"><use xlink:href="#seat-fc"/><text x="34" y="60">1K</text></g><g id="2A" class="seat seat-unavailable" transform="translate(103, 921.34)" isdisable="true"><use xlink:href="#seat-fc-flip"/><text x="-32" y="60">2A</text></g><g id="2E" class="seat seat-unavailable" transform="translate(165.1, 921.34)" isdisable="true"><use xlink:href="#seat-fc"/><text x="34" y="60">2E</text></g><g id="2F" class="seat seat-unavailable" transform="translate(342.9, 921.34)" isdisable="true"><use xlink:href="#seat-fc-flip"/><text x="-31" y="60">2F</text><g transform="translate(-51, 8)"><use class="fac" xlink:href="#reduce_mob" transform="translate(-2, 4)"/></g></g><g id="2K" class="seat seat-unavailable" transform="translate(405, 921.34)" isdisable="true"><use xlink:href="#seat-fc"/><text x="34" y="60">2K</text></g><g id="3A" class="seat seat-unavailable" transform="translate(103, 1042.01)" isdisable="true"><use xlink:href="#seat-fc-flip"/><text x="-32" y="60">3A</text></g><g id="3E" class="seat seat-unavailable" transform="translate(165.1, 1042.01)" isdisable="true"><use xlink:href="#seat-fc"/><text x="34" y="60">3E</text><g transform="translate(16, 8)"><use class="fac" xlink:href="#baby" transform="translate(0, 2)"/></g></g><g id="3F" class="seat seat-unavailable" transform="translate(342.9, 1042.01)" isdisable="true"><use xlink:href="#seat-fc-flip"/><text x="-31" y="60">3F</text><g transform="translate(-51, 8)"><use class="fac" xlink:href="#baby" transform="translate(0, 2)"/></g></g><g id="3K" class="seat seat-unavailable" transform="translate(405, 1042.01)" isdisable="true"><use xlink:href="#seat-fc"/><text x="34" y="60">3K</text><g transform="translate(16, 8)"><use class="fac" xlink:href="#reduce_mob" transform="translate(-2, 4)"/></g></g><g id="4A" class="seat seat-unavailable" transform="translate(103, 1162.68)" isdisable="true"><use xlink:href="#seat-fc-flip"/><text x="-32" y="60">4A</text></g><g id="4K" class="seat seat-unavailable" transform="translate(405, 1162.68)" isdisable="true"><use xlink:href="#seat-fc"/><text x="34" y="60">4K</text><g transform="translate(16, 8)"><use class="fac" xlink:href="#reduce_mob" transform="translate(-2, 4)"/></g></g><g transform="translate(16, 1283.35)"><use xlink:href="#b-head-l" transform="scale(1, 1.04)"/><use xlink:href="#GL" x="54.38" y="48.34"/></g><g transform="translate(172, 1162.68)"><use xlink:href="#b-head-c" transform="scale(1, 1.61)"/></g><g transform="translate(172, 1283.35)"><use xlink:href="#b-head-c" transform="scale(1, 1.61)"/><use xlink:href="#GL" x="72.3" y="48.34"/></g><g transform="translate(172, 1404.02)"><use xlink:href="#b-head-c" transform="scale(1, 1.61)"/></g><g transform="translate(367, 1283.35)"><use xlink:href="#b-head-r" transform="scale(1, 1.04)"/><use xlink:href="#LA" x="52.51" y="48.06"/></g><text x="254" y="15" id="CABIN-J" transform="translate(0, 1524.69)">BUSINESS CLASS</text><g id="6D" class="seat seat-unavailable" transform="translate(253.8, 1568.69)" isdisable="true"><use xlink:href="#seat-bc1-flip" transform="translate(0, -10)"/><text x="-67" y="38">6D</text><g transform="translate(-85, -2)"><use class="fac" xlink:href="#baby"/></g></g><g id="6G" class="seat seat-unavailable" transform="translate(255, 1568.69)" isdisable="true"><use xlink:href="#seat-bc1" transform="translate(0, -10)"/><text x="69" y="38">6G</text></g><g id="7A" class="seat seat-unavailable" transform="translate(115.8, 1661.69)" isdisable="true"><use xlink:href="#seat-bc2-flip" transform="translate(0, 0)"/><text x="-67" y="48">7A</text><g transform="translate(-85, 8)"><use class="fac" xlink:href="#baby"/></g></g><g id="7E" class="seat seat-unavailable" transform="translate(153, 1661.69)" isdisable="true"><use xlink:href="#seat-bc2" transform="translate(0, -10)"/><text x="67" y="39">7E</text></g><g id="7F" class="seat seat-unavailable" transform="translate(355, 1661.69)" isdisable="true"><use xlink:href="#seat-bc2-flip" transform="translate(0, -10)"/><text x="-67" y="39">7F</text></g><g id="7K" class="seat seat-unavailable" transform="translate(391.2, 1661.69)" isdisable="true"><use xlink:href="#seat-bc2" transform="translate(0, 0)"/><text x="69" y="48">7K</text><g transform="translate(51, 8)"><use class="fac" xlink:href="#baby"/></g></g><g id="8B" class="seat seat-unavailable" transform="translate(15, 1754.69)" isdisable="true"><use xlink:href="#seat-bc1" transform="translate(0, 0)"/><text x="67" y="49">8B</text></g><g id="8D" class="seat seat-unavailable" transform="translate(253.8, 1754.69)" isdisable="true"><use xlink:href="#seat-bc1-flip" transform="translate(0, -10)"/><text x="-67" y="38">8D</text></g><g id="8G" class="seat seat-unavailable" transform="translate(255, 1754.69)" isdisable="true"><use xlink:href="#seat-bc1" transform="translate(0, -10)"/><text x="69" y="38">8G</text></g><g id="8J" class="seat seat-unavailable" transform="translate(492, 1754.69)" isdisable="true"><use xlink:href="#seat-bc1-flip" transform="translate(0, 0)"/><text x="-67" y="49">8J</text></g><g id="9A" class="seat seat-unavailable" transform="translate(115.8, 1847.69)" isdisable="true"><use xlink:href="#seat-bc2-flip" transform="translate(0, 0)"/><text x="-67" y="48">9A</text></g><g id="9E" class="seat seat-unavailable" transform="translate(153, 1847.69)" isdisable="true"><use xlink:href="#seat-bc2" transform="translate(0, -10)"/><text x="67" y="39">9E</text></g><g id="9F" class="seat seat-unavailable" transform="translate(355, 1847.69)" isdisable="true"><use xlink:href="#seat-bc2-flip" transform="translate(0, -10)"/><text x="-67" y="39">9F</text></g><g id="9K" class="seat seat-unavailable" transform="translate(391.2, 1847.69)" isdisable="true"><use xlink:href="#seat-bc2" transform="translate(0, 0)"/><text x="69" y="48">9K</text></g><g id="10B" class="seat seat-unavailable" transform="translate(15, 1940.69)" isdisable="true"><use xlink:href="#seat-bc1" transform="translate(0, 0)"/><text x="67" y="49">10B</text></g><g id="10D" class="seat seat-unavailable" transform="translate(253.8, 1940.69)" isdisable="true"><use xlink:href="#seat-bc1-flip" transform="translate(0, -10)"/><text x="-67" y="38">10D</text></g><g id="10G" class="seat seat-unavailable" transform="translate(255, 1940.69)" isdisable="true"><use xlink:href="#seat-bc1" transform="translate(0, -10)"/><text x="69" y="38">10G</text></g><g id="10J" class="seat seat-unavailable" transform="translate(492, 1940.69)" isdisable="true"><use xlink:href="#seat-bc1-flip" transform="translate(0, 0)"/><text x="-67" y="49">10J</text></g><g id="11A" class="seat seat-unavailable" transform="translate(115.8, 2033.69)" isdisable="true"><use xlink:href="#seat-bc2-flip" transform="translate(0, 0)"/><text x="-67" y="48">11A</text></g><g id="11E" class="seat seat-unavailable" transform="translate(153, 2033.69)" isdisable="true"><use xlink:href="#seat-bc2" transform="translate(0, -10)"/><text x="67" y="39">11E</text></g><g id="11F" class="seat seat-unavailable" transform="translate(355, 2033.69)" isdisable="true"><use xlink:href="#seat-bc2-flip" transform="translate(0, -10)"/><text x="-67" y="39">11F</text></g><g id="11K" class="seat seat-unavailable" transform="translate(391.2, 2033.69)" isdisable="true"><use xlink:href="#seat-bc2" transform="translate(0, 0)"/><text x="69" y="48">11K</text></g><g id="12B" class="seat seat-unavailable" transform="translate(15, 2126.69)" isdisable="true"><use xlink:href="#seat-bc1" transform="translate(0, 0)"/><text x="67" y="49">12B</text></g><g id="12D" class="seat seat-unavailable" transform="translate(253.8, 2126.69)" isdisable="true"><use xlink:href="#seat-bc1-flip" transform="translate(0, -10)"/><text x="-67" y="38">12D</text></g><g id="12G" class="seat seat-unavailable" transform="translate(255, 2126.69)" isdisable="true"><use xlink:href="#seat-bc1" transform="translate(0, -10)"/><text x="69" y="38">12G</text></g><g id="12J" class="seat seat-unavailable" transform="translate(492, 2126.69)" isdisable="true"><use xlink:href="#seat-bc1-flip" transform="translate(0, 0)"/><text x="-67" y="49">12J</text></g><g id="14A" class="seat seat-unavailable" transform="translate(115.8, 2219.69)" isdisable="true"><use xlink:href="#seat-bc2-flip" transform="translate(0, 0)"/><text x="-67" y="48">14A</text></g><g id="14E" class="seat seat-unavailable" transform="translate(153, 2219.69)" isdisable="true"><use xlink:href="#seat-bc2" transform="translate(0, -10)"/><text x="67" y="39">14E</text></g><g id="14F" class="seat seat-unavailable" transform="translate(355, 2219.69)" isdisable="true"><use xlink:href="#seat-bc2-flip" transform="translate(0, -10)"/><text x="-67" y="39">14F</text></g><g id="14K" class="seat seat-unavailable" transform="translate(391.2, 2219.69)" isdisable="true"><use xlink:href="#seat-bc2" transform="translate(0, 0)"/><text x="69" y="48">14K</text></g><g id="15B" class="seat seat-unavailable" transform="translate(15, 2312.69)" isdisable="true"><use xlink:href="#seat-bc1" transform="translate(0, 0)"/><text x="67" y="49">15B</text></g><g id="15D" class="seat seat-unavailable" transform="translate(253.8, 2312.69)" isdisable="true"><use xlink:href="#seat-bc1-flip" transform="translate(0, -10)"/><text x="-67" y="38">15D</text></g><g id="15G" class="seat seat-unavailable" transform="translate(255, 2312.69)" isdisable="true"><use xlink:href="#seat-bc1" transform="translate(0, -10)"/><text x="69" y="38">15G</text></g><g id="15J" class="seat seat-unavailable" transform="translate(492, 2312.69)" isdisable="true"><use xlink:href="#seat-bc1-flip" transform="translate(0, 0)"/><text x="-67" y="49">15J</text></g><g id="16A" class="seat seat-unavailable" transform="translate(115.8, 2405.69)" isdisable="true"><use xlink:href="#seat-bc2-flip" transform="translate(0, 0)"/><text x="-67" y="48">16A</text></g><g id="16E" class="seat seat-unavailable" transform="translate(153, 2405.69)" isdisable="true"><use xlink:href="#seat-bc2" transform="translate(0, -10)"/><text x="67" y="39">16E</text></g><g id="16F" class="seat seat-unavailable" transform="translate(355, 2405.69)" isdisable="true"><use xlink:href="#seat-bc2-flip" transform="translate(0, -10)"/><text x="-67" y="39">16F</text></g><g id="16K" class="seat seat-unavailable" transform="translate(391.2, 2405.69)" isdisable="true"><use xlink:href="#seat-bc2" transform="translate(0, 0)"/><text x="69" y="48">16K</text></g><g id="17B" class="seat seat-unavailable" transform="translate(15, 2498.69)" isdisable="true"><use xlink:href="#seat-bc1" transform="translate(0, 0)"/><text x="67" y="49">17B</text></g><g id="17D" class="seat seat-unavailable" transform="translate(253.8, 2498.69)" isdisable="true"><use xlink:href="#seat-bc1-flip" transform="translate(0, -10)"/><text x="-67" y="38">17D</text></g><g id="17G" class="seat seat-unavailable" transform="translate(255, 2498.69)" isdisable="true"><use xlink:href="#seat-bc1" transform="translate(0, -10)"/><text x="69" y="38">17G</text></g><g id="17J" class="seat seat-unavailable" transform="translate(492, 2498.69)" isdisable="true"><use xlink:href="#seat-bc1-flip" transform="translate(0, 0)"/><text x="-67" y="49">17J</text></g><g id="18A" class="seat seat-unavailable" transform="translate(115.8, 2591.69)" isdisable="true"><use xlink:href="#seat-bc2-flip" transform="translate(0, 0)"/><text x="-67" y="48">18A</text></g><g id="18E" class="seat seat-unavailable" transform="translate(153, 2591.69)" isdisable="true"><use xlink:href="#seat-bc2" transform="translate(0, -10)"/><text x="67" y="39">18E</text></g><g id="18F" class="seat seat-unavailable" transform="translate(355, 2591.69)" isdisable="true"><use xlink:href="#seat-bc2-flip" transform="translate(0, -10)"/><text x="-67" y="39">18F</text></g><g id="18K" class="seat seat-unavailable" transform="translate(391.2, 2591.69)" isdisable="true"><use xlink:href="#seat-bc2" transform="translate(0, 0)"/><text x="69" y="48">18K</text></g><g id="19B" class="seat seat-unavailable" transform="translate(15, 2684.69)" isdisable="true"><use xlink:href="#seat-bc1" transform="translate(0, 0)"/><text x="67" y="49">19B</text></g><g id="19D" class="seat seat-unavailable" transform="translate(253.8, 2684.69)" isdisable="true"><use xlink:href="#seat-bc1-flip" transform="translate(0, -10)"/><text x="-67" y="38">19D</text></g><g id="19G" class="seat seat-unavailable" transform="translate(255, 2684.69)" isdisable="true"><use xlink:href="#seat-bc1" transform="translate(0, -10)"/><text x="69" y="38">19G</text></g><g id="19J" class="seat seat-unavailable" transform="translate(492, 2684.69)" isdisable="true"><use xlink:href="#seat-bc1-flip" transform="translate(0, 0)"/><text x="-67" y="49">19J</text></g><g id="20A" class="seat seat-unavailable" transform="translate(115.8, 2777.69)" isdisable="true"><use xlink:href="#seat-bc2-flip" transform="translate(0, 0)"/><text x="-67" y="48">20A</text></g><g id="20E" class="seat seat-unavailable" transform="translate(153, 2777.69)" isdisable="true"><use xlink:href="#seat-bc2" transform="translate(0, -10)"/><text x="67" y="39">20E</text></g><g id="20F" class="seat seat-unavailable" transform="translate(355, 2777.69)" isdisable="true"><use xlink:href="#seat-bc2-flip" transform="translate(0, -10)"/><text x="-67" y="39">20F</text></g><g id="20K" class="seat seat-unavailable" transform="translate(391.2, 2777.69)" isdisable="true"><use xlink:href="#seat-bc2" transform="translate(0, 0)"/><text x="69" y="48">20K</text></g><g id="21B" class="seat seat-unavailable" transform="translate(15, 2870.69)" isdisable="true"><use xlink:href="#seat-bc1" transform="translate(0, 0)"/><text x="67" y="49">21B</text><g transform="translate(50, 9)"><use class="fac" xlink:href="#baby"/></g></g><g id="21D" class="seat seat-unavailable" transform="translate(253.8, 2870.69)" isdisable="true"><use xlink:href="#seat-bc1-flip" transform="translate(0, -10)"/><text x="-67" y="38">21D</text><g transform="translate(-85, -2)"><use class="fac" xlink:href="#baby"/></g></g><g id="21G" class="seat seat-unavailable" transform="translate(255, 2870.69)" isdisable="true"><use xlink:href="#seat-bc1" transform="translate(0, -10)"/><text x="69" y="38">21G</text></g><g id="21J" class="seat seat-unavailable" transform="translate(492, 2870.69)" isdisable="true"><use xlink:href="#seat-bc1-flip" transform="translate(0, 0)"/><text x="-67" y="49">21J</text><g transform="translate(-85, 8)"><use class="fac" xlink:href="#baby"/></g></g><g transform="translate(172, 2963.69)"><use xlink:href="#b-head-c" transform="scale(1, 1.27)"/></g><g id="22D" class="seat seat-unavailable" transform="translate(253.8, 3066.69)" isdisable="true"><use xlink:href="#seat-bc1-flip" transform="translate(0, -10)"/><text x="-67" y="38">22D</text><g transform="translate(-85, -2)"><use class="fac" xlink:href="#baby"/></g></g><g id="22G" class="seat seat-unavailable" transform="translate(255, 3066.69)" isdisable="true"><use xlink:href="#seat-bc1" transform="translate(0, -10)"/><text x="69" y="38">22G</text></g><g id="23A" class="seat seat-unavailable" transform="translate(115.8, 3159.69)" isdisable="true"><use xlink:href="#seat-bc2-flip" transform="translate(0, 0)"/><text x="-67" y="48">23A</text></g><g id="23E" class="seat seat-unavailable" transform="translate(153, 3159.69)" isdisable="true"><use xlink:href="#seat-bc2" transform="translate(0, -10)"/><text x="67" y="39">23E</text></g><g id="23F" class="seat seat-unavailable" transform="translate(355, 3159.69)" isdisable="true"><use xlink:href="#seat-bc2-flip" transform="translate(0, -10)"/><text x="-67" y="39">23F</text></g><g id="23K" class="seat seat-unavailable" transform="translate(391.2, 3159.69)" isdisable="true"><use xlink:href="#seat-bc2" transform="translate(0, 0)"/><text x="69" y="48">23K</text></g><g id="24B" class="seat seat-unavailable" transform="translate(15, 3252.69)" isdisable="true"><use xlink:href="#seat-bc1" transform="translate(0, 0)"/><text x="67" y="49">24B</text></g><g id="24D" class="seat seat-unavailable" transform="translate(253.8, 3252.69)" isdisable="true"><use xlink:href="#seat-bc1-flip" transform="translate(0, -10)"/><text x="-67" y="38">24D</text></g><g id="24G" class="seat seat-unavailable" transform="translate(255, 3252.69)" isdisable="true"><use xlink:href="#seat-bc1" transform="translate(0, -10)"/><text x="69" y="38">24G</text><g transform="translate(51, -2)"><use class="fac" xlink:href="#reduce_mob" transform="translate(0, 2)"/></g></g><g id="24J" class="seat seat-unavailable" transform="translate(492, 3252.69)" isdisable="true"><use xlink:href="#seat-bc1-flip" transform="translate(0, 0)"/><text x="-67" y="49">24J</text><g transform="translate(-85, 8)"><use class="fac" xlink:href="#reduce_mob" transform="translate(0, 2)"/></g></g><g id="25A" class="seat seat-unavailable" transform="translate(115.8, 3345.69)" isdisable="true"><use xlink:href="#seat-bc2-flip" transform="translate(0, 0)"/><text x="-67" y="48">25A</text></g><g id="25E" class="seat seat-unavailable" transform="translate(153, 3345.69)" isdisable="true"><use xlink:href="#seat-bc2" transform="translate(0, -10)"/><text x="67" y="39">25E</text></g><g id="25F" class="seat seat-unavailable" transform="translate(355, 3345.69)" isdisable="true"><use xlink:href="#seat-bc2-flip" transform="translate(0, -10)"/><text x="-67" y="39">25F</text></g><g id="25K" class="seat seat-unavailable" transform="translate(391.2, 3345.69)" isdisable="true"><use xlink:href="#seat-bc2" transform="translate(0, 0)"/><text x="69" y="48">25K</text></g><g id="26B" class="seat seat-unavailable" transform="translate(15, 3438.69)" isdisable="true"><use xlink:href="#seat-bc1" transform="translate(0, 0)"/><text x="67" y="49">26B</text></g><g id="26D" class="seat seat-unavailable" transform="translate(253.8, 3438.69)" isdisable="true"><use xlink:href="#seat-bc1-flip" transform="translate(0, -10)"/><text x="-67" y="38">26D</text></g><g id="26G" class="seat seat-unavailable" transform="translate(255, 3438.69)" isdisable="true"><use xlink:href="#seat-bc1" transform="translate(0, -10)"/><text x="69" y="38">26G</text><g transform="translate(51, -2)"><use class="fac" xlink:href="#reduce_mob" transform="translate(0, 2)"/></g></g><g id="26J" class="seat seat-unavailable" transform="translate(492, 3438.69)" isdisable="true"><use xlink:href="#seat-bc1-flip" transform="translate(0, 0)"/><text x="-67" y="49">26J</text><g transform="translate(-85, 8)"><use class="fac" xlink:href="#reduce_mob" transform="translate(0, 2)"/></g></g><g transform="translate(16, 3810.69)"><use xlink:href="#b-head-l" transform="scale(1, 0.82)"/><use xlink:href="#LA" x="52.51" y="35.73"/></g><g transform="translate(16, 3903.69)"><use xlink:href="#b-head-l" transform="scale(1, 0.82)"/><use xlink:href="#GL" x="54.38" y="36"/></g><g transform="translate(16, 4089.69)"><use xlink:href="#b-head-l" transform="scale(1, 0.82)"/><use xlink:href="#GL" x="54.38" y="36"/></g><g transform="translate(172, 3531.69)"><use xlink:href="#BR" transform="translate(-165.55 0) scale(1, 0.97)"/></g><g transform="translate(172, 3810.69)"><use xlink:href="#b-head-c" transform="scale(1, 1.27)"/><use xlink:href="#HT" x="64.37" y="35.73"/></g><g transform="translate(172, 3903.69)"><use xlink:href="#b-head-c" transform="scale(1, 1.27)"/><use xlink:href="#GL" x="72.3" y="36"/></g><g transform="translate(172, 4089.69)"><use xlink:href="#SW" transform="translate(37.46 0) scale(0.66)"/></g><g transform="translate(367, 3810.69)"><use xlink:href="#b-head-r" transform="scale(1, 0.82)"/><use xlink:href="#LA" x="52.51" y="35.73"/></g><g transform="translate(367, 3903.69)"><use xlink:href="#b-head-r" transform="scale(1, 0.82)"/><use xlink:href="#GL" x="54.38" y="36"/></g><g transform="translate(367, 3996.69)"><use xlink:href="#b-head-r" transform="scale(1, 0.82)"/></g><use xlink:href="#filler" transform="translate(13 4182.69) scale(1 0.5)"/></g><use xlink:href="#flap" y="490"/><use xlink:href="#flap" transform="scale(1,-1) translate(0, -4520)"/></g></svg>
