<?xml version="1.0" encoding="UTF-8" standalone="no"?>
<svg
   xmlns:dc="http://purl.org/dc/elements/1.1/"
   xmlns:cc="http://creativecommons.org/ns#"
   xmlns:rdf="http://www.w3.org/1999/02/22-rdf-syntax-ns#"
   xmlns:svg="http://www.w3.org/2000/svg"
   xmlns="http://www.w3.org/2000/svg"
   xmlns:sodipodi="http://sodipodi.sourceforge.net/DTD/sodipodi-0.dtd"
   xmlns:inkscape="http://www.inkscape.org/namespaces/inkscape"
   width="300"
   height="142"
   viewBox="0 0 1010 475"
   version="1.0"
   id="svg2"
   sodipodi:version="0.32"
   inkscape:version="0.46"
   sodipodi:docname="Jetlite Logo.svg"
   inkscape:output_extension="org.inkscape.output.svg.inkscape">
  <metadata
     id="metadata26">
    <rdf:RDF>
      <cc:Work
         rdf:about="">
        <dc:format>image/svg+xml</dc:format>
        <dc:type
           rdf:resource="http://purl.org/dc/dcmitype/StillImage" />
      </cc:Work>
    </rdf:RDF>
  </metadata>
  <defs
     id="defs24">
    <inkscape:perspective
       sodipodi:type="inkscape:persp3d"
       inkscape:vp_x="0 : 296.875 : 1"
       inkscape:vp_y="0 : 1000 : 0"
       inkscape:vp_z="1262.5 : 296.875 : 1"
       inkscape:persp3d-origin="631.25 : 197.91667 : 1"
       id="perspective28" />
  </defs>
  <sodipodi:namedview
     inkscape:window-height="669"
     inkscape:window-width="640"
     inkscape:pageshadow="2"
     inkscape:pageopacity="0.0"
     guidetolerance="10.0"
     gridtolerance="10.0"
     objecttolerance="10.0"
     borderopacity="1.0"
     bordercolor="#666666"
     pagecolor="#ffffff"
     id="base"
     showgrid="false"
     inkscape:zoom="0.43089109"
     inkscape:cx="631.25"
     inkscape:cy="296.875"
     inkscape:window-x="138"
     inkscape:window-y="95"
     inkscape:current-layer="svg2" />
  <g
     id="#ffffffff" />
  <g
     id="#fdaf18ff">
    <path
       d="M 636.43,7.78 C 642.42,6.69 648.92,7.44 654.09,10.84 C 663.16,16.25 667.61,28.12 664.28,38.16 C 661,49.38 648.55,57.04 637.07,54.48 C 629.6,53.19 623.07,47.93 619.93,41.09 C 616.97,34.82 617,27.22 619.99,20.97 C 623.02,14.34 629.31,9.33 636.43,7.78 z"
       id="path6"
       style="opacity:1;fill:#fdaf18" />
    <path
       d="M 537.87,20.11 C 549.34,18.81 560.72,16.82 572.17,15.39 C 571.91,116.46 572.04,217.54 571.98,318.61 C 560.59,318.57 549.2,318.63 537.82,318.58 C 537.87,219.09 537.78,119.6 537.87,20.11 z"
       id="path8"
       style="opacity:1;fill:#fdaf18" />
    <path
       d="M 722.37,48.44 C 733.69,46.79 745.03,45.2 756.36,43.56 C 756.36,61.31 756.36,79.07 756.37,96.82 C 778.91,96.85 801.47,96.82 824.02,96.84 C 820,106.58 815.85,116.26 811.83,126 C 793.34,126.01 774.85,125.98 756.36,126.01 C 756.37,171.36 756.37,216.7 756.36,262.04 C 756.22,269.78 756.62,278.21 761.28,284.73 C 765.21,290.32 772.54,292.17 779.05,291.83 C 793.13,291.28 806.03,284.36 817.01,275.97 C 820.56,284.1 824.17,292.21 827.72,300.34 C 812.29,311.66 794.27,320.17 775.05,322.02 C 762.05,322.92 747.97,321.03 737.5,312.66 C 727.13,304.47 722.55,290.9 722.41,278.04 C 722.39,227.36 722.41,176.68 722.4,126 C 710.39,125.98 698.39,126.02 686.39,125.98 C 686.49,116.24 686.22,106.49 686.53,96.75 C 698.48,96.94 710.44,96.79 722.39,96.83 C 722.39,80.7 722.44,64.57 722.37,48.44 z"
       id="path10"
       style="opacity:1;fill:#fdaf18" />
    <path
       d="M 882.59,97.52 C 897.2,91.24 913.58,90.16 929.19,92.39 C 944.38,94.64 958.97,101.29 970.22,111.82 C 985.23,125.8 994,145.27 998.36,165.06 C 1002.01,180.81 1002.7,197.05 1002.36,213.17 C 955.29,213.17 908.22,213.16 861.14,213.17 C 861.21,231.94 866.14,251.24 877.72,266.29 C 887.25,278.82 901.48,287.49 916.89,290.58 C 940.81,295.66 966.07,289.09 986.58,276.38 C 990.11,284.18 993.43,292.06 996.93,299.87 C 985,309.29 970.62,315.13 955.95,318.71 C 937.19,323.25 917.28,323.59 898.59,318.54 C 882.37,314.25 867.4,305.35 856,293.04 C 845.21,281.57 837.53,267.46 832.46,252.62 C 826.27,234.14 824,214.47 824.86,195.03 C 825.83,175.26 830.35,155.41 839.81,137.91 C 849.17,120.32 864.03,105.23 882.59,97.52 M 879.85,134.84 C 867.01,147.64 861.78,166.25 861.55,183.99 C 896.27,183.99 930.99,184.04 965.71,183.97 C 965.26,166.82 960.47,149.14 949.05,135.97 C 941.98,127.73 931.9,122.03 921.09,120.67 C 906.16,118.61 890.25,123.83 879.85,134.84 z"
       id="path12"
       style="opacity:1;fill:#fdaf18" />
    <path
       d="M 624,96 C 635.67,96 647.33,96 659,96 C 659,170 659,244 659,318 C 647.33,318 635.67,318 624,318 C 624,244 624,170 624,96 z"
       id="path14"
       style="opacity:1;fill:#fdaf18" />
  </g>
  <g
     id="#00083cff">
    <path
       d="M 88.43,84.04 C 105.64,81.78 122.82,79.25 139.99,76.74 C 140.01,173.15 140,269.57 140,365.98 C 139.89,382.25 139.24,398.75 134.76,414.5 C 130.65,429.63 122.37,444.13 109.5,453.44 C 95.06,464.07 76.83,468.1 59.18,468.64 C 53.48,469.54 47.77,468.56 42.06,468.27 C 30.54,467.22 19.22,464.46 8.41,460.34 C 13.77,447.32 19.24,434.33 24.29,421.19 C 34.83,424.65 46.03,426.25 57.12,425.64 C 66.08,425.1 75.28,420.89 79.9,412.9 C 87.41,400.71 87.56,385.87 88.43,372.03 C 88.44,276.03 88.43,180.03 88.43,84.04 z"
       id="path17"
       style="opacity:1;fill:#00083c" />
    <path
       d="M 401,111.08 C 418.22,108.97 435.4,106.41 452.56,103.85 C 452.58,122.85 452.56,141.84 452.57,160.84 C 475.64,160.83 498.71,160.87 521.77,160.82 C 516.43,174.46 510.72,187.95 505.31,201.56 C 487.73,201.58 470.15,201.55 452.57,201.57 C 452.57,241.72 452.56,281.86 452.58,322.01 C 452.87,329.07 454.32,337.18 460.54,341.52 C 466.9,345.61 474.97,345.07 482.07,343.59 C 492.37,341.3 501.91,336.33 510.48,330.27 C 515.49,341.72 520.62,353.12 525.52,364.62 C 509.54,376.39 490.75,384.26 471.19,387.58 C 457.04,390 442.03,389.93 428.55,384.53 C 418.1,380.37 409.49,371.88 405.36,361.4 C 402.31,354.33 401.47,346.6 400.99,338.99 C 401.01,293.19 401,247.38 401,201.57 C 388.27,201.56 375.55,201.58 362.82,201.56 C 362.87,187.99 362.83,174.42 362.84,160.84 C 375.56,160.84 388.28,160.84 401,160.84 C 401.01,144.25 401,127.66 401,111.08 z"
       id="path19"
       style="opacity:1;fill:#00083c" />
    <path
       d="M 226.29,163.09 C 238.12,157.86 251.08,155.17 264.02,155.42 C 285.58,154.88 307.6,161.73 324.11,175.82 C 342.27,191.04 353.07,213.5 357.69,236.43 C 361.19,252.56 361.25,269.14 361.18,285.56 C 313.89,285.57 266.6,285.57 219.31,285.57 C 219.68,301.45 225.83,317.48 237.45,328.54 C 249.37,340.33 266.39,345.95 282.96,345.95 C 303.11,346.39 322.92,340.04 340.24,330.02 C 345.11,341.25 350.19,352.38 354.99,363.63 C 336.05,377.55 313.2,385.66 289.92,388.21 C 269.13,390.57 247.51,388.28 228.2,379.97 C 210.01,372.16 194.63,358.32 184.48,341.37 C 171.77,320.31 166.35,295.43 166.41,271 C 166.33,246.1 172.11,220.79 185.32,199.49 C 195.04,183.72 209.28,170.6 226.29,163.09 M 232.66,209.55 C 223.7,219.63 218.91,233.23 218.98,246.66 C 248.57,246.64 278.15,246.69 307.74,246.64 C 306.89,233.44 303.02,219.94 294.2,209.81 C 286.81,201.04 275.44,195.85 263.97,196.06 C 252.19,195.58 240.54,200.86 232.66,209.55 z"
       id="path21"
       style="opacity:1;fill:#00083c" />
  </g>
</svg>
