<?xml version="1.0" encoding="utf-8"?>
<!-- Generator: Adobe Illustrator 15.0.1, SVG Export Plug-In . SVG Version: 6.00 Build 0)  -->
<!DOCTYPE svg PUBLIC "-//W3C//DTD SVG 1.1//EN" "http://www.w3.org/Graphics/SVG/1.1/DTD/svg11.dtd">
<svg version="1.1" id="Layer_1" xmlns="http://www.w3.org/2000/svg" xmlns:xlink="http://www.w3.org/1999/xlink" x="0px" y="0px"
	 width="470px" height="124.83px" viewBox="0 0 470 124.83" enable-background="new 0 0 470 124.83" xml:space="preserve">
<path fill="#231F20" d="M73.456,83.12c0,5.032-2.297,7.223-5.092,8.301c-0.855,0.331-0.56,1.29,0.151,1.231
	c0.595-0.048,5.523-0.278,10.506-0.278c4.997,0,9.927,0.23,10.513,0.278c0.71,0.059,1.006-0.9,0.172-1.231
	c-2.804-1.078-5.113-3.269-5.113-8.301V33.96c0-5.026,2.31-7.229,5.113-8.295c0.834-0.326,0.538-1.291-0.172-1.231
	c-0.586,0.059-5.516,0.284-10.513,0.284c-4.982,0-9.911-0.225-10.506-0.284c-0.711-0.059-1.007,0.906-0.151,1.231
	c2.795,1.066,5.092,3.269,5.092,8.295V83.12z"/>
<path fill="#231F20" d="M207.024,59.242c0-0.415,0.086-1.119,0.606-1.545c0.868-0.663,3.076-1.089,4.713-1.089
	c4.787,0,7.117,2.22,10.306,2.22c1.521,0,3.638-1.474,4.304-2.978c0.66-1.504,2.771-5.933,3.396-6.939
	c0.498-0.77-0.612-1.196-1.042-0.651c-0.838,1.054-1.607,1.747-3.442,1.747c-3.7,0-4.026-1.226-8.515-1.226
	c-4.795,0-7.803,2.475-9.789,5.115c-0.275,0.391-0.554,0.355-0.536-0.136V32.604c0-1.409,0.427-2.037,1.791-2.037
	c10.068,0,13.863-0.059,21.193,8.585c0.515,0.616,1.358,0.427,1.172-0.474c-0.213-1.083-0.722-4.369-1.128-7.347
	c-0.394-2.979-0.411-3.227-0.643-6.33c-0.012-0.319-0.266-0.61-0.669-0.568c-0.586,0.059-17.09,0.284-22.072,0.284
	c-5.009,0-15.133-0.225-15.716-0.284c-0.714-0.059-1.007,0.906-0.175,1.231c2.806,1.066,5.115,3.269,5.115,8.295v49.16
	c0,5.032-2.31,7.223-5.115,8.301c-0.832,0.331-0.539,1.29,0.175,1.231c0.583-0.048,5.523-0.278,10.506-0.278
	c4.997,0,9.932,0.23,10.503,0.278c0.72,0.059,1.019-0.9,0.175-1.231c-2.801-1.078-5.112-3.269-5.112-8.301V59.242z"/>
<path fill="#231F20" d="M369.808,92.344c3.86,0,9.964,0.03,11.468,0.119c0.682,0.018,1.309,0.095,1.889,0.402
	c0.96,0.474,1.504,0.781,1.635,0.035c0.242-1.516,0.911-4.57,1.302-6.24c0.421-1.8,1.09-4.653,1.374-5.577
	c0.272-0.876-0.628-1.065-1.019-0.433c-0.462,0.717-3.304,3.914-8.425,4.731c-5.121,0.828-11.314,0.449-12.084,0.449
	c-0.746,0-1.173-0.627-1.173-1.355V57.696c0-0.403,0.166-1.06,0.61-1.54c0.515-0.586,1.593-1.172,2.824-1.172
	c4.808,0,7.234,2.605,10.42,2.605c1.552,0,3.659-1.475,4.334-2.979c0.663-1.498,2.747-5.477,3.387-6.471
	c0.497-0.775-0.615-1.208-1.054-0.651c-0.841,1.048-1.587,1.759-3.434,1.759c-3.719,0-3.233-1.25-7.715-1.25
	c-4.802,0-6.862,2.481-8.828,5.122c-0.296,0.396-0.568,0.349-0.545-0.136V32.604c0-1.409,0.427-2.037,1.788-2.037
	c9.687,0,14.482,0.272,19.443,6.11c0.516,0.61,1.374,0.42,1.185-0.474c-0.225-1.101-0.9-2.978-1.279-5.956
	c-0.402-2.972-0.509-3.245-0.71-6.383c-0.035-0.408-0.296-0.627-0.781-0.627c-0.676,0-0.557,0.45-1.403,0.817
	c-0.93,0.409-2.41,0.456-4.021,0.533c-5.021,0.23-11.545,0.13-14.601,0.13c-4.985,0-14.636-0.225-15.216-0.284
	c-0.723-0.059-1.007,0.906-0.166,1.231c2.795,1.066,5.104,3.269,5.104,8.295v49.16c0,5.032-2.309,7.223-5.104,8.301
	c-0.841,0.331-0.557,1.29,0.166,1.231C349.76,92.604,359.411,92.38,369.808,92.344"/>
<path fill="#231F20" d="M237.637,83.12c0,5.032-2.33,7.223-5.106,8.301c-0.859,0.331-0.557,1.29,0.153,1.231
	c0.599-0.048,5.516-0.278,10.516-0.278c4.979,0,9.911,0.23,10.497,0.278c0.729,0.059,1.019-0.9,0.172-1.231
	c-2.795-1.078-5.115-3.269-5.115-8.301V33.96c0-5.026,2.32-7.229,5.115-8.295c0.847-0.326,0.557-1.291-0.172-1.231
	c-0.586,0.059-5.518,0.284-10.497,0.284c-5,0-9.917-0.225-10.516-0.284c-0.71-0.059-1.013,0.906-0.153,1.231
	c2.776,1.066,5.106,3.269,5.106,8.295V83.12z"/>
<path fill="#231F20" d="M184.392,92.983v-30.77c0-5.027-0.249-7.229,2.561-8.307c0.841-0.319,0.533-1.291-0.178-1.219
	c-0.58,0.047-3.754,0.284-8.748,0.284c-6.74,0-10.396-0.545-10.979-0.598c-0.711-0.065-1.007,0.906-0.175,1.237
	c2.813,1.072,6.856,3.576,6.856,8.603v18.987c0,2.558-1.504,7.176-7.058,7.176c-5.565,0-12.919-5.838-12.919-27.78
	c0-13.286,4.026-30.906,16.61-30.906c8.005,0,11.297,6.726,12.425,10.207c0.361,1.184,1.794,1.623,1.516-0.154
	c-0.275-1.741-0.867-5.364-1.14-8.739c-0.264-3.398-0.086-6.703-0.086-7.52s-0.711-1.024-1.395-0.213
	c-0.704,0.811-2.231,1.19-3.916,1.19c-1.661,0-5.074-0.888-9.228-0.888c-11.534,0-26.374,11.776-26.374,35.957
	c0,25.802,12.398,34.53,22.833,34.53c8.547,0,8.979-1.765,12.884-1.765c2.036,0,3.594,0.331,4.905,0.953
	C183.83,93.747,184.38,93.729,184.392,92.983"/>
<path fill="#231F20" d="M330.222,54.304V83.12c0,5.032-2.298,7.223-5.104,8.301c-0.841,0.331-0.545,1.29,0.165,1.231
	c0.593-0.048,5.519-0.278,10.516-0.278s9.438,0.23,10.018,0.278c0.723,0.059,1.019-0.9,0.166-1.231
	c-2.783-1.078-4.63-3.269-4.63-8.301V33.96c0-5.026,1.847-7.229,4.63-8.295c0.853-0.326,0.557-1.291-0.166-1.231
	c-0.58,0.059-5.021,0.284-10.018,0.284s-9.923-0.225-10.516-0.284c-0.71-0.059-1.006,0.906-0.165,1.231
	c2.806,1.066,5.104,3.269,5.104,8.295v14.512c0,0.841-0.309,1.149-1.22,1.149c-2.534,0-4.642-2.877-8.668-2.877
	c-4.032,0-7.97,4.056-8.283,4.369c-0.29,0.296-0.609,0-0.609-0.373V33.96c0-5.026,2.32-7.229,5.109-8.295
	c0.835-0.326,0.551-1.291-0.16-1.231c-0.586,0.059-5.518,0.284-10.515,0.284c-4.991,0-9.912-0.225-10.504-0.284
	c-0.723-0.059-1.007,0.906-0.154,1.231c2.783,1.066,5.104,3.269,5.104,8.295v49.16c0,5.032-2.321,7.223-5.104,8.301
	c-0.853,0.331-0.568,1.29,0.154,1.231c0.592-0.048,5.513-0.278,10.504-0.278c4.997,0,9.929,0.23,10.515,0.278
	c0.711,0.059,0.995-0.9,0.16-1.231c-2.789-1.078-5.109-3.269-5.109-8.301V57.696c0-0.533,0.035-1.267,0.556-1.634
	c0.51-0.361,0.734-0.563,2.735-0.563c2.002,0,4.003,0.468,5.43,0.965c3.393,1.172,4.162,1.421,6.306,0.071
	c1.226-0.77,2.403-1.895,2.854-2.38C329.666,53.759,330.222,53.646,330.222,54.304"/>
<path fill="#231F20" d="M129.507,77.921v5.199c0,5.032-1.833,7.223-4.633,8.301c-0.838,0.331-0.551,1.29,0.156,1.231
	c0.602-0.048,2.833-0.278,7.804-0.278c5.003,0,7.694,0.23,8.295,0.278c0.708,0.059,1.007-0.9,0.157-1.231
	c-2.801-1.078-5.098-3.269-5.098-8.301V33.96c0-5.026,2.297-7.229,5.098-8.295c0.85-0.326,0.551-1.291-0.157-1.231
	c-0.601,0.059-3.292,0.284-8.295,0.284c-4.971,0-7.682-0.225-8.263-0.284c-0.71-0.059-1.03,0.906-0.177,1.231
	c2.794,1.066,5.112,3.269,5.112,8.295v16.383c0,1.326-0.729,1.231-1.323,0.355c-0.654-0.941-3.777-5.731-7.152-10.515
	c-3.36-4.76-7.566-11.089-8.126-11.865c-0.51-0.758-0.98-1.469-1.383-2.321c-0.447-0.995-1.279-1.374-2.38-1.397
	c-0.602-0.012-2.365,0.118-7.356,0.118c-4.994,0-8.512-0.225-9.101-0.284c-0.713-0.059-1.013,0.906-0.169,1.231
	c2.795,1.066,7.81,5.601,7.81,10.628V83.12c0,5.032-2.306,7.223-5.106,8.301c-0.855,0.331-0.539,1.29,0.178,1.231
	c0.574-0.048,3.28-0.278,8.274-0.278c4.985,0,7.208,0.23,7.797,0.278c0.717,0.059,1.007-0.9,0.169-1.231
	c-2.8-1.078-4.624-3.269-4.624-8.301V43.048c0-1.438,0.726-1.699,1.667-0.142c0.841,1.374,7.765,11.593,10.675,15.82
	c2.887,4.239,6.705,10.479,8.318,13.263C129.341,74.926,129.507,75.435,129.507,77.921"/>
<path fill="#231F20" d="M42.402,64.002c3.111,5.347,5.844,21.409,12.072,36.099c4.352,10.29,13.076,14.73,19.665,14.73
	c4.701,0,7.508-0.687,9.615-1.527c1.244-0.485,1.052-1.386,0.214-1.563c-2.384-0.456-3.754-1.042-6.4-2.718
	c-4.198-2.646-8.618-10.414-10.648-16.749c-2.111-6.572-6.128-19.982-11.386-28.656c-3.795-6.252-7.898-9.669-14.301-11.735
	c-0.56-0.19-0.56-0.498-0.163-1.03l17.108-22.369c4.772-5.92,8.73-10.077,15.613-12.718c0.933-0.367,0.609-1.433-0.172-1.35
	c-0.654,0.047-5.565,0.296-11.045,0.296c-5.488,0-10.938-0.249-11.587-0.296c-0.787-0.083-1.122,0.983-0.198,1.35
	c3.078,1.167,4.219,5.625,0.465,11.558c-3.728,5.909-12.398,17.88-16.534,22.789c-1.089,1.267-1.454,1.107-1.454,0V24.86
	c0-5.494,2.534-7.928,5.613-9.094c0.936-0.367,0.589-1.433-0.181-1.35c-0.648,0.047-6.385,0.296-11.877,0.296
	c-5.488,0-11.211-0.249-11.859-0.296c-0.776-0.083-1.116,0.983-0.184,1.35c3.076,1.167,5.616,3.6,5.616,9.094v66.277
	c0,5.506-2.54,7.916-5.616,9.105c-0.933,0.344-0.592,1.433,0.184,1.362c0.648-0.071,6.371-0.309,11.859-0.309
	c5.492,0,11.229,0.237,11.877,0.309c0.77,0.07,1.116-1.019,0.181-1.362c-3.079-1.189-5.613-3.6-5.613-9.105V63.048
	c0-1.906,0.216-2.344,0.909-2.918c0.678-0.586,1.436-1.06,2.164-1.06S39.874,59.674,42.402,64.002"/>
<path fill="#231F20" d="M407.902,20.07L407.902,20.07c2.937,0,13.617,1.711,13.617,13.635c0,9.284-8.028,15.891-15.038,18.958
	c-1.415,0.634-1.658,0.308-1.623-0.391V21.734C404.858,20.715,405,20.07,407.902,20.07 M434.142,32.965
	c0-12.226-8.976-18.68-23.647-18.68c-6.335,0-7.543,0.426-12.072,0.426c-5.494,0-11.22-0.249-11.871-0.296
	c-0.787-0.083-1.113,0.983-0.189,1.35c3.079,1.167,5.613,3.6,5.613,9.094v66.277c0,5.506-2.534,7.916-5.613,9.105
	c-0.924,0.344-0.598,1.433,0.189,1.362c0.651-0.071,6.377-0.309,11.871-0.309c5.477,0,11.208,0.237,11.848,0.309
	c0.799,0.07,1.137-1.019,0.189-1.362c-3.056-1.189-5.602-3.6-5.602-9.105V63.048c-0.035-1.403,0.06-2.025,0.9-2.617
	c0.746-0.492,1.895-0.758,2.96-0.722c0.723,0,4.192,0.343,7.058,4.482c7.011,10.13,7.815,21.19,14.044,35.892
	c4.37,10.284,13.085,14.725,19.675,14.725c4.707,0,7.507-0.675,9.621-1.54c1.243-0.474,1.042-1.385,0.213-1.557
	c-2.38-0.45-3.754-1.048-6.406-2.729c-4.191-2.641-8.597-10.402-10.646-16.732c-2.107-6.571-6.513-17.596-11.782-26.275
	c-3.09-5.092-8.804-8.87-13.813-10.492c-0.563-0.178-0.847-0.829-0.22-1.196C422.822,51.166,434.142,41.876,434.142,32.965"/>
<path fill="#231F20" d="M289.038,23.854c0-1.303-1.137-0.764-1.563-0.225c-0.663,0.817-1.255,1.332-2.392,1.332
	c-3.398,0-3.843-1.533-10.148-1.533c-12.326,0-18.164,9.888-18.164,16.602c0,9.236,4.843,14.932,15.003,21.753
	c9.911,6.655,13.522,10.077,13.522,16.199c0,4.003-2.368,10.012-11.723,10.012c-10.373,0-14.21-13.434-14.66-14.76
	c-0.455-1.303-1.812-1.303-1.699,0c0.125,1.326,0.361,5.63,0.361,10.136c0,4.512-0.236,8.378-0.236,9.58
	c0,1.196,1.119,1.089,1.574,0.438c0.45-0.664,0.344-1.54,3.387-1.54c3.038,0,4.405,1.753,12.528,1.753
	c10.491,0,19.793-7.046,19.793-17.502c0-8.668-2.043-14.92-13.932-22.8c-9.165-6.063-14.777-9.491-14.777-15.69
	c0-4.684,3.563-8.579,8.68-8.579c5.873,0,11.841,5.453,13.807,10.835c0.402,1.131,1.717,0.746,1.646-0.213
	c-0.119-1.445-0.438-5.34-0.657-8.644C289.144,27.708,289.038,24.96,289.038,23.854"/>
<path fill="#CC1F43" d="M69.237,78.833c0,5.033-2.317,7.235-5.106,8.301c-0.844,0.332-0.551,1.297,0.169,1.243
	c0.589-0.059,5.507-0.284,10.516-0.284c4.988,0,9.911,0.226,10.5,0.284c0.714,0.054,1.019-0.911,0.157-1.243
	c-2.777-1.065-5.092-3.268-5.092-8.301V29.667c0-5.009,2.314-7.206,5.092-8.277c0.861-0.332,0.557-1.303-0.157-1.22
	c-0.589,0.036-5.512,0.278-10.5,0.278c-5.009,0-9.927-0.243-10.516-0.278c-0.72-0.083-1.013,0.888-0.169,1.22
	c2.789,1.071,5.106,3.268,5.106,8.277V78.833z"/>
<path fill="#CC1F43" d="M202.817,54.961c0-0.415,0.074-1.137,0.607-1.54c0.844-0.675,3.085-1.101,4.692-1.101
	c4.801,0,7.125,2.226,10.313,2.226c1.551,0,3.645-1.468,4.322-2.972c0.666-1.51,2.759-5.95,3.384-6.951
	c0.509-0.764-0.602-1.196-1.057-0.651c-0.823,1.065-1.581,1.764-3.426,1.764c-3.721,0-4.032-1.243-8.511-1.243
	c-4.802,0-7.815,2.48-9.793,5.127c-0.284,0.385-0.563,0.343-0.533-0.125V28.324c0-1.403,0.424-2.049,1.776-2.049
	c10.083,0,13.872-0.042,21.196,8.591c0.503,0.616,1.371,0.438,1.175-0.462c-0.21-1.102-0.719-4.387-1.127-7.354
	c-0.4-2.978-0.418-3.227-0.637-6.341c-0.023-0.302-0.278-0.61-0.672-0.539c-0.596,0.036-17.103,0.278-22.076,0.278
	c-4.993,0-15.118-0.243-15.719-0.278c-0.705-0.083-1.007,0.888-0.157,1.22c2.789,1.071,5.104,3.268,5.104,8.277v49.166
	c0,5.033-2.314,7.235-5.104,8.301c-0.85,0.332-0.548,1.297,0.157,1.243c0.601-0.059,5.509-0.284,10.506-0.284
	s9.911,0.226,10.513,0.284c0.716,0.054,1.006-0.911,0.172-1.243c-2.815-1.065-5.107-3.268-5.107-8.301V54.961z"/>
<path fill="#CC1F43" d="M365.592,88.069c3.872,0,9.959,0.023,11.463,0.095c0.704,0.023,1.313,0.118,1.906,0.414
	c0.924,0.475,1.516,0.782,1.622,0.042c0.236-1.51,0.912-4.577,1.303-6.265c0.426-1.77,1.089-4.63,1.373-5.547
	c0.278-0.895-0.627-1.078-1.018-0.438c-0.456,0.711-3.305,3.907-8.408,4.713c-5.127,0.841-11.355,0.45-12.102,0.45
	s-1.172-0.604-1.172-1.338V53.398c0-0.415,0.165-1.042,0.604-1.516c0.521-0.581,1.575-1.161,2.818-1.161
	c4.819,0,7.259,2.576,10.432,2.576c1.563,0,3.659-1.475,4.322-2.966c0.663-1.504,2.777-5.483,3.411-6.472
	c0.485-0.764-0.622-1.196-1.055-0.669c-0.841,1.066-1.599,1.765-3.434,1.765c-3.719,0-3.245-1.244-7.732-1.244
	c-4.802,0-6.845,2.475-8.816,5.127c-0.29,0.391-0.574,0.343-0.55-0.119V28.324c0-1.403,0.426-2.049,1.794-2.049
	c9.68,0,14.476,0.267,19.438,6.104c0.521,0.616,1.361,0.438,1.184-0.462c-0.225-1.101-0.899-2.984-1.29-5.956
	c-0.409-2.972-0.498-3.256-0.711-6.383c-0.023-0.396-0.284-0.622-0.793-0.622c-0.669,0-0.533,0.444-1.397,0.805
	c-0.912,0.409-2.404,0.479-4.003,0.539c-5.021,0.237-11.557,0.148-14.588,0.148c-4.985,0-14.637-0.243-15.217-0.278
	c-0.722-0.083-1.03,0.888-0.178,1.22c2.783,1.071,5.104,3.268,5.104,8.277v49.166c0,5.033-2.32,7.235-5.104,8.301
	c-0.853,0.332-0.544,1.297,0.178,1.243C345.556,88.318,355.208,88.104,365.592,88.069"/>
<path fill="#CC1F43" d="M233.41,78.833c0,5.033-2.304,7.235-5.104,8.301c-0.844,0.332-0.545,1.297,0.175,1.243
	c0.595-0.059,5.506-0.284,10.5-0.284c4.988,0,9.926,0.226,10.494,0.284c0.729,0.054,1.03-0.911,0.178-1.243
	c-2.807-1.065-5.104-3.268-5.104-8.301V29.667c0-5.009,2.297-7.206,5.104-8.277c0.853-0.332,0.551-1.303-0.178-1.22
	c-0.568,0.036-5.506,0.278-10.494,0.278c-4.994,0-9.905-0.243-10.5-0.278c-0.72-0.083-1.019,0.888-0.175,1.22
	c2.8,1.071,5.104,3.268,5.104,8.277V78.833z"/>
<path fill="#CC1F43" d="M180.179,88.691V57.927c0-5.027-0.236-7.229,2.558-8.295c0.844-0.32,0.545-1.291-0.162-1.231
	c-0.602,0.071-3.76,0.284-8.769,0.284c-6.729,0-10.385-0.533-10.978-0.592c-0.704-0.059-1.021,0.894-0.166,1.231
	c2.789,1.078,6.845,3.576,6.845,8.603v18.964c0,2.587-1.516,7.188-7.061,7.188c-5.548,0-12.91-5.814-12.91-27.75
	c0-13.316,4.021-30.93,16.613-30.93c8.014,0,11.3,6.732,12.404,10.195c0.382,1.196,1.8,1.64,1.533-0.13
	c-0.272-1.758-0.873-5.358-1.134-8.745c-0.267-3.393-0.089-6.708-0.089-7.514c0-0.811-0.698-1.036-1.391-0.219
	c-0.69,0.817-2.253,1.184-3.914,1.184c-1.67,0-5.071-0.876-9.254-0.876c-11.524,0-26.354,11.759-26.354,35.939
	c0,25.814,12.41,34.553,22.843,34.553c8.537,0,8.961-1.776,12.871-1.776c2.031,0,3.579,0.32,4.888,0.96
	C179.596,89.479,180.179,89.443,180.179,88.691"/>
<path fill="#CC1F43" d="M326.006,50.035v28.798c0,5.033-2.309,7.235-5.092,8.301c-0.853,0.332-0.557,1.297,0.166,1.243
	c0.586-0.059,5.494-0.284,10.503-0.284c5.003,0,9.438,0.226,10.018,0.284c0.723,0.054,1.019-0.911,0.166-1.243
	c-2.782-1.065-4.618-3.268-4.618-8.301V29.667c0-5.009,1.836-7.206,4.618-8.277c0.853-0.332,0.557-1.303-0.166-1.22
	c-0.58,0.036-5.015,0.278-10.018,0.278c-5.009,0-9.917-0.243-10.503-0.278c-0.723-0.083-1.019,0.888-0.166,1.22
	c2.783,1.071,5.092,3.268,5.092,8.277v14.518c0,0.841-0.313,1.149-1.208,1.149c-2.534,0-4.642-2.877-8.68-2.877
	s-7.969,4.073-8.277,4.357c-0.302,0.308-0.604,0-0.604-0.355V29.667c0-5.009,2.291-7.206,5.104-8.277
	c0.841-0.332,0.545-1.303-0.166-1.22c-0.604,0.036-5.518,0.278-10.503,0.278c-5.015,0-9.935-0.243-10.516-0.278
	c-0.71-0.083-1.012,0.888-0.165,1.22c2.794,1.071,5.104,3.268,5.104,8.277v49.166c0,5.033-2.31,7.235-5.104,8.301
	c-0.847,0.332-0.545,1.297,0.165,1.243c0.581-0.059,5.501-0.284,10.516-0.284c4.985,0,9.899,0.226,10.503,0.284
	c0.711,0.054,1.007-0.911,0.166-1.243c-2.813-1.065-5.104-3.268-5.104-8.301V53.398c0-0.521,0.029-1.255,0.539-1.61
	c0.509-0.379,0.746-0.569,2.747-0.569s4.014,0.45,5.429,0.954c3.363,1.184,4.169,1.427,6.312,0.083
	c1.22-0.787,2.404-1.883,2.83-2.38C325.45,49.479,326.006,49.366,326.006,50.035"/>
<path fill="#CC1F43" d="M125.292,73.641v5.192c0,5.033-1.829,7.235-4.624,8.301c-0.844,0.332-0.554,1.297,0.151,1.243
	c0.606-0.059,2.812-0.284,7.809-0.284c4.994,0,7.683,0.226,8.28,0.284c0.705,0.054,1.001-0.911,0.172-1.243
	c-2.804-1.065-5.106-3.268-5.106-8.301V29.667c0-5.009,2.303-7.206,5.106-8.277c0.829-0.332,0.533-1.303-0.172-1.22
	c-0.598,0.036-3.286,0.278-8.28,0.278c-4.997,0-7.688-0.243-8.271-0.278c-0.726-0.083-1.007,0.888-0.175,1.22
	c2.794,1.071,5.109,3.268,5.109,8.277v16.389c0,1.326-0.72,1.255-1.309,0.355c-0.654-0.929-3.783-5.737-7.155-10.509
	c-3.362-4.767-7.584-11.09-8.135-11.877c-0.497-0.74-0.977-1.451-1.383-2.315c-0.449-1-1.29-1.374-2.383-1.379
	c-0.601-0.023-2.359,0.119-7.365,0.119c-4.991,0-8.493-0.243-9.095-0.278c-0.71-0.083-1.012,0.888-0.165,1.22
	c2.791,1.071,7.815,5.601,7.815,10.61v46.833c0,5.033-2.321,7.235-5.104,8.301c-0.843,0.332-0.55,1.297,0.163,1.243
	c0.595-0.059,3.274-0.284,8.277-0.284c5.006,0,7.214,0.226,7.795,0.284c0.71,0.054,1.021-0.911,0.165-1.243
	c-2.782-1.065-4.621-3.268-4.621-8.301v-40.06c0-1.444,0.729-1.705,1.693-0.142c0.817,1.362,7.754,11.569,10.646,15.814
	c2.904,4.239,6.735,10.474,8.331,13.262C125.134,70.656,125.292,71.148,125.292,73.641"/>
<path fill="#CC1F43" d="M38.189,59.721c3.103,5.34,5.832,21.397,12.069,36.104c4.366,10.291,13.085,14.731,19.663,14.731
	c4.716,0,7.516-0.711,9.604-1.534c1.261-0.491,1.065-1.403,0.219-1.574c-2.359-0.468-3.736-1.042-6.397-2.718
	c-4.188-2.641-8.597-10.415-10.646-16.756c-2.099-6.56-6.125-19.965-11.392-28.644c-3.783-6.252-7.907-9.663-14.292-11.735
	c-0.544-0.202-0.544-0.492-0.168-1.042l17.116-22.339c4.781-5.927,8.725-10.083,15.616-12.736c0.936-0.361,0.601-1.421-0.175-1.35
	c-0.643,0.059-5.542,0.313-11.054,0.313c-5.474,0-10.947-0.254-11.584-0.313c-0.79-0.071-1.116,0.989-0.195,1.35
	c3.094,1.185,4.216,5.613,0.474,11.545c-3.753,5.933-12.41,17.893-16.557,22.795c-1.075,1.279-1.445,1.113-1.445,0V20.585
	c0-5.518,2.549-7.922,5.628-9.106c0.92-0.361,0.595-1.421-0.202-1.35c-0.642,0.059-6.376,0.313-11.871,0.313
	c-5.474,0-11.208-0.254-11.859-0.313c-0.775-0.071-1.101,0.989-0.181,1.35c3.067,1.185,5.613,3.588,5.613,9.106v66.27
	c0,5.507-2.546,7.928-5.613,9.112c-0.92,0.344-0.595,1.415,0.181,1.344c0.651-0.071,6.385-0.319,11.859-0.319
	c5.494,0,11.229,0.248,11.871,0.319c0.796,0.071,1.122-1,0.202-1.344c-3.079-1.185-5.628-3.605-5.628-9.112V58.774
	c0-1.907,0.225-2.356,0.918-2.937c0.66-0.568,1.441-1.054,2.164-1.054C32.854,54.783,35.655,55.381,38.189,59.721"/>
<path fill="#CC1F43" d="M403.698,15.79L403.698,15.79c2.901,0,13.605,1.723,13.605,13.612c0,9.301-8.004,15.933-15.026,18.987
	c-1.444,0.628-1.67,0.296-1.646-0.402V17.459C400.631,16.441,400.785,15.79,403.698,15.79 M429.938,28.673
	c0-12.22-8.993-18.674-23.646-18.674c-6.348,0-7.556,0.444-12.091,0.444c-5.482,0-11.214-0.254-11.864-0.313
	c-0.782-0.071-1.113,0.989-0.178,1.35c3.066,1.185,5.601,3.588,5.601,9.106v66.27c0,5.507-2.534,7.928-5.601,9.112
	c-0.936,0.344-0.604,1.415,0.178,1.344c0.65-0.071,6.382-0.319,11.864-0.319c5.495,0,11.214,0.248,11.859,0.319
	c0.788,0.071,1.107-1,0.195-1.344c-3.091-1.185-5.624-3.605-5.624-9.112V58.774c-0.024-1.409,0.041-2.025,0.935-2.617
	c0.729-0.497,1.859-0.775,2.926-0.746c0.722,0.03,4.191,0.355,7.057,4.5c7.022,10.119,7.84,21.172,14.068,35.879
	c4.352,10.29,13.072,14.742,19.656,14.742c4.713,0,7.508-0.692,9.627-1.539c1.243-0.485,1.054-1.397,0.213-1.563
	c-2.374-0.467-3.741-1.054-6.405-2.729c-4.192-2.647-8.609-10.415-10.646-16.75c-2.108-6.572-6.501-17.573-11.782-26.264
	c-3.091-5.104-8.811-8.875-13.819-10.498c-0.545-0.184-0.841-0.811-0.236-1.196C418.606,46.885,429.938,37.595,429.938,28.673"/>
<path fill="#CC1F43" d="M284.833,19.573c0-1.314-1.137-0.775-1.593-0.207c-0.657,0.805-1.231,1.302-2.374,1.302
	c-3.393,0-3.849-1.527-10.147-1.527c-12.315,0-18.153,9.899-18.153,16.602c0,9.248,4.831,14.92,15.003,21.741
	c9.917,6.679,13.499,10.095,13.499,16.211c0,4.002-2.356,10.023-11.699,10.023c-10.373,0-14.209-13.422-14.665-14.755
	c-0.456-1.32-1.818-1.32-1.688,0c0.095,1.333,0.319,5.619,0.319,10.119c0,4.512-0.225,8.372-0.225,9.579
	c0,1.208,1.137,1.09,1.593,0.438c0.456-0.663,0.337-1.545,3.381-1.545c3.043,0,4.393,1.758,12.534,1.758
	c10.474,0,19.805-7.033,19.805-17.489c0-8.686-2.061-14.92-13.955-22.807c-9.16-6.063-14.772-9.485-14.772-15.684
	c0-4.683,3.553-8.579,8.691-8.579c5.861,0,11.842,5.447,13.808,10.835c0.414,1.131,1.717,0.746,1.634-0.231
	c-0.118-1.427-0.438-5.34-0.675-8.638C284.94,23.427,284.833,20.668,284.833,19.573"/>
</svg>
