<?xml version="1.0" encoding="utf-8"?>
<!-- Generator: Adobe Illustrator 13.0.0, SVG Export Plug-In . SVG Version: 6.00 Build 14948)  -->
<!DOCTYPE svg PUBLIC "-//W3C//DTD SVG 1.0//EN" "http://www.w3.org/TR/2001/REC-SVG-20010904/DTD/svg10.dtd">
<svg version="1.0" id="Layer_1" xmlns="http://www.w3.org/2000/svg" xmlns:xlink="http://www.w3.org/1999/xlink" x="0px" y="0px"
	 width="600px" height="192.315px" viewBox="0 0 600 192.315" enable-background="new 0 0 600 192.315" xml:space="preserve">
<path fill="#D92B24" d="M200.597,128.891c2.93,3.615,6.373,6.393,10.372,8.336c3.99,2.004,8.308,2.998,12.912,2.998
	c10.351,0,19.37-4.109,27.063-12.328c7.681-8.215,11.542-19.863,11.542-35.048c0-9.804-1.727-18.18-5.131-25.125
	c-3.424-6.99-7.92-12.167-13.517-15.56c-5.626-3.458-11.91-5.165-18.865-5.165c-5.329,0-10.057,1.072-14.184,3.255
	c-4.126,2.104-7.869,5.64-11.241,10.479V48.868h-13.815v123.476h14.863V128.891z M206.742,67.963
	c4.913-5.976,10.369-9.013,16.365-9.013c6.679,0,12.346,2.777,16.989,8.376c4.646,5.599,6.978,14.21,6.978,25.797
	c0,11.795-2.391,20.524-7.186,26.162c-4.762,5.637-10.33,8.459-16.674,8.459c-6.598,0-12.214-2.743-16.869-8.18
	c-4.664-5.438-6.988-13.936-6.988-25.427C199.357,82.688,201.831,73.974,206.742,67.963z M533.717,78.539
	c-3.052-1.861-4.575-4.428-4.575-7.681c0-3.316,1.587-6.054,4.741-8.18c3.155-2.106,7.97-3.169,14.421-3.169
	c10.188,0,16.331,3.924,18.472,11.764c4.413-2.814,8.694-5.692,12.765-8.66c-0.804-1.808-1.704-3.444-2.772-4.773
	c-2.64-3.338-6.432-5.935-11.413-7.903c-4.952-1.945-10.728-2.937-17.276-2.937c-10.408,0-18.569,2.383-24.462,7.149
	c-5.868,4.724-8.812,10.911-8.812,18.494c0,4.447,1.077,8.337,3.232,11.829c2.131,3.456,5.168,6.233,9.072,8.3
	c0.059,0.029,0.137,0.063,0.195,0.093c6.638-3.154,13.172-6.441,19.52-9.875C539.702,81.03,535.313,79.531,533.717,78.539z
	 M570.87,73.609l11.374-1.639c-0.416-2.508-1.009-4.722-1.695-6.762c-2.899,2.753-5.883,5.45-9.13,7.992
	C571.237,73.339,571.052,73.469,570.87,73.609z M90.488,138.061h18.173l23.174-35.17l4.832,7.426l18.28,27.745h18.381l-32.76-47.235
	l30.098-41.958h-18.17l-14.59,21.001c-1.925,2.772-4.127,5.932-6.568,9.443c-1.561-2.522-3.573-5.755-6.045-9.645l-13.764-20.8
	H93.15l29.613,42.787L90.488,138.061z M413.885,93.447c0-15.084-3.825-26.556-11.481-34.535
	c-7.681-7.923-17.212-11.913-28.664-11.913c-11.991,0-21.905,4.07-29.726,12.147c-7.852,8.097-11.748,19.853-11.748,35.25
	c0,14.808,3.857,26.156,11.621,34.019c7.741,7.862,17.881,11.81,30.386,11.81c9.964,0,18.301-2.439,25.021-7.283
	c6.726-4.924,11.389-12.129,13.961-21.675l-15.41-2.101c-4.395,12.343-12.222,18.579-23.458,18.579
	c-7.181,0-13.279-2.582-18.28-7.627c-5.021-5.119-7.843-12.662-8.45-22.669h66.117L413.885,93.447z M348.566,84.97
	c0.487-7.803,3.101-13.989,7.877-18.599c4.741-4.604,10.487-6.863,17.217-6.863c7.461,0,13.623,2.733,18.433,8.254
	c3.341,3.806,5.334,9.527,6.021,17.208H348.566z M280.718,48.868v89.193h14.876V91.478c0-6.468,0.953-12.562,2.858-18.336
	c1.08-3.272,2.946-5.854,5.606-7.72c2.65-1.832,5.579-2.743,8.772-2.743c3.522,0,7.156,1.034,10.909,3.218l5.04-14.134
	c-5.202-3.135-10.333-4.764-15.322-4.764c-3.595,0-6.83,1.033-9.698,3.078c-2.875,2.087-6.052,6.214-9.495,12.522V48.868H280.718z
	 M574.128,91.478c-3.14-1.675-9.586-3.786-19.28-6.37c-6.01,3.99-12.167,7.727-18.446,11.249c3.801,1.21,8.464,2.508,14.038,3.914
	c8.067,2.028,13.156,3.688,15.272,5.084c3.066,1.944,4.585,4.683,4.585,8.254c0,4.05-1.768,7.464-5.344,10.125
	c-3.541,2.68-8.582,4.012-15.072,4.012c-6.52,0-11.722-1.553-15.64-4.525c-3.938-3.018-6.349-7.627-7.221-13.814l-14.871,2.097
	c3.395,19.137,15.699,28.723,36.919,28.723c11.334,0,20.273-2.641,26.827-7.959c6.54-5.32,9.816-12.285,9.816-20.843
	c0-4.644-1.023-8.611-3.057-11.991C580.628,96.082,577.781,93.447,574.128,91.478z M433.846,128.342
	c-32.245,9.879-55.541,15.037-55.541,15.037C68.813,220.969,6.62,165.374,6.62,165.374c10.617,15.365,32.997,19.215,49.929,22.149
	c47.486,8.337,97.547,4.071,145.282,0.122c51.444-4.212,99.398-15.125,149.479-27.753c18.717-4.679,37.379-9.581,55.953-14.842
	c11.389-3.237,22.86-6.563,34.303-10.091C438.582,133.192,435.977,131.022,433.846,128.342z M42.03,140.225
	c9.934,0,18.28-2.439,25.018-7.283c6.721-4.924,11.364-12.129,13.945-21.675l-15.396-2.101
	c-4.403,12.343-12.226,18.579-23.467,18.579c-7.177,0-13.272-2.582-18.291-7.627c-5.006-5.119-7.822-12.662-8.427-22.669h66.116
	l0.099-4.002c0-15.084-3.831-26.556-11.494-34.535c-7.648-7.923-17.218-11.913-28.66-11.913c-11.998,0-21.912,4.07-29.734,12.147
	C3.922,67.243,0,78.999,0,94.397c0,14.808,3.88,26.156,11.641,34.019C19.37,136.278,29.495,140.225,42.03,140.225z M24.166,66.372
	c4.754-4.604,10.499-6.863,17.237-6.863c7.475,0,13.619,2.733,18.451,8.254c3.312,3.806,5.329,9.527,6.016,17.208H16.326
	C16.802,77.167,19.422,70.981,24.166,66.372z M499.541,105.1c0.485,1.955,0.74,4.056,0.74,6.324c0,0.882-0.059,1.739-0.128,2.586
	c12.413-5.256,24.541-11.08,36.248-17.653c-4.026-1.273-7.063-2.439-9.097-3.493C518.17,97.213,508.858,101.289,499.541,105.1z
	 M497.234,99.433c-2.033-3.351-4.884-5.986-8.523-7.955c-3.653-1.944-11.701-4.467-24.153-7.639
	c-9.027-2.381-14.435-4.168-16.257-5.3c-3.057-1.861-4.59-4.428-4.59-7.681c0-3.316,1.572-6.054,4.746-8.18
	c3.154-2.106,7.97-3.169,14.421-3.169c11.369,0,17.736,4.84,19.063,14.602l14.877-2.141c-1.024-6.113-2.852-10.854-5.477-14.131
	c-2.631-3.338-6.437-5.935-11.413-7.903c-4.952-1.945-10.723-2.937-17.281-2.937c-10.409,0-18.564,2.383-24.452,7.149
	c-5.878,4.724-8.821,10.911-8.821,18.494c0,4.447,1.082,8.337,3.237,11.829c2.136,3.456,5.168,6.233,9.066,8.3
	c3.904,2.062,11.683,4.565,23.331,7.499c8.077,2.028,13.161,3.688,15.272,5.084c2.268,1.445,3.688,3.331,4.276,5.672
	c4.967-1.896,9.973-3.875,14.983-5.927C499.032,103.052,498.268,101.162,497.234,99.433z M482.118,121.235
	c1.803-2.195,2.748-4.742,2.748-7.626c0-0.916-0.107-1.773-0.309-2.582c-12.172,4.634-24.104,8.788-35.336,12.456
	c3.781,2.704,8.685,4.154,14.733,4.232C470.044,125.643,476.108,123.498,482.118,121.235z M448.795,123.219
	c-3.923-3.018-6.333-7.627-7.205-13.814l-14.866,2.097c1.21,6.858,3.615,12.436,7.122,16.84c4.938-1.514,10.071-3.125,15.376-4.859
	C449.089,123.385,448.928,123.317,448.795,123.219z M566.775,71.272c-6.373,4.063-13.039,7.977-19.951,11.717
	c1,0.274,2.048,0.558,3.154,0.85c1.71,0.436,3.321,0.857,4.869,1.269c5.467-3.627,10.82-7.44,16.022-11.499l-3.482,0.502
	C567.25,73.102,567.021,72.179,566.775,71.272z M600,45.333c-6.015,6.018-12.916,11.778-20.46,17.279
	c0.362,0.818,0.7,1.683,1.009,2.596C587.27,58.821,593.363,52.017,600,45.333z M479.542,123.733
	c-3.552,2.68-8.597,4.012-15.087,4.012c-0.177,0-0.328-0.029-0.5-0.029c-7.431,2.527-14.905,4.938-22.39,7.244
	c5.795,3.439,13.088,5.266,22.076,5.266c11.335,0,20.274-2.641,26.804-7.959c5.888-4.771,9.105-10.875,9.708-18.256
	c-5.956,2.522-11.966,4.942-18.035,7.225C481.394,122.122,480.561,122.969,479.542,123.733z M372.103,22.865l8.166-9.013h10.663
	l1.808,9.013h16.806L404.809,0h-25.897l-21.42,22.865H372.103z M388.752,4.188l1.059,4.82h-5.246L388.752,4.188z M358.344,0h-17.806
	l-8.472,22.865h17.754L358.344,0z M177.842,9.407h-13.13l-1.538,4.126h13.159L177.842,9.407z M91.779,0H73.975L65.49,22.865h17.773
	L91.779,0z M115.736,13.813h6.074c1.002,0,1.727,0.199,2.163,0.595c0.478,0.396,0.617,0.776,0.478,1.151l-2.78,7.306h17.715
	l2.552-6.851c0.476-1.291-0.565-2.481-3.115-3.529c3.343-0.734,5.168-1.689,5.477-2.899l1.748-4.663
	c0.368-0.995-0.168-2.067-1.618-3.216C142.949,0.595,141.024,0,138.641,0h-35.348l-8.484,22.865h17.445L115.736,13.813z
	 M119.181,4.8h6.112c1.005,0,1.727,0.181,2.186,0.558c0.455,0.357,0.604,0.794,0.436,1.19l-0.419,1.249
	c-0.325,0.815-1.366,1.21-3.105,1.21h-6.826L119.181,4.8z M29.723,13.853h10.669l1.808,9.013H58.98L54.246,0H28.354L6.927,22.865
	h14.631L29.723,13.853z M38.209,4.188l1.041,4.82h-5.248L38.209,4.188z M239.431,11.413l12.368,11.452h14.002L274.304,0H262.19
	l-4.21,11.413L245.656,0h-13.38l-8.483,22.865h11.472L239.431,11.413z M323.076,19.451l5.397-14.528
	c0.378-0.995-0.169-2.067-1.618-3.216c-1.448-1.112-3.427-1.707-5.918-1.67H285.66l-8.613,22.868h36.906
	C319.055,22.904,322.104,21.751,323.076,19.451z M306.341,16.75c-0.276,0.916-1.249,1.352-2.948,1.352h-6.956L301.548,4.8h6.165
	c0.991,0,1.714,0.223,2.172,0.597c0.458,0.358,0.607,0.755,0.458,1.151L306.341,16.75z M220.785,0h-17.814l-8.465,22.865h17.754
	L220.785,0z"/>
</svg>
