<svg xmlns="http://www.w3.org/2000/svg" height="800" width="1200" viewBox="-42.52917 -11.95375 368.58614 71.7225"><g fill-rule="evenodd"><path d="M277.8544 10.1648c.118-3.0738-.5304-5.6734-2.0673-7.5646-4.727-5.6134-16.0137-1.8311-25.1152 8.3911-9.1595 10.2241-12.7038 23.046-8.0368 28.6594 4.7269 5.6153 16.0137 1.8912 25.1732-8.331 1.4189-1.655 2.7777-3.3681 3.9004-5.0831l-15.0672-1.535 21.8052-2.8377-24.0525-3.428 29.1336-3.012-23.7544-2.4234 18.081-2.8357" fill="#fcaf1e"/><path d="M221.066 10.1648c1.715 0 3.31.5304 4.3745.5304.2943-.0581.5305 0 .5305.4142 0 .118-.0581.178-.0581.2961 0 .5323.2942 1.7131.2942 3.19 0 .5923-.1762.7685-.5904.7685-.4723 0-.5904-.2943-.6503-.6504-.1181-.8865-.2362-1.2989-.7085-1.773-.7685-.8266-1.8912-1.1808-3.4862-1.1808-2.7176 0-4.1365 1.595-4.0184 3.5442.118 2.2472 1.8911 3.428 5.023 5.261 4.3127 2.6597 5.6135 4.3727 5.6135 7.2685 0 3.1319-2.4816 6.618-8.6273 6.618-1.5369 0-3.0738-.2362-4.4326-.8284-.5323-.2362-.5904-.3543-.5904-1.3589-.06-1.2407-.06-2.8957 0-3.4861.118-.3542.1762-.5904.6504-.5904.3542 0 .5323.1762.5904.6504 0 .2942.058.8846.178 1.417.6485 2.3652 2.8958 2.6595 4.4308 2.6595 3.0738 0 4.8468-1.8911 4.8468-3.9003 0-2.5415-1.4788-3.9004-5.6153-6.2638-4.1365-2.3035-4.963-4.727-4.905-6.7961.1182-3.4862 2.7777-5.7896 7.1504-5.7896zM101.4035 22.3362c0-1.4169.06-7.1484.06-11.403 0-.12-.06-.238-.2362-.238h-4.965c-.5904 0-.7684.118-.7684.5922 0 .3543.12.5305.4742.5904 1.653.1181 1.8911.8866 1.9492 2.8958.06 2.9538.06 5.1992.06 7.5626 0 3.0738-.06 7.0923-.178 11.3469 0 .1761.118.296.236.296h3.192c.1762 0 .2361-.1199.2361-.296-.06-4.1947-.06-7.8588-.06-11.3469zm94.6673-.6484c.5904.9446 1.1808 1.773 1.655 2.5415 0 2.7757-.06 6.0257-.1181 9.4538 0 .1761.058.296.2361.296h3.132c.1761 0 .2942-.1199.2942-.296-.0581-3.428-.118-6.56-.118-9.4538 2.6595-4.2565 5.7333-8.9253 8.569-13.238.1181-.178.0582-.2961-.118-.2961h-4.4908c-.5322 0-.7684.118-.7684.5922 0 .3543.1762.5305.5304.5904.9465.1781 1.1827.7685.6504 1.655-1.6531 2.7777-3.4862 5.6715-5.2592 8.5092-.4723-.7685-.9446-1.477-1.417-2.2454-1.951-2.9557-3.546-5.4953-5.6734-8.8634-.118-.178-.178-.238-.4723-.238h-3.6642c-.178 0-.2361.118-.118.2961 2.5415 3.7223 5.4353 8.095 7.1503 10.6965zm-11.405 11.9953c.1181.1761.1763.296.3543.296h3.4861c.1781 0 .2362-.1199.1781-.296-1.8911-4.0766-3.9004-8.6873-5.083-11.523-2.3035-5.3192-3.308-8.095-4.4308-11.2269-.06-.12-.178-.238-.3542-.238h-3.8423c-.5323 0-.7684.118-.7684.5922 0 .3543.178.5305.5323.5904.7684.1181 1.3588.4143 1.3588 1.4189 0 .5304-.2361 1.1807-.5304 1.891-1.0646 2.7178-1.9511 4.7851-2.8957 6.9724-1.1827 2.8357-3.192 7.4464-5.083 11.523-.0581.1761 0 .296.178.296h2.1854c.178 0 .2961-.1199.3561-.296.8266-2.1273 1.595-3.9604 2.3035-5.7915h9.6918c.7685 1.951 1.595 3.9603 2.3635 5.7915zm-11.3467-7.6827c.3542-.8265.7103-1.653 1.0046-2.4815.8865-2.1273 1.715-4.1365 3.0138-7.2684 1.3607 3.1319 2.1873 5.1411 3.0738 7.2684.3542.8284.7085 1.655 1.0627 2.4815h-8.1549zm-11.7592-15.3052c-.5323 0-.7684.118-.7684.5922 0 .3543.2361.5305.5323.5904 1.0046.1781 1.2407 1.0046.9465 2.0093-.9465 2.5996-1.715 4.905-2.5415 7.2684-.7085 2.0092-1.4189 3.9584-2.4235 6.8542-1.1227-3.0139-1.8311-4.785-2.5996-6.8542-1.2407-3.25-2.2454-5.8515-3.7223-9.81-.178-.4123-.2961-.6503-.7103-.6503-.4124 0-.5304.238-.7085.6503-1.4188 3.9585-2.3634 6.56-3.5461 9.81-.7685 2.0092-1.477 3.9584-2.5996 6.8542-1.0627-3.0139-1.713-4.785-2.4815-6.8542-1.1827-3.25-2.2454-6.2638-3.6642-10.2223-.06-.12-.1181-.238-.2943-.238h-3.37c-.1761 0-.236.06-.1761.238 1.595 3.9585 3.368 8.6854 4.4308 11.523 1.951 5.3773 2.8957 7.7988 4.0784 11.1088.1761.5323.2961.8265.7084.8265.4724 0 .6504-.4723.7685-.8265 1.0046-2.7777 3.368-8.9234 4.1965-11.1088.5904-1.5369 1.2407-3.1319 2.0092-4.965.8265 2.0093 1.1808 2.8958 1.9492 4.965 2.0673 5.3773 3.072 7.7988 4.3146 11.1088.2361.5323.3542.8265.7684.8265.4723 0 .5904-.4723.7666-.8265.9465-2.7777 3.1319-8.9234 3.9603-11.1088.9447-2.5415 3.0139-7.9188 4.4308-11.523.118-.12 0-.238-.1762-.238zm-116.8249 0c-3.4861 0-5.2592-.0581-9.4557-.1181-.118 0-.178.118-.2361.2362l-.4723 2.0092c0 .178.058.2961.2942.2961 2.4834-.118 5.4373-.2362 8.155-.2961.06 2.9557.06 7.2103.06 9.5137 0 3.0738-.06 7.0923-.1781 11.3469 0 .1761.06.296.2361.296H46.33c.118 0 .2362-.1199.2362-.296-.0581-4.1947-.0581-7.8588-.0581-11.3469 0-1.1807 0-5.6715.058-9.5137 2.5997.06 5.2011.178 7.9188.2961.1181 0 .2362-.0581.2362-.2362l.4723-2.0092c.06-.178-.06-.2961-.178-.2961-4.2528.06-6.7943.118-10.2804.118zM87.2227 33.683c.0582.1761.1762.296.2943.296h3.4861c.1781 0 .2962-.1199.1781-.296-1.8911-4.0766-3.9003-8.6873-5.0811-11.523-2.3054-5.3192-3.31-8.095-4.4327-11.2269-.06-.12-.178-.238-.3542-.238h-3.8423c-.5304 0-.7665.118-.7665.5922 0 .3543.1761.5305.5304.5904.7684.1181 1.3588.4143 1.3588 1.4189 0 .5304-.2361 1.1807-.5304 1.891-1.0646 2.7178-1.9511 4.7851-2.8957 6.9724-1.1827 2.8357-3.192 7.4464-5.083 11.523-.0581.1761 0 .296.178.296h2.2454c.118 0 .2361-.1199.2961-.296.8266-2.1273 1.595-3.9604 2.3035-5.7915h9.6918c.7685 1.951 1.595 3.9603 2.4234 5.7915zM75.816 26.0004c.356-.8265.7103-1.653 1.0046-2.4815.8884-2.1273 1.715-4.1365 3.0157-7.2684 1.3588 3.1319 2.2435 5.1411 3.1319 7.2684.2942.8284.6485 1.655 1.0027 2.4815H75.816zm39.4158-13.5322c.5904-.058 1.4188-.118 2.2454-.118 3.428 0 5.6134 1.595 5.6134 5.3191 0 2.8958-1.535 5.1992-5.0811 5.1992-1.1227 0-2.2454-.1761-2.8377-.3542 0-1.9492.06-5.3173.06-10.046zm3.9584 12.1153c2.6015 3.9003 4.0784 5.9677 5.9096 7.6226 1.5369 1.3589 3.368 1.9493 5.4954 1.9493 1.655 0 3.368-.2362 3.368-.7685 0-.3542-.2942-.4123-1.1808-.5323-1.773-.2942-2.9557-.8265-5.023-2.6577-1.655-1.4769-3.5461-3.9003-5.3773-6.618 2.3054-1.2427 4.1946-3.5461 4.1946-6.56 0-5.023-4.845-6.3237-8.5672-6.3237h-7.9788c-.5304 0-.7666.118-.7666.5922 0 .3543.1762.5305.5304.5904 1.597.1181 1.833.8866 1.8912 2.8958.06 2.9538.06 5.1992.06 7.5626 0 3.0738 0 7.0923-.1781 11.3469 0 .1761.118.296.2961.296h3.132c.1761 0 .236-.1199.236-.296 0-3.3681-.0599-6.4419-.0599-9.2777 1.0646.1181 2.1273.2362 3.488.178h.5304zm-95.67 7.3265c-.06-3.25-.06-6.2038-.06-8.9815 1.5369.0581 4.2546.2962 6.3819.4124.178 0 .238-.0581.2961-.2362l.4723-2.0073c0-.1781-.058-.2962-.2361-.2962-2.4816.1181-4.5489.1762-6.9142.1762 0-1.9492 0-5.3173.06-8.3311 1.9492.058 4.1365.2942 6.9141.4723.1762 0 .2362-.0581.2943-.2362l.4723-2.0092c0-.178-.058-.2961-.2361-.2961-3.132.06-5.6716.118-8.4492.118H18.261c-.5323 0-.7685.1182-.7685.5923 0 .3543.178.5305.5323.5904 1.6531.1181 1.8912.8866 1.9493 2.8958.06 2.9538.06 5.1992.06 7.5626 0 3.0738-.06 7.0923-.1781 11.3469 0 .1761.06.296.2361.296h3.192c2.5995 0 5.1991.0582 7.9768.0582.178 0 .2362-.0581.2961-.2362l.4124-2.0092c.06-.1762 0-.2961-.1762-.2961-3.1919.2361-6.0876.3561-8.273.4142zM9.7518 10.9332c0-.12-.118-.238-.2961-.238H4.2546c-.5304 0-.7666.118-.7666.5922 0 .3543.1762.5305.5323.5904 1.713.1781 2.0673.7085 2.1273 2.8958.0581 2.9538.0581 5.1992.0581 7.5626 0 4.3746 0 7.5065-.0581 10.5184-.06 4.5508-.2961 7.3884-1.4188 9.5738C2.6015 46.5068 0 46.5068 0 47.2734c0 .356.2961.5922.5923.5323 1.1227-.2362 9.0995-3.19 9.0995-14.0627 0-3.8422-.058-7.0922-.058-11.4068 0-1.4169.058-7.1484.118-11.403" fill="#00063f"/></g></svg>