<?xml version="1.0"?>
<svg width="168.33" height="38.866001" viewBox="0 0 168.33 38.866001" xmlns="http://www.w3.org/2000/svg">
  <path
     d="m 50.5292,27.79079 c 1.5822,-0.9041 2.5891,-2.6097 2.5891,-4.6851 0,-4.6029 -3.3083,-6.1235 -9.1647,-6.1235 H 33.782 v 15.5964 h 4.9933 v -3.2672 h 5.1988 c 0.7809,0 1.5206,-0.0411 2.1988,-0.1233 0.9246,0.9041 1.726,2.3631 2.0548,3.37 h 5.1783 c -0.5548,-1.6645 -1.6439,-3.6371 -2.8768,-4.7673 z m -6.329,-2.0754 h -5.4249 v -5.1372 h 5.4249 c 2.6302,0 4.1303,0.4726 4.1303,2.5275 -0.0206,2.0754 -1.5001,2.6097 -4.1303,2.6097 z"
     fill="#da0e29" />
  <path
     d="m 29.7545,16.98219 h -4.9934 v 15.5964 h 4.9934 z"
     fill="#da0e29" />
  <path
     d="m 69.9887,16.98219 h -4.9933 v 15.5964 h 4.9933 z"
     fill="#da0e29" />
  <path
     d="m 125.9426,16.98219 h -4.993 v 15.5964 h 4.993 z"
     fill="#da0e29" />
  <path
     d="m 107.9416,16.98219 h -9.863 v 15.5964 h 9.863 c 5.795,0 10.069,-2.6096 10.069,-7.8085 0,-5.1988 -4.274,-7.7879 -10.069,-7.7879 z m -0.595,11.8771 h -4.275 v -8.1578 h 4.275 c 3.719,0 5.692,1.3151 5.692,4.0686 0,2.7536 -1.973,4.0892 -5.692,4.0892 z"
     fill="#da0e29" />
  <path
     d="m 89.2636,24.09199 c -2.98,-3.3288 -6.5758,-5.733 -11.0348,-7.1098 h -4.2331 v 15.5964 h 4.7879 v -10.5414 c 4.5618,1.4795 8.774,6.1235 10.85,10.5414 h 4.397 v -15.5964 h -4.788 v 7.1098 z"
     fill="#da0e29" />
  <path
     d="M 7.9113,16.98219 C 4.6235,20.70149 0,26.96889 0,32.57859 h 4.9728 c 0,-0.8425 0.1028,-1.7055 0.3082,-2.548 h 11.3223 c 0.2055,0.863 0.3083,1.7055 0.3083,2.548 h 4.9727 c 0,-5.6097 -4.6234,-11.8771 -7.9112,-15.5964 z m -1.5001,9.7606 c 1.2124,-2.6508 2.9796,-5.1166 4.5207,-6.9043 1.5412,1.7877 3.3083,4.2535 4.5207,6.9043 z"
     fill="#da0e29" />
  <path
     d="m 142.7926,16.98219 h -6.062 c -3.288,3.7193 -7.911,9.9867 -7.911,15.5964 h 4.973 c 0,-0.8425 0.102,-1.7055 0.308,-2.548 h 11.322 c 0.206,0.863 0.308,1.7055 0.308,2.548 h 4.973 c 0,-5.6303 -4.623,-11.8771 -7.911,-15.5964 z m -7.562,9.7606 c 1.212,-2.6508 2.98,-5.1166 4.521,-6.9043 1.541,1.7877 3.308,4.2535 4.52,6.9043 z"
     fill="#da0e29" />
  <path
     d="m 168.2116,26.84559 c 0.411,-3.0412 -0.329,-5.6715 -0.946,-7.3976 -0.431,-1.2123 -0.78,-2.1781 -1.089,-3.0412 -1.397,-3.9247 -1.664,-4.644 -2.63,-8.5687001 l -0.329,-1.2946 -1.274,-0.411 c -3.863,-1.2534 -4.541,-1.5617 -8.363,-3.2672 -0.842,-0.3699 -1.788,-0.8014 -2.959,-1.3151 -1.377,-0.59590003 -3.473,-1.41790003 -6,-1.50010003 -3.884,-0.1438 -7.603,1.43840003 -11.076,4.68510003 l 0.062,-0.0205 c -0.884,0.7808 -1.788,1.685 -2.713,2.7329 0,0 0.021,0.0617 0.226,-0.1027 1.213,-0.9863 5.179,-4.6851 15.967,0.1644 5.301,2.3836 10.397,4.5001001 10.397,4.5001001 0,0 1.665,5.2399 3.576,10.747 3.883,11.1579 -0.144,14.795 -1.233,15.9046 -0.165,0.185 -0.103,0.2055 -0.103,0.2055 1.562,-1.1302 2.815,-2.2603 3.863,-3.37 2.63,-2.6507 4.192,-5.5481 4.624,-8.6509 z"
     fill="url(#def1)"
     style="fill:url(#def1)" />
  <path
     d="m 163.2386,6.5023899 -1.274,-0.411 c -3.863,-1.2534 -4.541,-1.5617 -8.363,-3.2672 -0.843,-0.3699 -1.788,-0.8014 -2.959,-1.3151 -1.377,-0.59590003 -3.473,-1.41790003 -6.001,-1.50010003 -3.883,-0.1438 -7.603,1.43840003 -11.075,4.68510003 l 0.061,-0.0205 c -0.883,0.7808 -1.787,1.685 -2.712,2.7329 0,0 0.02,0.0617 0.226,-0.1027 1.212,-0.9863 5.178,-4.6851 15.966,0.1644 5.302,2.3836 10.398,4.5001001 10.398,4.5001001 z"
     fill="#fed9a0" />
  <defs
     id="defs13">
    <linearGradient
       id="def1"
       x1="198.42"
       y1="71.185402"
       x2="157.52901"
       y2="15.5605"
       gradientUnits="userSpaceOnUse"
       gradientTransform="translate(-15.5964,-15.58741)">
      <stop
         offset="0.1805"
         stop-color="#FED9A0" />
      <stop
         offset="0.3124"
         stop-color="#ECC890" />
      <stop
         offset="0.5738"
         stop-color="#BF9A66" />
      <stop
         offset="0.7464"
         stop-color="#9E7947" />
    </linearGradient>
  </defs>
</svg>