<svg width="716" height="120" viewBox="0 0 716 120" fill="none" xmlns="http://www.w3.org/2000/svg">
<g clip-path="url(#clip0_2535_13321)">
<path d="M509.496 102.713C509.458 102.958 509.479 103.208 509.556 103.443C509.633 103.678 509.764 103.892 509.939 104.067C510.114 104.242 510.328 104.374 510.564 104.451C510.799 104.528 511.049 104.549 511.294 104.511H524.764V44.5741H520.663C517.986 44.4499 515.366 45.3656 513.349 47.1294C511.332 48.8933 510.076 51.3688 509.843 54.0378C505.899 46.8139 498.202 43.3438 489.085 43.3438C473.47 43.3438 459.78 55.9621 459.78 75.5205C459.78 94.2587 469.622 106.057 487.161 106.057C499.779 106.057 505.048 100.284 505.048 94.6372C505.123 93.4921 504.934 92.345 504.497 91.2841C504.059 90.2232 503.384 89.2767 502.524 88.5173C501.021 89.8882 499.258 90.9435 497.34 91.6208C495.422 92.2982 493.387 92.5837 491.357 92.4605C483.439 92.4605 476.341 88.0126 476.341 75.5205C476.341 63.6593 484.511 57.7602 493.029 57.7602C503.975 57.7602 509.496 64.858 509.496 75.1735V102.713ZM605.332 30.7571L633.723 104.511H617.508C616.922 104.567 616.337 104.4 615.869 104.044C615.401 103.687 615.085 103.167 614.984 102.587L592.524 41.1987L580.505 73.8801H588.328C595.521 73.8801 598.297 76.6246 599.969 81.0725L602.019 86.4984C602.492 87.6971 602.019 88.5173 600.789 88.5173H575.111L569.338 104.511H554.448C554.192 104.545 553.931 104.508 553.694 104.404C553.457 104.301 553.253 104.135 553.104 103.924C552.955 103.713 552.866 103.465 552.847 103.207C552.828 102.949 552.88 102.691 552.997 102.461L579.559 33.0599C582.303 25.8675 585.868 23.5962 592.177 23.5962H605.363C606.341 23.5962 606.688 24.1009 606.688 24.7003C606.688 26.0252 604.764 26.3722 604.764 28.4227C604.829 29.2259 605.02 30.0138 605.332 30.7571ZM376.656 102.713C376.619 102.958 376.64 103.208 376.717 103.443C376.794 103.678 376.925 103.892 377.1 104.067C377.275 104.242 377.489 104.374 377.724 104.451C377.96 104.528 378.21 104.549 378.455 104.511H391.893V44.5741H387.824C385.147 44.4499 382.527 45.3656 380.51 47.1294C378.493 48.8933 377.237 51.3688 377.003 54.0378C373.06 46.8139 365.363 43.3438 356.246 43.3438C340.474 43.3438 326.94 55.9621 326.94 75.5205C326.94 94.2587 336.783 106.057 354.322 106.057C366.94 106.057 372.209 100.284 372.209 94.6372C372.284 93.4921 372.095 92.345 371.658 91.2841C371.22 90.2232 370.545 89.2767 369.685 88.5173C368.182 89.8882 366.419 90.9435 364.501 91.6208C362.583 92.2982 360.548 92.5837 358.518 92.4605C350.6 92.4605 343.502 88.0126 343.502 75.5205C343.502 63.6593 351.672 57.7602 360.19 57.7602C371.136 57.7602 376.656 64.858 376.656 75.1735V102.713ZM305.994 46.593C306.416 45.8433 307.054 45.2379 307.825 44.8554C308.595 44.4729 309.463 44.3309 310.316 44.4479H327.729L302.019 73.1545L328.328 104.511H310.474C309.618 104.621 308.75 104.472 307.979 104.084C307.209 103.696 306.573 103.087 306.152 102.334L286.436 78.2019V104.511H272.997C272.752 104.549 272.502 104.528 272.267 104.451C272.032 104.374 271.818 104.242 271.643 104.067C271.468 103.892 271.336 103.678 271.259 103.443C271.182 103.208 271.162 102.958 271.199 102.713V31.1041C271.216 28.1475 272.397 25.3167 274.488 23.226C276.579 21.1353 279.41 19.9534 282.366 19.9369H286.436V68.7066L305.994 46.593ZM233.944 30.8202L262.335 104.574H246.215C245.629 104.63 245.044 104.464 244.576 104.107C244.108 103.75 243.792 103.23 243.691 102.65L221.231 41.1987L209.212 73.8801H217.035C224.227 73.8801 227.004 76.6246 228.675 81.0725L230.726 86.4984C231.199 87.6971 230.726 88.5173 229.527 88.5173H203.817L198.045 104.511H183.155C182.899 104.545 182.638 104.508 182.401 104.404C182.164 104.301 181.96 104.135 181.811 103.924C181.661 103.713 181.572 103.465 181.554 103.207C181.535 102.949 181.587 102.691 181.704 102.461L208.265 33.0599C211.01 25.8675 214.574 23.5962 220.884 23.5962H234.101C235.048 23.5962 235.395 24.1009 235.395 24.7003C235.395 26.0252 233.502 26.3722 233.502 28.4227C233.523 29.2224 233.683 30.0124 233.975 30.7571L233.944 30.8202ZM670.663 55.6782V102.713C670.625 102.958 670.646 103.208 670.723 103.443C670.8 103.678 670.931 103.892 671.107 104.067C671.282 104.242 671.495 104.374 671.731 104.451C671.966 104.528 672.216 104.549 672.461 104.511H685.899V74.6056C685.766 72.4909 686.067 70.3711 686.785 68.3775C687.504 66.384 688.623 64.559 690.075 63.0155C691.527 61.472 693.28 60.2428 695.226 59.404C697.172 58.5652 699.269 58.1345 701.388 58.1388C703.72 58.0181 706.051 58.3833 708.234 59.2113C709.583 56.5625 710.367 53.662 710.537 50.694C710.537 47.0978 708.612 43.7224 702.114 43.7224C695.615 43.7224 689.496 47.8233 685.899 56.3407V44.4479H681.83C680.342 44.3603 678.852 44.5894 677.46 45.12C676.067 45.6507 674.802 46.4708 673.75 47.5263C672.697 48.5817 671.881 49.8484 671.354 51.2428C670.827 52.6372 670.602 54.1274 670.694 55.6151L670.663 55.6782ZM642.555 55.6782C642.572 52.7216 643.754 49.8908 645.845 47.8001C647.935 45.7094 650.766 44.5276 653.723 44.511H657.792V104.448H644.354C644.109 104.485 643.859 104.465 643.623 104.388C643.388 104.311 643.174 104.179 642.999 104.004C642.824 103.829 642.693 103.615 642.616 103.38C642.539 103.145 642.518 102.895 642.555 102.65V55.6782ZM400.631 93.817C400.631 101.735 414.574 105.836 425.868 105.836C440.631 105.836 452.776 98.8643 452.776 86.3722C452.776 77.1293 448.108 71.7034 436.814 68.959L424.196 65.8044C421.041 64.9527 419.149 63.6277 419.149 60.6309C419.149 57.634 422.145 55.9306 427.918 55.9306C434.667 56.0144 441.245 58.0645 446.846 61.8296C449.068 59.6937 450.474 56.8483 450.821 53.7855C450.821 47.0662 439.78 43.0915 427.634 43.0915C414.669 43.0915 402.776 49.5899 402.776 62.0189C402.776 71.4826 407.477 77.2555 418.045 79.653L431.01 82.8075C434.354 83.5015 436.278 84.9527 436.278 87.7287C436.278 91.1987 433.407 92.9968 426.436 92.9968C418.524 92.731 410.858 90.19 404.354 85.6782C402.111 87.8108 400.778 90.726 400.631 93.817ZM650.379 16.6877C647.869 16.6877 645.462 17.6847 643.687 19.4595C641.912 21.2343 640.915 23.6415 640.915 26.1514C640.915 28.6613 641.912 31.0685 643.687 32.8433C645.462 34.618 647.869 35.6151 650.379 35.6151C651.645 35.6531 652.906 35.4364 654.088 34.9779C655.269 34.5193 656.346 33.8283 657.255 32.9457C658.164 32.0631 658.887 31.0069 659.38 29.8398C659.873 28.6727 660.127 27.4184 660.126 26.1514C660.127 24.8843 659.873 23.6301 659.38 22.463C658.887 21.2959 658.164 20.2397 657.255 19.3571C656.346 18.4745 655.269 17.7834 654.088 17.3249C652.906 16.8664 651.645 16.6497 650.379 16.6877Z" fill="#5C0FD9"/>
<path d="M0.473557 116.972L44.6376 42.0505C45.3631 40.8517 45.8363 40.347 46.5619 40.347C47.2874 40.347 47.7922 40.9779 48.3915 41.9243C53.8593 51.139 56.757 61.6511 56.7827 72.3659C56.7827 100.473 34.7007 119.874 2.90258 119.874C2.30321 119.874 0.000371121 119.874 0.000371121 118.423C-0.00895388 117.9 0.157686 117.389 0.473557 116.972Z" fill="#FF6300"/>
<path d="M101.672 47.6341L140.347 116.719C141.325 118.423 140.726 119.874 138.297 119.874C109.906 119.874 96.7196 109.211 86.0571 90.1577L56.2464 36.8454C54.8112 34.7185 53.9724 32.2457 53.8174 29.6845C54.123 26.5249 55.2068 23.4902 56.972 20.8517L60.7259 14.1956C66.0571 4.35331 71.8616 0 85.5524 0H95.2685C96.7196 0 96.8458 1.1041 96.1202 1.92429C92.752 5.96384 91.0189 11.1184 91.2622 16.3722C91.2622 23.6278 93.9436 33.6909 101.672 47.6341Z" fill="#FF6300"/>
</g>
<defs>
<clipPath id="clip0_2535_13321">
<rect width="710.58" height="120" fill="white"/>
</clipPath>
</defs>
</svg>
