<svg xmlns="http://www.w3.org/2000/svg" viewBox="0 0 470.86 137.71"><defs><style>.cls-1{fill:#cd2730;}.cls-2{fill:#e58036;}</style></defs><title>Air India</title><g id="Layer_2" data-name="Layer 2"><g id="Layer_1-2" data-name="Layer 1"><path class="cls-1" d="M202.91,0H179.33L99.68,62c-16,11.31-30.1,22.27-40.43,24.89-14.06,3.58-32.33,5.6-59.25,5a199.5,199.5,0,0,0,19.78,3.25c22.07,2.78,37.92,10.25,51.3,20,8.81,6.43,14.23,12,20.49,15.72a51.51,51.51,0,0,0,24.62,6.83,92.56,92.56,0,0,0,22.95-2.78A101.88,101.88,0,0,1,116,133.26c-6.75-1.43-21.09-6.51-22.71-14.77-1.55-7.9,18.24-14,26.05-15.09a210,210,0,0,1,43.76-1.67c-8.34-3.25-10.65-7.22-10.65-10.64s2.39-6.67,3.82-9.13Z"/><path class="cls-2" d="M146.13,29.74c6.35-6,24.48-21.37,27.47-23.71-1.86,1.38-9.85,6.9-17.5,12l-33.16,25.8c-.14.14-.27.29-.41.44l.68.89C132.58,40.31,139.38,36.14,146.13,29.74Zm38.14-4.64.35-.13Zm-60,21.69.39,1.05c10.39-1.92,18.11-3.92,26.43-8.08,7.83-3.92,29.65-13.3,33.19-14.66-3.57,1.27-26.22,8.41-34.71,10.56C140.54,37.94,133.38,41.47,124.26,46.79ZM109.5,61.36c-5.74,8.87-9.59,15.86-12.28,24.76-2.54,8.39-10.71,30.68-12.15,34.19,1.53-3.47,11.9-24.83,16.17-32.48,4.54-8.12,6.89-15.74,9.29-26Zm-24.43,59-.14.34Zm31.06-58-1.12.13c-.6,10.55-.48,18.53,1.58,27.6.7,3.08,1.66,8.1,2.62,13.43l.08,0,2.17-.3c-.29-5.39-.51-10.47-.53-13.61C120.85,80.18,119.13,72.4,116.13,62.26ZM54.83,96.89l-.29.22ZM105.9,58.62l-.68-.89-.37.19-5.17,4c-7.93,5.6-15.38,11.11-22.15,15.57-8,7.1-20.28,17.48-22.7,19.37C57.88,94.62,77.46,81.19,85,76.65,92.91,71.84,98.73,66.38,105.9,58.62ZM173.6,6l.29-.22Zm-61.41,56.2C108.91,72.28,107,80,106.65,89.32c-.14,4-.67,11.07-1.26,18,.64-.25,1.28-.5,1.93-.73,1.32-6.45,2.71-12.93,3.66-16.61,2.3-9,2.63-17,2.32-27.55Zm12.29-6.9-.45,1c8.76,5.9,15.67,9.88,24.52,12.74,2.93.94,7.54,2.61,12.46,4.44l1.15-2c-4.72-2.48-9.13-4.85-11.82-6.42C142.3,60.42,134.73,57.93,124.48,55.33Zm27.88-9.87c-9.3-.1-17.12,1.48-27.31,4.29l.11,1.11c10.54.8,18.52.84,27.63-1,5.14-1.07,15.63-2.75,24-4l.61-1.06C168.84,45.12,157.76,45.52,152.36,45.46ZM123.15,57.83l-.7.87c7,8,12.62,13.57,20.45,18.6,2.69,1.72,6.94,4.68,11.42,7.85.38-.69.78-1.35,1.16-2-3.95-3.62-7.63-7.07-9.84-9.28C139.07,67.31,132.39,63,123.15,57.83Zm2-5.25-.18,1.1c10,3.47,17.69,5.55,27,6,3.65.19,9.87.77,16.16,1.41l1-1.77c-6.4-1.44-12.81-2.95-16.46-3.95C143.66,52.94,135.7,52.46,125.13,52.58Zm-3.91,7.32-.9.67c4.69,9.46,8.74,16.34,15,23.21,3.34,3.65,9.59,11.13,14.8,17.49h1.43c-4.6-7-10.14-15.65-12.71-20.09C134.19,73.14,128.84,67.22,121.22,59.9ZM108,60.51l-.88-.69C99.31,66.93,93.8,72.7,88.92,80.62c-4.6,7.46-18.2,26.92-20.49,29.95,2.36-3,17.85-21,23.94-27.27C98.83,76.61,103.06,69.84,108,60.51ZM68.43,110.57l-.23.29Zm50.4-49.15-1,.41c2.12,10.35,4.27,18,8.59,26.27,1.61,3.08,4.12,8.34,6.65,13.79l2.12-.15c-1.93-5.92-3.76-11.77-4.71-15.24C128,77.53,124.32,70.44,118.83,61.42Z"/><path class="cls-1" d="M466.14,85.39,455.81,104.2H444l9.82-17.72s1.2-1.88-.31-1.88h-4c-1.2,0-2,1.45-2,1.45L438,103.47H426.33l2.83-4.65s.51-1.52-1.7-1.52H403.08c-3.59,0-.75-4.21-.75-4.21l2.89-5.23h11.15c1.77,0,3.66-3.26,1.33-3.26h-7.12l1.52-2.19h58.74l0,3Zm-30.43-.5h-4.34a1.25,1.25,0,0,0-1.26.72l-2,3.41a2.11,2.11,0,0,1-1.7,1.24H415.3L414,92.58s-1.32,2.25,1,2.25H431.3L436,86.56S437,84.89,435.71,84.89Zm-29.1-.37h-3.39L400.75,89s-.46,1-2.29,1H383.18c-1.55,0-2.33,2.64-.22,2.64h12.71c3.3,0,1.79,2.63,1.79,2.63l-3,5.48a4.35,4.35,0,0,1-4,2.11H367.27c-3.67,0-2.43-3.16-2.43-3.16l.91-1.58h12s-1.47,2.53.18,2.53h3.84c1.05,0,1.79-1.21,1.79-1.21l1.32-2.8s.51-1.58-1.64-1.58H370.74c-2.88,0-1.65-2.32-1.65-2.32l1.65-2.84s.87-2,4-2h15.46l1.65-3.37H367.72L357,102.76H344.85l11.34-18.35h-2.74l1.37-2.32h2.75l2.74-4.21s.37-1.48,3.48-1.48h41.35c1.88,0,2.75,1.11,2,2.48s-2,3.53-2,3.53H408Zm-14.09-5.91H372.07a1.91,1.91,0,0,0-1.74,1.32l-1.14,2.22H393l.87-2S394.53,78.61,392.52,78.61Zm-52.69.46,1.6-2.57H353l-1.14,2.57ZM351,84.49h-2.48l-2.33,4.06a2.93,2.93,0,0,1-2.48,1.13H327.72c-.93,0-2.38,2.68-.2,2.68h13.86c2.95,0,1.14,2.33,1.14,2.33l-4.14,6.68a3.67,3.67,0,0,1-2.84,1.61h-16l-1.24,2.56h-7.76l1.39-2.62s-2.84-.3-1.91-2.92c1-2,1.34-2.63,1.34-2.63h11.08l-.32,1.43s-.62,1.67.88,1.67h3.57c1,0,1.87-1.19,1.87-1.19l1.5-2.44a1.35,1.35,0,0,0-1.4-2H314.94c-2.06,0-1.34-2-1.34-2L315.67,89A3.7,3.7,0,0,1,319,87.3h16.4l1.19-2.15s.1-.54-1-.54H318.77l1.5-2.44h32.08Zm-49.67,9.6,1.76-3h4.4l-1.81,3Zm-4-9.6L293.47,91s-1.14,2-2.59,2h-3.26a2.59,2.59,0,0,1-.05,2.8c-1,1.31-1.81,2.33-1.81,2.33s-1.55,2.17,1.35,2.17h5.2l-1.43,2H275.31c-2.53,0-2-3.34-1.14-4.41A16.5,16.5,0,0,0,276,95.17c1.4-2.27-1.44-2.51-1.44-2.51L275.62,91h6.47l4.09-6.44h-4.4l1.29-2.2h20.18l-1.34,2.14Zm-24.89.06L262,102.14h-11.9l5.58-9.3h-4.86l1.24-2.26h4.76l4-5.85h-4.4l1.65-2.38h20.49l-1.6,2.2ZM250.11,89.8s-.72,1.31-1.6,1.31h-1.4l-.1.54s1.55.89.21,3.1-3.37,5.19-3.37,5.19-1.39,2.14-5.17,2.14H216.54c-2.49,0-1.3-2.92-1.3-2.92l.47-1.61h11.38s-1,2.45,1.4,2.45h2.64a2.08,2.08,0,0,0,1.91-.9l3-4.83s.6-1.37-2-1.37h-5.9l1.29-2.44h8.8l2.89-4.12s1.25-2.15-1.55-2.15h-2.74c-1.19,0-2,1.59-2,1.59L234,87.12H222.12l2-3A3,3,0,0,1,227,82.29h24.63c3.25,0,1.75,2.56,1.75,2.56ZM215.48,84l-5.89,9.67A5.32,5.32,0,0,1,204.77,96H193.25l1.36-2.21H196a2.42,2.42,0,0,0,2.2-1l5.48-8.54h-6.58L188.85,97s-2,2.53,1.49,2.53h17.45a2.1,2.1,0,0,1,2.31,2.74l-.45,2H196.81a1.56,1.56,0,0,0-1.64-2.22h-15.5c-5.56,0-2.89-4.43-2.89-4.43L185.46,84h-6.19l1.37-1.94h41.7L221.07,84Z"/><path class="cls-1" d="M180,117.51l-17.1,20.2h16.86l2.41-2.87h7.06l-1,2.87h15.52l5.67-20.2ZM190.58,131h-5.2l9-10.76Zm26.32-13.49-10.53,20.2h16.86l10.36-20.2Zm52,0H237.43l-10.54,20.2h16.86l3.43-6.74a1.76,1.76,0,0,1,1.53,1l3.26,5.66h15.35l-3.87-7c4.22,0,5.1-1.7,5.1-1.7l4.11-7C273.71,119.85,272.85,117.51,268.88,117.51Zm-12.68,7-.95,2.17c-.42.83-1,1.16-2.58,1.16h-3.78l2.47-5.33H255C256.86,122.5,256.47,123.84,256.2,124.51Zm39.93-7-10.53,20.2h16.85l10.37-20.2Zm45.84,0-3.16,6.08-4.42-6.08h-17l-10.53,20.2h13l4.06-7.9,5.15,7.9h15.34l10.37-20.2Zm49.94,0H360.45l-10.53,20.2h33.21c4.22,0,5.1-1.7,5.1-1.7l7.45-14.18C396.73,119.85,395.88,117.51,391.91,117.51Zm-12.68,7-4,6.94c-.42.82-1,1.15-2.57,1.15h-3.79l5.53-10.09h3.66C379.89,122.5,379.5,123.84,379.23,124.51Zm23.17-7-10.53,20.2h16.86l10.36-20.2Zm26.2,0-17.1,20.2h16.86l2.41-2.87h7.06l-1,2.87h15.52l5.67-20.2ZM439.19,131H434l9-10.76Z"/></g></g></svg>