<?xml version="1.0" encoding="utf-8"?>
<!-- Generator: Adobe Illustrator 21.1.0, SVG Export Plug-In . SVG Version: 6.00 Build 0)  -->
<svg version="1.1" id="Layer_1" xmlns="http://www.w3.org/2000/svg" xmlns:xlink="http://www.w3.org/1999/xlink" x="0px" y="0px"
	 viewBox="0 0 2551.2 680.3" style="enable-background:new 0 0 2551.2 680.3;" xml:space="preserve">
<style type="text/css">
	.st0{fill-rule:evenodd;clip-rule:evenodd;fill:#FCAF17;}
	.st1{fill:#00043D;}
</style>
<path class="st0" d="M2270.7,239.6c1.1-22.4-3.7-41.6-15.1-55.2c-34.6-41-116.9-13.7-183.7,61.1c-66.9,74.8-93,168.7-58.5,209.8
	c34.6,41,116.8,13.6,183.7-61.1c10.7-12,20.4-24.5,28.9-37.2l-110.3-11.2l159.5-20.4l-175.9-25.1l213.2-22.1l-174-17.9L2270.7,239.6
	z"/>
<path class="st1" d="M1855.5,239.7c12.7,0,24.3,3.9,32,3.6c2.1-0.1,3.9,0.1,3.9,3.4c0,0.7-0.2,1.1-0.2,2.1c0,3.9,1.9,12.2,1.9,23.3
	c0,4.1-1,5.6-4.4,5.6c-3.2,0-3.9-2.1-4.4-4.9c-1-6.5-2.1-9.5-5.4-13c-5.5-5.9-13.9-8.5-25.6-8.5c-19.6,0-30.1,11.8-29.4,26
	c0.9,16.2,13.9,24.8,36.7,38.6c31.7,19.2,41,31.6,41,52.9c0,23.1-17.8,48.7-62.8,48.7c-11.4,0-22.6-1.8-32.3-6
	c-4.2-1.9-4.5-2.8-4.7-10.3c-0.3-9-0.4-21,0.4-25.4c0.5-2.6,1.1-4.1,4.3-4.1c2.6,0,4,1.2,4.3,4.6c0.2,2.1,0.5,6.7,1.5,10.3
	c4.8,17.3,21.1,19.6,32.4,19.6c22.4,0,35.2-13.9,35.2-28.6c0-18.7-10.6-28.5-41-45.6c-30-17-36.1-34.5-35.7-50
	C1804,256.3,1823.4,239.7,1855.5,239.7z M980.1,328.6c0-10.1,0.4-52.4,0.6-83.2c0-1.1-0.6-1.9-1.9-1.9h-36.4c-4,0-5.6,1.1-5.6,4.5
	c0,2.5,1.3,3.9,3.8,4.1c12,1.1,13.6,6.5,14,21.2c0.6,21.6,0.6,38,0.6,55.3c0,22.5-0.3,51.7-1.2,83.2c0,1.1,0.6,1.9,1.9,1.9h23
	c1.3,0,1.9-0.8,1.9-1.9C980.4,381,980.1,354.1,980.1,328.6z M1672.6,323.7c4.5,7,8.6,13.2,12.3,18.9c-0.1,20.1-0.4,43.9-1.2,69.2
	c0,1.1,0.6,1.9,1.9,1.9h23c1.3,0,1.9-0.8,1.9-1.9c-0.3-25.3-0.5-48-0.5-69.4c19.3-30.8,41.7-65.3,62.7-96.7c0.8-1.2,0.3-2.3-1.1-2.3
	h-32.8c-4,0-5.6,1.1-5.6,4.5c0,2.5,1.3,3.7,3.8,4.1c7,1.2,8.7,5.8,4.8,12.3c-12.2,20.2-25.3,41.4-38.5,62.2
	c-3.6-5.6-6.9-10.9-10.6-16.5c-13.9-21.4-25.9-40.2-41.5-64.8c-0.9-1.4-1.3-1.9-3.2-1.9h-26.9c-1.4,0-1.9,1-1.1,2.3
	C1639.2,273.1,1660.3,304.8,1672.6,323.7z M1589.4,411.8c0.5,1.1,1.2,1.9,2.5,1.9h25.5c1.2,0,1.8-0.7,1.3-1.8
	c-13.8-29.9-28.7-63.7-37.4-84.4c-16.6-39.1-24.2-59.2-32.5-82.1c-0.4-1.1-1.2-1.9-2.5-1.9h-28.2c-3.9,0-5.6,1.1-5.6,4.5
	c0,2.5,1.3,3.8,3.8,4.1c5.9,0.8,10,3.2,10,10.5c0,4-1.7,8.7-3.7,13.7c-7.9,20.1-14.4,35.2-21.1,51.1c-8.8,20.7-23.6,54.2-37.3,84.3
	c-0.5,1.1,0,1.9,1.3,1.9h16.1c1.3,0,2.1-0.8,2.5-1.9c6.1-15.5,11.5-29.2,16.6-42.3c14.2-0.3,25-0.4,35.4-0.4
	c10.4,0,21.3,0.1,35.5,0.4C1577.7,383.7,1583.6,398.1,1589.4,411.8z M1506.4,355.5c2.4-6.1,4.8-12.2,7.3-18.3
	c6.2-15.3,12.4-30.1,21.8-53.3c9.9,23.1,16.2,37.9,22.7,53.3c2.5,5.9,5.1,12,7.7,18.3c-10.6,0.1-19.8,0.2-29.7,0.2
	C1526.4,355.7,1517.1,355.6,1506.4,355.5z M1420.4,243.5c-3.9,0-5.8,1-5.8,4.4c0,2.5,1.5,3.7,4,4.2c7.4,1.5,9.1,7.4,6.6,14.7
	c-6.6,19.1-12.3,35.8-18.4,53.2c-5.1,14.6-10.2,29-17.8,50.4c-8.4-22.1-13.2-35.1-19.1-50.4c-9.1-23.5-16.3-42.9-27.1-71.6
	c-1.2-3-2.1-4.9-5.3-4.9c-2.9,0-3.9,1.9-5,4.9c-10.5,28.7-17.5,48-26.2,71.6c-5.4,14.6-10.8,29-18.7,50.4
	c-8-22.1-12.6-35.1-18.1-50.4c-8.6-23.5-16.6-45.9-26.8-74.6c-0.4-1.1-1.2-1.9-2.5-1.9h-24.5c-1.3,0-1.8,0.7-1.3,1.8
	c11.6,29.1,24.7,63.7,32.3,84.5c14.3,39.1,21.3,56.8,29.7,81c1.5,4.1,2.5,6,5.4,6c3.4,0,4.7-3.4,5.7-6c7.3-20.1,24.4-65.1,30.7-81
	c4.4-11.3,9.1-23,14.6-36.5c6.1,14.7,8.6,21,14.5,36.5c15.1,39.1,22.4,56.8,31.4,81c1.5,4.1,2.6,6,5.6,6c3.4,0,4.5-3.3,5.5-6
	c6.9-20.1,23.1-65.1,28.9-81c6.9-18.6,22.1-58,32.8-84.4c0.5-1.1-0.1-1.9-1.3-1.9H1420.4z M565.6,243.5c-25.6,0-38.2-0.4-69-0.6
	c-1.1,0-1.5,0.5-1.8,1.7l-3.3,14.4c-0.3,1.4,0.4,2.4,1.9,2.3c18.1-0.8,40-1.7,59.7-2.3c0.5,21.6,0.3,52.6,0.3,69.6
	c0,22.5-0.3,51.7-1.3,83.2c0,1.1,0.6,1.9,1.9,1.9h23c1.3,0,1.9-0.8,1.9-1.9c-0.3-30.8-0.6-57.7-0.6-83.2c0-8.7,0.3-41.2,0.5-69.7
	c19,0.5,38.1,1.4,57.9,2.4c1.1,0,1.8-0.5,2.1-1.8l3.3-14.8c0.2-1.2-0.4-1.9-1.5-1.9C609.9,243.1,591.2,243.5,565.6,243.5z
	 M876.4,411.8c0.4,1.1,1.2,1.9,2.5,1.9h25.4c1.3,0,1.8-0.7,1.4-1.8c-13.8-29.9-28.6-63.7-37.4-84.4c-16.6-39.1-24.3-59.2-32.4-82.1
	c-0.4-1.1-1.2-1.9-2.5-1.9h-28.2c-4,0-5.6,1.1-5.6,4.5c0,2.5,1.3,3.8,3.8,4.1c5.9,0.8,10,3.2,10,10.5c0,4-1.7,8.7-3.7,13.7
	c-7.9,20.1-14.4,35.2-21.1,51.1c-8.8,20.7-23.5,54.2-37.3,84.3c-0.5,1.1,0.1,1.9,1.3,1.9h16.2c1.2,0,2-0.8,2.5-1.9
	c6.1-15.5,11.5-29.2,16.6-42.3c14.2-0.3,25.1-0.4,35.5-0.4c10.4,0,21.3,0.1,35.4,0.4C864.6,383.7,870.6,398.1,876.4,411.8z
	 M793.3,355.5c2.5-6.1,4.9-12.2,7.4-18.3c6.2-15.3,12.4-30.1,21.9-53.3c9.9,23.1,16.2,37.9,22.7,53.3c2.5,5.9,5.1,12,7.7,18.3
	c-10.6,0.1-19.8,0.2-29.6,0.2C813.3,355.7,804,355.6,793.3,355.5z M1081.5,256.5c4.2-0.5,10.3-0.9,16.2-0.9c25,0,41.3,11.6,41.3,39
	c0,21.2-11.6,37.9-37.3,37.9c-8.3,0-16.4-1.1-20.7-2.4C1081.1,315.8,1081.3,291.3,1081.5,256.5z M1110.5,345.1
	c18.8,28.4,29.6,43.8,43.3,56c11,9.8,24.3,14.1,40.1,14.1c11.8,0,24.6-1.8,24.6-5.6c0-2.4-2-2.9-8.8-4c-12.7-2-21.6-5.8-36.6-19.2
	c-12.3-10.9-25.9-28.7-39.3-48.5c16.7-9.1,30.7-26.1,30.7-48.2c0-36.5-35.5-46.1-62.5-46.1h-58.5c-4,0-5.6,1.1-5.6,4.5
	c0,2.5,1.3,3.9,3.8,4.1c12,1.1,13.6,6.5,14,21.2c0.6,21.6,0.5,38,0.5,55.3c0,22.5-0.3,51.7-1.3,83.2c0,1.1,0.6,1.9,1.9,1.9h23
	c1.2,0,1.8-0.8,1.8-1.9c-0.2-24.8-0.5-47.1-0.5-68.1c7.7,1.1,15.7,1.9,25.3,1.6C1107.7,345.3,1109.1,345.2,1110.5,345.1z
	 M410.4,398.5c-0.2-23.7-0.4-45-0.4-65.5c11.3,0.3,31.1,2,46.9,3c1.1,0.1,1.8-0.5,2.1-1.8l3.2-14.8c0.3-1.2-0.4-1.9-1.4-1.8
	c-18.3,0.6-33.3,1.2-50.8,1.3c0.1-14.3,0.3-39,0.5-61.2c14.4,0.4,30.3,2,50.8,3.5c1.1,0.1,1.8-0.5,2.1-1.8l3.2-14.8
	c0.3-1.2-0.3-1.9-1.4-1.9c-23,0.2-41.8,0.6-62,0.6h-30.9c-4,0-5.6,1.1-5.6,4.5c0,2.5,1.3,3.9,3.8,4.1c12,1.1,13.6,6.5,14,21.2
	c0.6,21.6,0.5,38,0.5,55.3c0,22.5-0.3,51.7-1.2,83.2c0,1.1,0.6,1.9,1.9,1.9h23c19.3,0,38.4,0.4,58.6,0.7c1.1,0,1.8-0.5,2.1-1.7
	l3.3-14.9c0.3-1.2-0.3-1.9-1.4-1.9C447.5,397.3,426.4,398.3,410.4,398.5z M309.6,245.4c0-1.1-0.6-1.9-1.8-1.9h-38
	c-4,0-5.6,1.1-5.6,4.5c0,2.5,1.3,3.9,3.8,4.1c12.3,1.2,15,5.1,15.4,21.2c0.6,21.6,0.7,38,0.7,55.3c0,32,0,55.1-0.5,77.2
	c-0.7,33.1-2.3,53.9-10.6,69.8c-15.4,29.8-34.3,29.9-34.3,35.6c0,2.3,2,4,4.2,3.6c8.4-1.5,66.6-23.1,66.6-102.9
	c0-28-0.5-52-0.5-83.4C309,318.5,309.4,276.2,309.6,245.4z"/>
</svg>
