<?xml version="1.0" encoding="utf-8"?>
<!-- Generator: Adobe Illustrator 19.2.1, SVG Export Plug-In . SVG Version: 6.00 Build 0)  -->
<svg version="1.1" id="layer" xmlns="http://www.w3.org/2000/svg" xmlns:xlink="http://www.w3.org/1999/xlink" x="0px" y="0px"
	 viewBox="0 0 652 652" style="enable-background:new 0 0 652 652;" xml:space="preserve">
<style type="text/css">
	.st0{fill:#001B94;}
</style>
<path id="Combined-Shape" class="st0" d="M604.1,307.8c0,2.8-2.2,5-5,5c-2.7,0-5-2.2-5-5s2.2-5,5-5
	C601.9,302.8,604.1,305,604.1,307.8z M589.2,292.8c0,2.8-2.2,5-5,5s-5-2.2-5-5c0-2.8,2.2-5,5-5S589.2,290.1,589.2,292.8z
	 M604.1,292.8c0,2.8-2.2,5-5,5c-2.7,0-5-2.2-5-5c0-2.8,2.2-5,5-5C601.9,287.8,604.1,290.1,604.1,292.8z M574.2,292.8
	c0,2.8-2.2,5-5,5c-2.7,0-5-2.2-5-5c0-2.8,2.2-5,5-5C572,287.8,574.2,290.1,574.2,292.8z M612.6,276.8c1.9,1.9,1.9,5.1,0,7.1
	c-1.9,1.9-5.1,1.9-7,0c-1.9-1.9-1.9-5.1,0-7.1C607.5,274.9,610.6,274.9,612.6,276.8z M625,266.9c1.9,1.9,1.9,5.1,0,7.1
	c-1.9,1.9-5.1,1.9-7,0c-1.9-1.9-1.9-5.1,0-7.1C619.9,264.9,623.1,264.9,625,266.9z M556.8,292.8c0,2.8-2.2,5-5,5c-2.7,0-5-2.2-5-5
	c0-2.8,2.2-5,5-5C554.6,287.8,556.8,290.1,556.8,292.8z M541.9,292.8c0,2.8-2.2,5-5,5s-5-2.2-5-5c0-2.8,2.2-5,5-5
	S541.9,290.1,541.9,292.8z M599.1,317.8c2.7,0,5,2.2,5,5c0,2.8-2.2,5-5,5c-2.7,0-5-2.2-5-5C594.1,320,596.4,317.8,599.1,317.8z
	 M544.4,367.6c0,2.8-2.2,5-5,5c-2.7,0-5-2.2-5-5c0-2.8,2.2-5,5-5C542.2,362.7,544.4,364.9,544.4,367.6z M529.5,352.7
	c0,2.8-2.2,5-5,5c-2.7,0-5-2.2-5-5c0-2.8,2.2-5,5-5C527.3,347.7,529.5,349.9,529.5,352.7z M544.4,352.7c0,2.8-2.2,5-5,5
	c-2.7,0-5-2.2-5-5c0-2.8,2.2-5,5-5C542.2,347.7,544.4,349.9,544.4,352.7z M514.6,352.7c0,2.8-2.2,5-5,5c-2.7,0-5-2.2-5-5
	c0-2.8,2.2-5,5-5C512.3,347.7,514.6,349.9,514.6,352.7z M539.4,377.6c2.7,0,5,2.2,5,5c0,2.8-2.2,5-5,5c-2.7,0-5-2.2-5-5
	C534.5,379.9,536.7,377.6,539.4,377.6z M599.1,332.7c2.7,0,5,2.2,5,5c0,2.8-2.2,5-5,5c-2.7,0-5-2.2-5-5
	C594.1,335,596.4,332.7,599.1,332.7z M599.1,350.2c2.7,0,5,2.2,5,5c0,2.8-2.2,5-5,5c-2.7,0-5-2.2-5-5
	C594.1,352.4,596.4,350.2,599.1,350.2z M566.8,330.2c0,2.8-2.2,5-5,5c-2.7,0-5-2.2-5-5c0-2.8,2.2-5,5-5
	C564.6,325.3,566.8,327.5,566.8,330.2z M575.3,314.2c1.9,1.9,1.9,5.1,0,7.1c-1.9,1.9-5.1,1.9-7,0c-1.9-1.9-1.9-5.1,0-7.1
	C570.2,312.3,573.3,312.3,575.3,314.2z M587.7,304.3c1.9,1.9,1.9,5.1,0,7.1c-1.9,1.9-5.1,1.9-7,0c-1.9-1.9-1.9-5.1,0-7.1
	C582.6,302.3,585.8,302.3,587.7,304.3z M555.4,336.7c1.9,1.9,1.9,5.1,0,7.1c-1.9,1.9-5.1,1.9-7,0c-1.9-1.9-1.9-5.1,0-7.1
	C550.3,334.7,553.4,334.7,555.4,336.7z M358.7,372.8c-11.6,9.8-25.2,14.8-40.8,14.8c-16.8,0-31.3-5.9-43.5-17.6
	c-12.1-11.9-18.2-26.3-18.2-43.3c0-17,6.1-31.4,18.2-43.3c12.2-12,26.7-18,43.5-18c9.9,0,18.6,1.6,26.2,4.9
	c7.5,3.2,15.1,8.6,22.7,16.2l0.6,0.6l-11.7,12.7l-0.7-0.6c-7.5-6.2-13.2-10.4-17.3-12.6c-6-3.2-12.6-4.7-19.8-4.7
	c-12.5,0-22.8,4.4-31.1,13.1c-8.3,8.7-12.5,19.3-12.5,31.6c0,12.2,4.2,22.7,12.5,31.5c8.3,8.7,18.7,13.1,31.1,13.1
	c11.5,0,21.3-3.3,29.2-10c8.3-6.9,12.5-15.7,12.7-26.5h-40.7v-16.4l59,0l0,10.8C378.2,347.3,371.7,361.8,358.7,372.8z M460.2,375.3
	c-8.3,8-18.3,12-29.9,12c-11.5,0-21.5-4-29.8-12c-8.3-8-12.5-18.2-12.5-30.4c0-12.2,4.1-22.3,12.3-30.2c8.3-8.1,18.3-12.1,29.9-12.1
	c11.5,0,21.5,4,29.8,12.1c8.5,8,12.7,18.1,12.7,30.2C472.7,357.2,468.6,367.3,460.2,375.3z M448.4,325.6c-4.7-4.9-10.7-7.4-18.1-7.4
	c-7.5,0-13.5,2.5-18.3,7.4c-4.6,4.8-6.9,11.2-6.9,19.3c0,7.9,2.4,14.3,7.1,19.3c4.7,4.9,10.7,7.4,18.1,7.4c7.4,0,13.4-2.5,18.1-7.4
	c4.7-4.9,7.1-11.3,7.1-19.3C455.5,337,453.1,330.6,448.4,325.6z M243.8,294c-1.7,1.9-4.1,2.8-7.2,2.8c-2.9,0-5.3-0.9-7.2-2.8
	c-1.7-2-2.6-4.3-2.6-7c0-2.7,0.9-5,2.6-6.8c1.8-1.9,4.2-2.8,7.2-2.8c2.9,0,5.3,1,7,3c1.8,1.8,2.8,4.1,2.8,6.6
	C246.4,289.8,245.6,292.2,243.8,294z M228.3,385.6v-81.4h16.6v81.4H228.3z M205.3,374.9c-7.7,8.2-17.6,12.3-29.6,12.3
	c-12.7,0-23.1-4.4-31-13.2c-7.4-8.3-11.1-18.7-11.1-31.2c0-11.3,3.8-20.8,11.5-28.6c7.8-7.9,17-11.8,27.8-11.8
	c8.5,0,16.2,1.9,23.1,5.6l0.5,0.3v17.7l-1.4-1c-2.7-1.8-6-3.4-9.7-4.8c-3.6-1.4-6.9-2.1-9.9-2.1c-7.7,0-13.8,2.4-18.4,7.2
	c-4.6,4.8-6.9,11.2-6.9,19.3c0,7.9,2.4,14.4,7.1,19.4c4.8,4.9,11,7.4,18.6,7.4c7.1,0,12.9-2.7,17.6-8c4.7-5.3,7.1-13.2,7.1-23.6
	v-72.5H217v75.1C217,355.8,213.1,366.6,205.3,374.9z M107.1,385.6v-47.4c0-5.8-1.8-10.5-5.4-14.2c-3.5-3.8-7.8-5.7-13.1-5.7
	c-5,0-9.3,1.9-13.1,5.7c-3.6,3.7-5.4,8.4-5.4,14.2v47.4H53.7v-47.4c0-10.5,3.3-19.1,9.8-25.7c6.6-6.7,15-10,25.1-10
	c10.1,0,18.4,3.3,25.1,10c6.7,6.7,10,15.3,10,25.7l0,47.4H107.1z M26.5,385.6V267.4h17.4l0,118.2H26.5z"/>
</svg>
